<?xml version="1.0" standalone="no"?>
<!DOCTYPE svg PUBLIC "-//W3C//DTD SVG 1.1//EN" "http://www.w3.org/Graphics/SVG/1.1/DTD/svg11.dtd" >
<svg xmlns="http://www.w3.org/2000/svg">
<metadata>Generated by IcoMoon</metadata>
<defs>
<font id="icomoon" horiz-adv-x="1024">
<font-face units-per-em="1024" ascent="960" descent="-64" />
<missing-glyph horiz-adv-x="1024" />
<glyph unicode="&#x20;" horiz-adv-x="512" d="" />
<glyph unicode="&#xe900;" glyph-name="Recurso-1h" horiz-adv-x="1017" d="M466.274 533.922c4.073 14.917 6.362 35.569 15.085 53.016 22.484 44.967 75.788 52.317 115.044 17.616 37.111-32.797 53.739-76.005 61.884-123.406 5.253-30.58 2-59.884-12.242-87.813-22.363-43.786-74.318-54.124-111.719-21.977-36.147 31.183-53.16 72.559-61.739 118.081-2.458 13.037-3.759 26.219-6.314 44.485zM631.828 455.169c-2.868 35.521-12.218 68.318-29.689 97.983-8.78 14.618-20.062 26.815-33.376 36.359-25.423 17.717-55.112 3.066-62.318-26.623-8.892-36.653-0.217-70.824 12.049-104.658 7.952-21.977 18.17-42.87 35.593-59.305 23.327-21.977 53.184-17.592 66.246 11.447 6.217 13.832 7.832 29.785 11.495 44.774zM375.641 215.899c0 62.125 55.811 76.511 97.959 52.1 44.172-25.592 68.824-65.523 70.559-116.225 1.639-47.497-40.702-71.113-83.596-56.269-36.147 12.531-58.607 39.906-72.294 74.415-5.856 14.676-8.531 30.605-12.627 45.979zM407.402 210.839l-2.241-0.675c3.687-13.784 5.976-28.147 11.398-41.232 10.169-24.532 24.725-45.979 51.112-56.124 21.688-8.362 41.232 2.916 45.786 25.689 3.663 17.929-1.301 34.243-8.001 50.148-10.675 25.375-25.857 47.256-52.486 58.293-20.411 8.483-41.352-1.349-44.533-20.532-0.747-5.109-0.675-10.386-1.036-15.567zM434.995 320.75c-10.555-2.145-19.423-5.037-28.339-5.229-3.398 0-8.989 5.446-10.097 9.398q-21.688 76.897-42.268 154.228c-3.735 14.194-4.314 15.471-18.266 10.7-7.591-2.578-15.134-5.302-22.773-7.76-5.205-1.687-11.688-5.205-13.905 3.060-1.976 7.422-7.543 16.242 4.097 21.688 7.12 3.383 13.221 7.060 18.916 11.257 12.387 9.154 17.616 22.649 20.604 37.807 1.181 5.976 4.82 13.399 9.639 16.339 14.194 8.651 18.098 6.217 21.303-10.218 14.459-73.981 31.062-147.48 53.859-219.413 2.097-6.747 4.41-13.423 7.229-21.857zM281.683 344.704c-1.566-11.856-1.807-24.098-4.988-35.496-7.687-27.689-33.737-37.81-56.149-19.881-14.76 11.972-26.876 26.559-35.778 43.13-20.467 39.479-30.010 81.265-22.443 125.22 2.131 11.825 6.024 22.388 11.443 31.974 15.186 27.090 45.525 29.018 62.924 2.799 9.997-15.048 18.825-32.308 25.62-50.557 11.622-29.995 18.436-62.66 19.362-96.795zM259.223 349.957c-5.012 23.688-9.326 50.606-16.724 76.752-5.164 17.308-12.401 32.406-21.607 46.067-10.491 15.914-27.818 13.408-36.252-4.57-2.77-5.711-4.672-12.355-5.332-19.359-2.885-35.729 2.392-70.117 18.297-102.047 6.163-12.023 13.382-22.382 21.794-31.638 12.136-13.498 28.812-9.521 34.355 7.829 2.313 7.567 3.181 15.616 5.47 26.966zM401.426 698.343c-2.94-33.593-12.651-62.462-38.171-84.343-35.882-30.894-79.765-19.447-95.139 25.158-12.868 37.256-10.218 73.499 10.844 107.55 15.182 24.556 45.955 39.352 70.487 34.171 18.941-4 31.737-16.339 38.557-33.159 6.338-15.736 9.085-32.894 13.423-49.377zM285.129 692.511c0-20.098 3.205-39.232 16.339-55.426 10.892-13.399 25.134-16.869 39.352-7.47 8.352 5.455 15.062 12.767 19.657 21.377 6.834 13.351 10.75 28.759 10.75 45.081 0 15.863-3.699 30.862-10.281 44.182-12.27 26.406-39.236 29.9-58.755 7.175-13.567-15.688-17.134-34.774-17.061-54.92zM848.976 291.905c-1.374-22.821-3.711-46.413-16.628-66.366-8.355-12.884-18.601-23.744-30.485-32.512-22.025-15.684-42.34-9.178-55.28 14.511-12.194 22.291-14.314 46.798-13.712 71.21 0.723 29.448 6.314 58.245 22.604 83.717 3.57 5.517 7.68 10.271 12.36 14.394 22.824 19.898 46.608 16.042 62.947-9.574 14.724-22.773 16.7-48.654 18.194-75.379zM754.993 277.446c4.073-17.568 6.482-36.412 12.989-53.715 7.061-18.797 23.761-20.893 38.388-6.916 3.916 3.343 7.084 7.436 9.303 12.070 4.746 12.486 10.12 24.92 11.879 37.716 3.856 28.243 1.494 56.221-13.278 81.524-8.796 15.061-25.423 16.435-37.111 3.374-4.786-5.092-8.451-11.295-10.564-18.177-4.545-18.066-7.509-36.188-11.558-55.924zM728.823 720.875c2.819-33.737-25.881-50.606-60.245-35.954-45.304 19.278-74.704 55.835-87.042 103.068-10.483 39.81 15.64 61.812 55.426 50.365 36.147-10.362 59.691-34.774 76.945-66.535 8.627-15.905 16.098-32.388 14.917-50.943zM626.936 825.051c-14.459-0.145-21.977-5.928-20.941-20.218 1.052-13.903 4.496-26.754 9.925-38.5 11.763-25.239 28.27-48.060 56.079-59.073 21.953-8.699 36.774 4.073 32.99 27.52-4.368 27.011-17.084 50.49-35.372 68.266-11.74 11.619-24.609 22.246-42.682 22.005zM795.888 438.156c-1.301-12.411-11.591-11.591-18.917-13.929-7.928-2.41-7.543 4.53-8.844 9.398-12.531 47.232-25.327 94.416-37.569 141.745-2.627 10.121-7.784 12.892-17.423 10.218-5.092-1.398-11.473-2.695-17.978-3.611-13.736-2.1-22.194 5.202-21.013 18.094 0.241 2.41 4.506 5.759 7.567 6.772 18.411 6.217 28.629 9.953 27.833 35.641 0.573 5.12 3.571 9.435 7.802 11.816 6.415 2.45 13.548 1.799 16.392-7.189 15.905-49.618 32.412-99.043 47.762-148.83 6.097-19.76 9.736-40.388 14.387-60.125zM911.149 514.475c-2.747-12.049-4.193-24.435-8.531-35.786-8.82-23.134-32.147-26.918-46.895-6.844-10.649 14.471-20.089 30.947-27.56 48.465-14.829 35.348-24.492 70.628-25.022 107.643-0.004 0.235-0.006 0.512-0.006 0.789 0 6.445 1.123 12.627 3.185 18.362 6.797 18.9 23.329 23.864 40.294 12.128 22.7-15.712 35.737-38.726 45.786-63.547 9.998-23.844 16.698-51.471 18.703-80.391zM895.389 524.379c-2.723 13.905-5.037 29.351-8.916 44.437-6.049 23.472-14.989 46.051-32.388 63.474-4.82 4.82-14.459 7.229-21.351 6.627-9.181-0.868-7.88-10.459-8.314-17.568-1.976-32.171 9.013-61.619 19.833-90.898 5.375-13.729 11.8-25.57 19.471-36.471 3.334-3.895 8.859-6.698 15.040-6.698 0.22 0 0.438 0.004 0.656 0.011 4.402 0.553 9.752 6.843 11.632 11.759 2.771 7.302 2.844 15.616 4.338 25.327zM682.458 160.401c0.506-13.977-12.796-25.134-22.556-21.833-2.916 0.988-5.35 6.531-6.097 10.362-6.169 31.062-11.929 62.221-17.76 93.356-3.229 17.278-3.663 17.423-19.905 11.88-9.495-3.229-19.158-5.904-28.749-8.868-6.41-1.976-10.941-0.554-12.868 6.555-1.735 6.386-2.097 11.712 5.615 14.676 6.338 2.41 12.386 5.663 18.531 8.603 16.869 8.025 25.134 22.363 27.592 39.834 1.349 9.639 6 13.856 14.459 16.724 9.109 3.085 13.495 0.482 15.013-8.916 3.494-21.375 7.519-42.678 11.037-64.053 5.567-34.002 10.892-68.077 15.688-98.32zM489.529 827.991c4.338-4 9.398-6.531 10.965-10.459 18.194-45.353 35.906-90.898 53.642-136.419 3.398-8.748 1.687-14.001-9.037-15.832-20.435-3.47-20.146-4.82-26.387 14.459-9.928 30.87-21.544 61.185-31.93 91.91-2.795 8.29-7.229 10.603-15.23 8.242-8.434-2.41-16.869-4.627-25.544-6.675-5.856-1.398-12.29-3.494-14.652 5.133s4.482 9.109 9.639 10.772c15.664 5.061 29.93 11.157 35.183 29.303 0.964 3.639 7.591 5.639 13.35 9.567zM372.797 87.649c-20.122-5.109-24.098-3.35-32.291 12.459-15.206 29.086-30.339 58.221-46.22 86.946-2.024 3.687-8.025 6.338-12.579 7.229-1.465 0.156-3.164 0.246-4.884 0.246-4.188 0-8.252-0.529-12.129-1.524-7.736-1.372-12.579 1.833-15.881 9.014s-2.53 11.736 6.386 13.856c14.459 3.422 20.266 11.23 18.845 25.833-0.723 7.422-0.217 12.459 8.025 14.459 8.772 2.145 12.411-2.868 15.302-9.639 8.555-20.266 16.411-40.967 26.050-60.655 14.748-30.219 30.773-59.787 46.172-89.693 1.022-2.222 2.109-5.048 3.042-7.944zM668.264 115.073c39.208 0.53 59.305-25.761 50.341-58.028-8.386-30.147-48.558-55.426-79.235-49.979-31.834 5.711-47.377 36.147-33.087 65.86 13.615 28.267 38.316 39.352 61.98 42.148zM654.89 18.464c25.737-0.12 44.34 18.074 44.34 43.377 0 21.52-12.386 36.003-30.556 35.762-0.069 0-0.151 0.001-0.234 0.001-24.076 0-43.593-19.517-43.593-43.593 0-0.424 0.006-0.846 0.018-1.267 0.047-21.217 11.325-34.157 30.025-34.254zM258.862 108.639c0.313-18.821-7.013-25.472-22.893-18.917-14.282 5.798-26.562 13.552-37.205 23.094-29.763 27.584-49.355 61.587-55.331 102.553-1.422 9.639-2.217 19.568 7.229 26.146s19.471 2.217 26.508-3.735c12.529-10.146 23.592-21.209 33.411-33.321 19.268-24.828 35.727-51.022 45.197-80.831 0.782-1.861 1.541-4.141 2.14-6.486 0.476-2.671 0.786-5.472 0.937-8.316zM238.571 117.073c0.002 0.108 0.003 0.237 0.003 0.365 0 2.304-0.309 4.536-0.887 6.656-11.598 32.163-27.455 62.237-51.649 86.938-5.085 5.181-14.459 6.29-21.688 9.278-0.988-7.88-4.265-16.266-2.578-23.544 6.675-29.11 21.688-54.124 42.172-75.716 5.711-5.896 12.374-10.827 19.749-14.555 10.061-5.085 14.663-1.543 14.88 10.579zM132.973 597.589c-1.325-27.833-4.82-54.847-14.459-80.68-3.623-9.072-8.306-16.899-14.026-23.84-8.385-10.403-20-10.090-26.603 1.67-5.395 9.393-9.296 20.365-11.046 32.041-5.004 36.976-1.606 72.81 15.769 105.896 4.21 8.116 9.466 15.048 15.701 20.956 11.747 10.781 23.458 7.672 27.194-7.63 3.832-15.808 5.085-32.243 7.47-48.413zM118.514 593.54l-2.121 0.53c-0.699 8.772-0.337 17.808-2.41 26.195-1.687 6.651-6.41 12.507-9.784 18.724-5.35-5.446-13.808-10.049-15.495-16.483-5.454-18.217-9.649-39.684-11.771-61.756-1.097-14.827 2.903-29.142 7.12-42.371 3.277-10.314 11.302-10.338 17.833-1.494 1.915 2.389 3.364 5.24 4.16 8.352 4.202 22.903 8.251 45.628 12.396 68.304zM194.881 547.007l-7.519 122.9-26.773-14.459c-5.157 8.314-4.073 14.266 3.807 19.664 13.368 8.793 23.626 21.351 29.368 36.16 2.586 6.687 9.503 11.097 14.37 16.302l3.711-1.976c0.386-4.53 0.916-9.037 1.109-13.567 2-48.461 3.88-96.947 6.025-145.408 0.434-10.483-5.543-16.29-24.098-19.616zM436.585 920.479c23.64-1.036 38.557-4.073 50.606-15.808 19.278-18.965 17.23-44.196-5.133-59.354-25.231-17.086-64.197-17.037-86.102 0-23.423 18.339-21.688 49.666 4.82 63.161 13.109 6.868 28.339 9.615 35.81 12.001zM438.344 911.201c-7.229-1.831-15.013-2.747-21.857-5.687-8.998-3.63-15.233-12.291-15.233-22.408 0-1.785 0.194-3.525 0.562-5.199 6.79-27.939 43.347-40.060 65.517-21.384 5.859 4.589 9.589 11.664 9.589 19.609 0 2.247-0.298 4.424-0.857 6.494-3.864 17.129-17.311 26.936-37.722 28.599zM159.337 276.458c-10.507-4.506-17.182-4.434-20.315 7.229-9.471 35.545-19.809 70.848-29.135 106.441-2.41 9.35-4.651 15.206-15.736 9.639-2.41-1.205-8.989 0.265-9.181 1.325-0.94 5.181-2.627 13.109 0 15.543 12.17 10.989 15.037 24.773 16.483 39.906 0.337 3.567 5.229 6.675 8.025 10.001 2.169-3.301 5.543-6.362 6.314-9.953 8.483-39.882 15.929-80.006 25.038-119.743 4.675-20.098 12.073-39.545 18.507-60.39zM364.098 64.491c32.797-4.82 64.631-23.809 86.343-57.835 10.916-17.11 2.53-31.785-18.001-31.617-41.786 0.361-75.475 17.375-97.308 53.811-12.603 20.965-2.747 36.316 28.966 35.641zM367.689 49.598c-14.266 0.217-19.278-4.555-16.7-16.049 5.277-24.098 45.931-53.377 70.631-50.823 9.856 1.012 14.194 7.229 11.447 16.652-6.531 22.146-42.678 49.883-65.378 50.196zM902.835 259.686v116.105c-7.639-3.615-11.543-6.121-15.832-7.229-3.859-0.813-8.34-1.334-12.923-1.444 0.223 5.71-1.681 14.602 1.187 16.602 17.278 12.049 22.411 29.207 24.821 48.534 0.386 3.133 5.663 5.639 8.651 8.434 1.783-3.060 4.675-5.952 5.181-9.205 7.543-49.666 8.338-99.646 7.47-149.77-0.169-11.133-4.892-17.037-18.556-22.026zM945.826 389.646c2.024 15.736 4.82 38.726 8.001 61.643 0.651 4.222 2.038 8.013 4.033 11.403 7.148 12.478 18.040 12.767 24.017-0.318 4.787-9.601 8.334-20.745 10.049-32.484 3.952-35.063 3.832-69.475-9.422-102.417-3.687-9.181-7.229-22.098-18.531-20.821-12.049 1.374-12.772 15.254-14.025 25.231-2.048 16.652-2.506 33.496-4.121 57.763zM973.731 451.145l-4.964 0.169c-2.121-4.82-5.133-9.471-6.241-14.459-6.627-30.171-5.326-60.607-1.615-90.946 0.747-6.049 5.061-11.688 7.735-17.495 3.928 5.543 9.784 10.555 11.422 16.7 3.964 14.149 6.243 30.398 6.243 47.179 0 14.513-1.705 28.629-4.924 42.157-1.174 5.032-4.958 10.695-7.657 16.696zM466.708 46.538c4.506 1.277 8.989 2.603 13.519 3.783 10.434 2.699 18.676 6.892 23.231 18.363 1.952 4.82 10.555 8.097 16.869 9.88 2.145 0.602 7.422-4.82 9.157-8.603q16.242-34.822 31.328-70.222c1.735-4.121 0.458-9.639 0.554-14.459-7.495-0.169-16.073-5.591-21.52 4.289-6.723 12.266-13.712 24.435-19.929 36.966-4.289 8.651-8.579 14.796-20.001 11.326-4.896-1.419-10.519-2.236-16.333-2.236-1.783 0-3.549 0.077-5.293 0.227-4.231 0.298-8.473 3.671-12.81 5.647zM29.568 389.646c1.301 9.832 1.831 19.881 4.241 29.424 1.58 4.384 5.007 7.764 9.316 9.246 2.829 0.658 8.396-3.511 10.010-6.836 6.314-12.868 13.326-25.785 16.869-39.521 7.229-28.918 12.868-58.486 18.531-87.886 0.469-2.739 0.737-5.894 0.737-9.111 0-3.931-0.4-7.768-1.161-11.473-0.612-3.393-3.817-8.888-6.757-9.538-3.832-0.819-10.483 1.109-12.507 4.145-7.698 10.754-14.809 22.99-20.73 35.887-11.273 26.228-17.813 55.086-18.545 85.382zM39.4 380.586c0.765-31.242 8.56-60.493 21.853-86.463 1.763-3.423 7.908-6.098 12.294-9.52 1.133 4.82 4.073 9.977 3.085 14.266-7.615 32.99-15.953 65.812-24.098 98.802-0.23 1.242-0.832 2.317-1.685 3.131-2.412 1.737-4.991 3.135-7.521 4.677-1.301-2.265-3.494-4.434-3.711-6.796-0.578-6.049-0.217-12.097-0.217-18.098zM914.522 703.090c-2.41-14.097-10.796-19.857-21.11-12.049-12.844 9.856-25.616 21.086-34.701 34.292-16.724 24.267-31.159 50.196-45.545 75.981-2.554 4.579-0.361 11.832-0.337 17.857 6.41-0.627 13.953 0.723 19.013-2.241 27.785-16.194 47.015-40.967 62.655-68.294 8.121-14.266 13.423-30.291 20.026-45.545zM898.28 714.344c-0.386 2.41-0.458 3.109-0.675 3.88-10.097 34.735-30.649 63.759-57.974 84.238-2.825 2.081-6.922 1.455-10.247 1.937 0-3.398-1.012-7.422 0.434-10.073 9.639-17.592 18.845-35.376 29.809-52.076 7.398-11.254 17.158-21.014 26.363-30.99 1.817-1.487 4.164-2.389 6.722-2.389 0.674 0 1.332 0.063 1.971 0.182 1.765 0.327 2.802 4.038 3.597 5.291zM835.384 697.331c-10.531-5.253-16.339-3.639-21.688 6.94-13.64 27.086-29.135 53.305-43.015 80.439-6.555 12.796-15.616 18.146-29.761 16.652-9.76-1.036-17.423 2.217-19.278 15.061 3.832 0.723 7.856 0.723 11.157 2.265 3.659 1.844 6.755 4.27 9.295 7.193 2.441 2.687 4.297 9.146 5.357 8.905 4.722-0.811 8.84-2.967 12.057-6.056 5.578-6.309 10.669-13.327 15.051-20.811 19.787-34.366 38.897-68.103 57.959-101.841 1.142-2.488 2.129-5.409 2.811-8.445zM239.896 812.857c-5.446-34.147-23.375-64.631-57.185-84.199-16.579-9.639-30.219-0.145-29.93 19.471 0.458 31.328 32.966 76.897 62.655 88.103 15.905 5.928 25.279-1.542 24.46-23.375zM166.421 756.901c2-3.133 4.241-10.82 8.748-12.507s12.386 1.109 16.869 4.506c19.616 15.037 27.616 36.798 31.328 60.245 0.723 4.458-1.133 12.049-4.241 13.688-3.807 2.097-11.157 1.253-15.254-1.205-22.893-13.905-33.617-35.545-37.448-64.727zM907.703 163.173c-0.554 3.398-1.928 6.892-1.494 10.145 1.109 8.314 4.289 16.507 4.217 24.725 0 6.073-3.952 12.049-6.121 18.194-5.229-3.229-12.555-5.229-15.254-9.904-6.939-11.783-13.661-25.629-19.3-40.019-3.456-10.009-5.256-19.228-5.705-28.799-0.346-3.982 1.968-10.995 3.896-11.308 0.34-0.022 0.737-0.034 1.137-0.034 4.369 0 8.395 1.472 11.607 3.947 4.052 2.931 6.727 7.775 10.269 11.582 2.024 2.169 4.482 3.928 8.844 7.687-3.374-17.327-25.954-39.497-38.822-40.967-8.458-0.964-12.29 4.386-12.314 11.35-0.051 1.349-0.081 2.933-0.081 4.524 0 9.357 1.012 18.477 2.934 27.257 7.075 28.632 17.703 56.996 41.969 77.094 5.277 4.41 15.278 9.23 19.712 7.037 5.446-2.699 9.639-12.362 10.314-19.278 1.542-18.604-3.976-36.147-11.832-52.847zM786.899 65.961l5.277 63.426c-10.314-4.94-17.833-9.085-25.785-12.049-2.892-1.109-6.796 0.482-10.242 0.843 1.639 3.277 2.41 8.362 5.061 9.639 17.451 7.757 30.871 21.93 37.458 39.449 1.798 4.723 7.918 7.253 11.967 10.555l4.41-1.542c0-6.458 0.53-12.941 0-19.278-2.41-24.243-4.82-48.534-8.073-72.656-2.097-14.435-6.434-17.64-20.074-18.387zM635.949 929.901c41.858-5.591 75.282-22.58 99.164-55.739 3.133-4.362 4.82-14.459 2.41-17.061-4.319-3.884-10.062-6.26-16.36-6.26-0.918 0-1.824 0.050-2.715 0.149-37.097 6.786-65.943 27.848-89.487 56.524-3.133 3.807-5.253 10.7-4.048 15.11 0.94 3.47 7.784 5.326 11.037 7.278zM708.797 864.837c11.639 0.217 14.459 5.687 8.145 14.459-15.399 21.688-36.677 35.183-62.366 41.401-3.253 0.795-7.229-1.615-10.965-2.53 1.012-3.567 0.892-8.483 3.229-10.459 16.001-13.495 32.291-26.701 49.040-39.256 3.832-2.916 9.832-2.892 12.917-3.711zM970.816 502.618c-0.747-0.241-4.41-2.771-7.374-2.072-3.186 1.315-5.61 3.921-6.652 7.148q-13.542 49.314-26.266 98.884c-1.856 7.229-4.82 10.579-13.158 10.483-4.555 0-10.314 4.41-13.447 8.434-4.603 5.952 1.157 8.94 5.061 13.326 3.47 3.928 3.157 11.206 4.41 17.037 0.747 3.518 1.277 7.085 1.904 10.651 3.109-2.41 7.928-4.458 9.037-7.663 10.627-30.243 21.23-60.51 30.58-91.163 5.976-19.544 9.808-39.714 15.905-65.065zM309.323 796.639l-4.169 61.812-30.605-10.844-2.289 4.097 55.811 40.437c2.241-30.653 5.277-56.847 5.109-82.994 0-5.229-12.29-10.362-18.917-15.543zM981.901 619.012l-15.278 25.689c-6.892-12.507 15.857-93.645 32.002-107.212-1.060 10.675-1.615 21.447-3.35 32.026s-4.675 21.399-7.085 32.099l3.446 1.036c2.19-5.451 4.362-12.236 6.096-19.194 3.23-17.628 6.17-34.207 7.471-50.883 0.458-5.35-3.976-11.109-6.169-16.676-3.904 4.169-9.639 7.663-11.398 12.579-9.181 24.773-17.929 49.763-25.64 75.017-3.73 12.411-7.206 27.87-9.699 43.656-0.976 6.179 1.675 10.806 2.783 15.168 3.952-2.024 9.495-3.036 11.567-6.266 7.229-11.133 13.182-23.062 19.64-34.677zM520.519 917.877c2.41 1.253 4.964 2.578 7.495 3.711 7.037 3.133 13.856 7.229 21.23 8.916 5.47 1.277 14.459 1.856 17.11-1.301 18.194-20.7 35.135-42.509 52.389-64.029 0.868-1.084 0.747-2.916 1.060-4.314-12.917-6.217-19.278-4.651-26.821 6.073-8.531 12.049-17.423 23.953-25.689 36.147-6.266 9.278-14.314 13.085-25.472 11.76-3.45-0.241-7.476-0.379-11.534-0.379-3.19 0-6.361 0.085-9.509 0.253zM167.65 104.663c-4.169 3.976-9.422 7.229-12.29 12.049-13.64 22.58-26.243 45.786-40.147 68.246-4.056 5.906-9.46 10.608-15.785 13.725-9.084 4.565-11.277 10.108-5.903 19.12 1.446 2.41 1.060 5.952 1.615 8.94 0.819 4.627 1.711 9.23 2.554 13.832 3.109-3.759 6.988-7.085 9.133-11.326 5.832-11.374 10.314-23.472 16.435-34.677 14.17-25.954 28.918-51.522 43.545-77.283 1.687-2.988 3.133-6.121 4.699-9.205zM557.582-63.060c-10.989 2.916-20.989 4.434-29.954 8.266-10.483 4.506-10.651 14.917-1.398 21.688 17.519 12.844 64.197 14.459 83.162 2.675 9.639-6 10.218-16.122-0.506-19.809-16.748-5.735-34.46-8.748-51.305-12.82zM567.582-57.253c7.229 1.88 15.278 3.591 23.038 6.217 2.554 0.868 6.241 4.217 6.049 6.049-0.608 3.517-2.63 6.472-5.447 8.309-15.253 8.271-30.965 7.74-46.099 0.029-8.217-4.193-8.073-11.398 0.313-15.134 6.41-2.747 13.64-3.494 22.146-5.47zM241.366 50.803c5.35 7.422 8.772 12.049 12.049 16.869 6.025 8.483 11.23 3.253 15.375-1.542 8.651-10.001 16.218-20.965 25.014-30.821 12.531-14.049 25.809-27.424 38.677-41.16 1.552-1.888 3.039-3.99 4.372-6.195l-2.034-3.589c-5.759 3.109-12.435 5.205-17.134 9.495-12.337 11.095-23.687 22.46-34.405 34.404-7.304 8.945-17.227 14.81-28.521 16.416-5.393 0.726-10.188 4.558-13.393 6.124zM37.882 458.904v92.199c-9.471-2.145-13.23 0.458-10.386 7.88 5.277 13.784 10.892 27.424 16.531 40.967 0.699 1.711 2.41 3.036 6.868 4.265 0-5.085 0-10.193 0-15.278-0.795-38.412-1.494-76.849-2.578-115.261-0.145-5.374-2.217-10.7-3.374-16.049zM789.236 20.705l12.627 20.339c-15.736 7.735-42.63-12.194-48.895-37.135l20.218 5.302 1.374-2.699c-10.434-4.41-20.58-10.169-31.448-12.748-7.229-1.711-9.639 5.422-6.506 11.374 15.061 28.436 38.846 46.268 69.884 54.124 8.796 2.241 13.423-4.82 9.639-13.206-5.071-11.861-14.674-20.962-26.576-25.251zM99.043 677.281l14.097 61.643-10.483-5.109-2.41 2.024 35.424 45.136 3.398-2.024c-4.121-12.314-8.94-24.46-12.073-37.015-4.289-16.652-6.675-33.737-11.278-50.317-1.759-6.338-7.374-11.591-11.23-17.327zM176.904 76.636l21.929-28.918c-15.447 8.772-25.857 22.026-34.412 36.87-0.988 1.687-1.060 5.639 0 6.41 1.43 1.036 3.22 1.658 5.155 1.658 0.824 0 1.621-0.113 2.377-0.323 7.167-3.455 14.83-6.709 20.59-12.034 20.989-19.11 41.376-38.894 61.691-58.751 3.277-3.205 4.964-8.049 7.952-13.085-15.447-0.964-18.676 1.735-19.905 13.64-0.362 2.045-1.365 3.811-2.789 5.127q-26.249 24.61-52.781 48.901c-2.035 1.317-4.397 2.36-6.92 3.001zM976.768 294.049c-5.856-37.834-12.218-75.523-29.665-110.128l-4.386 1.109 15.977 57.498-14.965-4.82 29.207 57.353zM6.458 422.107c-10.145 21.929-5.205 43.377-5.567 64.342l3.446 0.289v-39.135c10.483 33.52 10.314 81.933 0.554 83.5l7.157 24.604c10.965-14.435 6.217-120.033-5.591-133.6zM679.349-31.998c-4.603 5.012 2.121 18.772-12.049 16.001-7.229-1.398-14.29-3.663-21.447-5.518l-1.663 3.494c3.567 2.072 7.229 4.048 10.7 6.241 8.314 5.229 16.363 10.916 24.942 15.688 4.451 2.13 9.772 4.142 15.276 5.72 1.81-4.636 3.979-9.455 3.738-14.275-1.036-20.556-4.073-25.351-16.001-27.881-0.086-0.003-0.187-0.004-0.289-0.004-1.148 0-2.25 0.196-3.275 0.556zM1010.336 366.705v80.704l-3.253-1.277c-2.723 3.615-8.145 7.639-7.687 10.772 2 13.471 5.735 26.677 8.772 39.69 8.916-10.001 12.651-109.502 2.169-129.889zM42.678 267.349c-2.573 5.51-5.389 12.631-7.845 19.917-5.915 21.218-10.735 40.979-15.916 60.643-0.506 1.928-0.361 4.699-1.615 5.663-15.447 11.856-3.374 28.098-6.747 41.858-0.578 2.41 1.494 5.398 2.651 9.109l32.725-136.154zM550.497 949.397l-14.724 9.639c13.182 3.036 22.58-1.398 30.412-7.543 5.302-4.169 1.349-9.254-4.097-10.434-9.736-2.169-19.881-5.157-29.52-4.241-16.194 1.639-32.219 5.687-48.196 9.639-3.47 0.868-5.976 5.543-8.916 8.483 1.976 1.807 4.048 5.205 5.88 5.061 3.807-0.289 8.555-1.398 11.037-3.976 10.82-11.085 42.148-15.977 58.125-6.627zM59.137 224.358l1.518-9.133c-0.988 0-2.169-0.361-2.241-0.193-3.639 9.254-7.229 18.531-11.543 29.833 17.76-4.241 71.86-95.694 72.029-120.298-6 6.217-13.447 10.483-13.23 14.29 0.892 15.037-8.338 25.448-14.266 37.28-6.988 13.929-15.11 27.279-22.893 40.798-2.27 3.51-4.444 6.495-6.761 9.359zM41.931 642.074l1.735-15.567c3.928 6.025 6.844 9.157 8.242 12.844 6.458 17.23 12.603 34.581 18.58 52.004 0.751 1.709 1.189 3.701 1.189 5.796 0 1.236-0.152 2.436-0.439 3.583-4.629 11.321 3.082 15.345 13.324 19.177-1.062-6.791-2.405-12.663-4.106-18.38-8.593-23.888-17.63-48.709-27.101-73.362-2.676-5.795-5.857-10.789-9.608-15.292-1.116-1.529-4.731-3.384-5.743-2.758-2.123 1.417-3.564 3.711-3.805 6.353 0.961 8.66 2.769 17.191 4.287 25.77zM887.46 793.386c27.761-32.412 48.847-69.017 67.161-107.309l-3.542-2.41c-2.582 3.012-5.079 6.329-7.362 9.8-10.663 18.781-20.133 37.77-31.556 55.579-5.543 8.675-15.254 14.579-21.52 22.917-4.048 5.398-5.302 12.892-7.808 19.471zM1012.553 338.269l-5.253-32.725h-2.699l-3.35 10.266-23.158-89.018-5.567 1.711c10.531 37.328 15.543 76.319 33.737 111.285zM421.717-43.035c11.23 4.338 19.278 8.025 27.857 10.483 1.217 0.353 2.614 0.555 4.059 0.555 2.714 0 5.261-0.715 7.462-1.968 12.143-8.612 23.758-18.107 36.482-27.987-10.41-4.603-18.315-0.699-25.472 4.193-11.615 7.928-23.833 12.603-38.147 11.519-3.205-0.265-6.603 1.663-12.242 3.205zM343.47-29.829l11.206-9.061c-10.459-1.47-24.098 6.121-30.484 18.965 35.906-1.807 65.185-15.881 93.693-32.267l-0.94-4.41c-5.192 0.855-9.78 2.069-14.186 3.667-15.045 6.888-30.348 14.575-45.939 21.515-2.94 1.446-6.747 0.988-13.35 1.59zM445.646 930.938c-14.772-8.507-17.013-7.543-26.267 5.277-3.301 4.555-9.639 6.964-14.001 10.025 19.134 13.182 28.388 10.627 40.268-15.302zM326.409 893.778c-13.206-3.494-26.291-7.47-39.665-10.121-3.277-0.651-9.326 2.169-10.603 4.988s0.386 8.989 2.916 11.519c5.615 5.567 12.579 9.639 20.218 15.423 0.127-0.893 0.2-1.924 0.2-2.972 0-0.413-0.011-0.823-0.033-1.23-2.407-4.932-4.962-9.896-7.444-14.86 2.682-0.159 5.819-0.25 8.977-0.25s6.294 0.091 9.407 0.269c5.233 0.931 10.173 2.178 14.953 3.776zM826.926 845.221c-27.689 9.639-52.462 19.519-74.294 41.111 13.977 5.181 22.556-0.699 31.062-7.856l-14.7 2.627c10.193-11.182 22.315-18.025 37.232-19.278 10.7-0.916 15.808-4.458 20.7-16.604zM248.885 886.212c-12.218-11.639-9.519-34.774-30.846-40.003 0.289 20.869 9.712 33.472 30.846 40.003zM334.361 928.48c0.265 0.289 0.506 0.795 0.819 0.843 7.88 1.542 18.435 7.495 22.17-1.928 1.759-4.41-7.711-13.64-12.796-20.122-1.157-1.47-5.229-0.651-7.952-0.868 0.193 2.41 0.53 4.82 0.578 7.061 0 4.82 0 9.88 0 14.82zM923.511 148.473c-5.35-18.507-17.64-32.436-29.424-46.702l-3.639 2.41 32.87 44.485zM923.294 148.666l18.29 26.171 3.759-2.964c-2.048-12.29-13.784-16.266-21.857-23.399z" />
<glyph unicode="&#xe901;" glyph-name="Recurso-2v" horiz-adv-x="1064" d="M836.551 481.212c-0.816 3.87 2.075 8.37-4.29 10.188-17.369 4.943-34.506 10.725-51.992 15.154-29.283 7.391-58.706 14.245-88.176 20.773-17.439 3.87-34.972 6.808-52.668 9.909-16.017 2.821-32.104 5.222-48.145 7.88-23.315 3.824-46.396 7.974-69.687 11.494-16.32 2.471-32.64 4.22-48.961 6.108-18.862 2.192-37.723 4.406-56.631 6.202-15.271 1.446-30.612 2.331-45.906 3.287-18.652 1.259-37.467 2.331-56.211 3.66-4.943 0.326-7.391-1.795-8.696-6.668-5.526-20.82-12.054-41.43-16.973-62.39-5.339-22.732-9.326-45.767-13.989-68.661-0.909-4.523 0.606-7.251 5.036-9.093 22.615-9.326 30.985-28.094 32.081-50.802 0.28-5.829 2.075-7.414 6.994-8.487 23.897-5.246 47.655-11.074 71.622-16.040q34.972-7.228 70.224-13.103c24.387-4.033 48.961-7.158 73.348-10.795 15.574-2.331 31.032-5.502 46.629-7.181q46.093-4.989 92.326-8.696c26.229-2.145 52.528-3.637 78.827-5.199 12.124-0.723 24.27-0.816 36.394-1.399 9.326-0.443 10.888 0.21 13.359 8.976 4.919 17.416 9.792 34.972 13.989 52.458 3.894 16.32 7.134 32.64 10.235 48.961 3.963 21.146 7.507 42.316 11.261 63.462zM838.509 511.521c0.356 1.34 0.698 3.054 0.948 4.797 1.57 23.577 4.344 46.892 4.228 70.206-0.14 31.358-2.541 62.716-3.824 94.098-0.187 4.546-2.331 6.481-6.458 7.414-17.416 3.87-34.692 8.463-52.225 11.657-18.232 3.357-36.674 5.619-55.069 8.067-8.743 1.166-17.439 1.422-19.491-10.422 0-0.606-0.746-1.142-1.166-1.679-22.382-28.887-70.97-20.26-79.876 8.626-2.005 6.505-6.085 8.253-12.427 7.834-24.224-1.609-48.541-2.331-72.695-4.663-17.766-1.609-35.415-4.663-53.041-7.601-13.732-2.331-27.325-5.432-40.987-8.16-11.238-2.331-22.638-3.87-33.666-6.831-22.522-6.038-44.904-12.613-67.193-19.444-3.593-1.203-6.48-3.696-8.169-6.916-7.801-19.196-14.889-38.571-22.256-57.852-1.609-4.197 0.326-5.456 4.080-5.526 8.020-0.14 16.087 0 24.084-0.49 21.24-1.492 42.479-3.054 63.672-5.106q41.29-4.033 82.487-8.929c19.095-2.331 38.143-4.943 57.191-7.624 31.428-4.406 62.949-8.626 94.028-15.015 18.815-3.847 37.653-7.647 56.375-12.007 29.167-6.808 58.286-13.989 87.313-21.123 11.82-2.844 23.688-5.456 35.485-8.323 6.132-1.306 12.147-3.124 18.652-4.919zM791.763 287.118c-3.847 0.326-6.248 0.629-8.65 0.699-14.432 0.49-28.863 0.699-43.295 1.422-38.119 1.865-76.215 3.054-114.078 9.326-31.801 5.176-64.092 7.274-96.079 11.378-27.698 3.544-55.372 7.367-82.883 12.147-23.664 4.103-47.049 9.699-70.55 14.688-21.496 4.663-42.945 9.442-64.511 13.686-0.452 0.062-0.975 0.098-1.506 0.098-3.014 0-5.76-1.144-7.83-3.021-9.104-10.648-21.125-18.571-34.825-22.549-3.718-0.672-6.129-3.43-6.129-6.752 0-0.278 0.017-0.552 0.050-0.822 0.556-30.696 0.789-61.425 1.699-92.13 0.672-11.647 1.993-22.413 3.954-32.954 0.237-1.015 1.856-3.171 4.068-4.374 10.513-3.17 21.028-5.828 31.776-8.276 6.994-1.585 13.989-2.635 20.983-3.637 12.916-1.819 25.809-3.8 38.795-4.989 16.18-1.492 32.431-2.518 48.681-3.217q35.345-1.539 70.736-2.098c2.971 0.509 5.405 2.427 6.622 5.028 4.803 16.165 15.317 26.54 30.332 33.628 26.509 12.613 64.675 0.35 74.607-23.524 2.331-5.339 5.945-6.458 11.028-5.339q20.983 4.546 42.129 9.046c15.877 3.357 31.871 6.225 47.632 10.095 20.47 5.013 40.801 10.608 61.084 16.32 6.178 1.537 11.009 6.143 12.836 12.067 3.414 10.315 7.914 20.154 11.691 30.225 3.73 10.841 7.414 21.846 11.611 33.899zM270.449 164.973c3.894-17.509 6.785-33.503 11.121-48.961 4.663-17.183 10.282-34.249 16.623-50.919 4.103-10.771 6.994-22.755 16.623-30.426 10.748-8.533 21.659-16.973 33.083-24.55 12.986-8.603 26.835-15.854 39.915-24.317 23.734-15.364 50.499-23.921 76.612-33.503 17.509-6.435 36.301-9.326 54.603-13.522 4.803-1.096 10.422-2.331 14.805-0.769 9.527 3.34 17.725 7.275 25.399 11.982 24.52 14.629 46.218 31.467 65.638 50.611 5.229 5.159 12.083 9.566 9.822 17.516 4.010 1.469 7.647 1.842 9.862 3.8 6.004 5.041 11.351 10.477 16.147 16.38 12.81 16.797 25.82 33.257 36.871 50.836 15.061 23.781 28.677 48.494 42.642 72.975 4.22 7.414 7.531 15.318 11.657 23.688-13.056-3.59-24.55-7.297-36.301-9.885-29.493-6.505-59.102-12.497-88.595-18.652-7.554-1.609-15.131-3.287-22.499-5.526-1.795-0.536-3.217-3.357-4.127-5.432-3.66-8.323-5.619-17.836-10.841-24.993-18.045-24.737-55.046-29.493-82.72-10.258-9.536 6.621-13.989 16.507-17.999 26.928-1.144 2.681-3.43 4.684-6.23 5.418-25.921 1.204-51.8 2.113-77.679 2.626-37 0.723-73.254 6.598-109.229 14.805-7.694 1.609-15.434 2.495-25.203 4.15zM351.747 691.066c2.436 0.2 4.636 0.522 6.789 0.971 8.389 2.596 16.992 5.93 25.875 7.935 25.017 5.642 50.056 11.308 75.283 15.924 28.537 5.222 57.191 10.165 85.984 13.662 16.987 1.976 36.668 3.103 56.612 3.103 1.802 0 3.601-0.009 5.399-0.028 10.008 0.002 16.536 1.961 20.709 12.336 4.239 9.834 12.457 17.266 22.571 20.357 9.091 2.795 19.256 1.256 28.861 1.373 2.938 0 6.715 0.326 8.696-1.259 10.072-8.113 19.631-16.787 23.641-29.866 0.768-2.3 2.453-4.114 4.609-5.039 7.748-1.909 15.605-3.261 23.368-4.474 6.342-0.979 12.8-1.166 19.095-2.331 23.315-4.173 46.349-8.603 69.524-12.893 1.912-0.35 3.87-0.396 7.111-0.723-3.8 16.74-8.207 32.081-10.538 47.772-2.565 16.32-11.984 27.838-23.315 38.399-4.197 3.894-8.417 7.787-12.706 11.657-13.989 12.427-27.371 25.879-42.456 36.93-23.315 17.16-47.375 33.666-73.814 46.303s-53.064 23.851-81.601 30.495c-7.674 1.38-14.364 3.182-20.817 5.481-12.802 5.337-24.739 5.99-38.145-3.289-21.984-14.767-41.168-30.724-58.588-48.422-15.080-15.818-29.522-32.641-43.066-50.193-26.996-35.164-48.632-71.628-67.96-109.445-4.057-7.601-7.158-15.691-11.191-24.76zM508.864 934.89c-23.758 2.168-47.235 3.008-70.55-0.863-16.561-2.72-30.713-6.004-44.521-10.091-15.654-4.69-34.073-9.959-51.372-17.583-25.646-11.238-50.243-24.644-71.832-42.666-16.157-13.499-32.64-26.788-47.165-41.966-20.468-21.679-38.369-46.135-52.996-72.649-9.557-17.555-18.883-32.826-26.251-49.006-5.762-12.352-11.471-27.442-16.14-42.982-6.195-20.877-10.415-39.645-15.078-58.274-0.445-2.429-0.747-5.281-0.837-8.186 8.904 0.982 16.924 3.15 24.758 2.614 12.73-0.863 21.659 5.852 31.032 12.427 6.178 4.313 12.263 8.86 18.792 12.59 14.688 8.44 29.236 17.276 44.531 24.434 24.247 11.331 48.704 22.429 73.814 31.568 12.823 4.663 20.354 11.774 23.851 24.294 0.565 1.686 1.227 3.134 2.020 4.498 7.702 14.947 14.883 30.311 23.37 44.952 13.546 23.315 27.278 46.629 42.176 69.151 11.078 16.241 22.163 30.369 34.094 43.726 12.862 14.771 26.827 29.366 41.399 43.261 11.611 11.004 24.644 20.563 36.907 30.752zM582.002-59.663c0.117 0 0.303-0.396 0.443-0.396 31.148 3.264 62.017 7.367 92.139 17.043 26.602 8.533 53.297 16.32 78.733 28.327 29.929 14.554 55.223 29.395 79.261 45.929 2.711 1.484 6.823 4.639 10.516 8.223 12.597 13.973 25.77 27.402 36.774 42.51 11.379 15.172 22.212 32.333 31.643 50.344 11.405 21.864 22.169 46.125 31.457 71.103 9.035 25.528 13.301 47.771 18.734 69.546 1.492 6.015 1.888 12.333 3.008 20.12-13.056-9.466-24.34-18.465-36.417-26.182-16.017-10.258-32.104-20.657-49.17-28.933-27.138-13.173-54.673-25.786-82.907-36.324-14.199-5.316-25.18-11.098-28.351-26.742-0.251-0.694-0.574-1.295-0.97-1.839-12.552-23.107-24.652-46.608-37.895-69.27-10.527-17.873-20.537-32.848-31.28-47.243-10.267-13.934-22.344-28.669-34.911-42.938-16.46-18.652-33.433-36.977-53.624-51.805-9.303-6.808-18.139-14.292-27.208-21.473zM103.050 492.869h-1.236c0.886-16.693 1.376-33.433 2.961-50.056 0.28-3.008 4.523-6.738 7.787-8.137 11.657-4.943 23.501-9.046 35.322-13.383 15.434-5.665 30.962-11.098 46.326-16.926 6.435-2.331 10.422-1.003 12.986 5.479 1.295 2.799 2.961 5.196 4.971 7.256 8.481 9.46 19.719 13.704 31.703 16.758 2.331 0.606 5.689 2.798 6.108 4.663 3.287 15.924 5.572 32.034 8.929 47.935 3.474 16.32 7.67 32.477 11.867 48.658 2.984 11.517 6.412 22.918 9.676 34.366 1.049 3.707 0.793 6.225-4.080 6.365-9.839 0.28-19.678 1.306-29.516 1.212-20.4-0.163-40.801-0.769-61.201-1.352-7.554-0.21-15.108-0.699-22.615-1.446-2.863-0.197-5.467-1.162-7.649-2.69-15.899-12.581-31.822-25.287-47.303-38.437-2.693-2.578-4.474-6.089-4.822-10.012-0.68-10.109-0.214-20.088-0.214-30.253zM818.342 308.101c2.252-0.376 4.929-0.643 7.648-0.743 12.239 0.346 24.386 0.603 36.51 1.326 28.327 1.655 56.678 3.217 84.958 5.432 15.784 1.236 23.315 9.932 23.105 25.646-0.606 30.892 2.075 61.83-2.331 92.722-1.072 7.74-3.171 12.054-10.305 14.688q-47.981 17.719-95.8 35.858c-4.803 1.819-7.414 0.699-8.207-4.453-1.912-12.403-4.057-24.783-5.735-37.303-5.261-38.722-12.745-72.984-22.658-106.2-1.543-5.314-4.084-15.712-7.185-26.973zM108.809 412.597c-0.010-0.369-0.016-0.803-0.016-1.239 0-2.235 0.15-4.435 0.44-6.59 4.332-21.501 8.156-43.393 13.471-65.029 5.118-20.335 10.499-37.087 16.781-53.393 5.648-14.849 13.598-32.405 21.455-49.938 1.982-4.406 4.803-9.839 8.72-11.657 17.299-8.323 34.972-15.691 52.831-23.035 5.782-2.331 12.030-3.684 19.374-5.875 0 4.057 0.117 6.715 0 9.326-1.282 22.848-2.914 45.673-3.8 68.545-0.583 14.665-0.233 29.376 0 44.065 0 5.665-1.515 9.326-7.204 11.657-20.61 8.3-30.729 24.504-32.944 46-0.096 4.757-3.358 8.726-7.761 9.892zM39.635 312.414l-1.399-0.49c0.303-2.122 0.443-4.29 0.956-6.365 9.249-37.978 22.722-71.386 40.251-102.185 14.957-25.907 30.686-49.511 47.79-72.013 26.76-35.913 61.172-67.364 98.476-95.342 19.328-14.502 40.707-26.369 61.481-38.842 8.044-4.826 17.020-8.067 26.276-12.357-6.715 11.168-13.359 20.983-18.792 31.568-4.417 8.681-9.999 16.087-16.654 22.369-11.557 10.831-22.771 22.022-33.332 33.749-12.846 14.269-25.46 28.84-37.14 44.065-21.426 27.978-38.702 58.473-55.955 89.085-2.163 3.525-4.966 6.446-8.271 8.68-16.046 11.137-32.46 21.582-48.244 32.913-8.604 5.828-16.064 12.378-22.627 19.745-10.736 12.942-19.875 26.978-29.644 40.524-0.839 1.679-1.982 3.311-3.171 4.896zM963.149 466.29c0.083 0.943 0.131 2.040 0.131 3.147s-0.047 2.205-0.14 3.289c-3.511 17.578-6.215 35.554-10.925 52.946-10.833 41.228-24.072 76.808-40.337 110.659-3.308 6.427-7.947 16.686-13.683 26.291-2.763 4.022-6.545 7.16-10.979 9.076-6.382 2.771-14.346 5.651-22.498 8.099-3.509 0.845-5.665 1.121-7.871 1.195 0.175-2.796 0.315-4.661 0.478-6.34 1.119-12.543 2.961-25.063 3.171-37.606q0.746-41.57 0-83.14c-0.28-14.362-2.331-28.677-3.147-43.062 0.092-2.531 1.41-4.735 3.376-6.044 8.048-3.305 16.348-5.799 24.601-8.737 20.68-7.437 41.383-14.875 61.993-22.499 5.222-2.052 10.119-4.686 15.924-7.367zM1005.768 627.977c-27.441 74.607-73.814 135.877-132.031 188.265-21.216 19.095-43.179 38.003-70.084 51.012 0.016-1.058 0.143-2.077 0.369-3.059 7.675-17.505 15.252-35.154 23.156-52.64 4.103-9.093 7.88-18.535 13.406-26.719 8.183-12.1 17.789-23.315 26.788-34.739 13.477-16.55 25.83-35.104 36.329-54.797 2.699-5.425 5.031-9.598 8.271-11.44 11.121-6.272 22.872-11.424 34.156-17.416 10.492-5.572 20.983-11.214 30.985-17.672s19.235-13.872 28.77-20.89zM926.498 654.672c3.684-8.58 6.994-15.761 9.932-23.105 8.277-20.587 17.16-40.964 24.364-61.9 5.144-14.387 10.549-33.149 14.977-52.287 4.747-21.131 7.009-38.897 10.413-56.406 0.69-2.811 2.362-5.151 4.624-6.689 9.785-5.97 19.833-11.403 29.742-17.068 6.994-3.94 13.709-7.974 21.449-12.497 0.779 2.297 1.37 4.984 1.664 7.76-0.359 14.575-0.778 29.007-1.594 43.392-0.387 10.973-1.399 21.338-3.011 31.504-3.587 19.928-7.877 41.238-12.54 62.454-1.142 5.899-3.657 11.078-7.204 15.376-10.137 11.502-20.802 22.011-32.161 31.731-12.44 10.154-25.869 18.244-38.995 26.59-6.481 4.057-13.639 6.994-21.589 11.051zM128.23 248.602l2.192 1.282c-0.769 2.984-1.352 6.015-2.331 8.906-5.805 16.6-11.914 33.13-17.579 49.777-11.611 33.596-18.349 68.568-23.548 103.54-1.399 9.326-4.663 14.805-13.126 18.349-8.044 3.334-15.574 7.927-23.804 12.194-12.030-40.567-12.077-80.132 7.391-117.948 16.688-31.63 40.747-57.386 69.982-75.62zM38.889 575.915c17.742 4.267 33.41 7.95 48.961 12.007 1.236 0.326 2.145 3.264 2.565 5.106 1.749 8.044 2.821 16.32 4.896 24.177 9.046 34.552 18.838 68.895 34.389 101.209 7.81 16.32 16.32 32.221 25.506 47.655 7.997 13.522 17.719 26.066 26.649 39.192 0.316 0.604 0.573 1.305 0.735 2.041-70.423-62.449-118.124-138.735-143.701-231.387zM789.339 224.518c22.942 3.66 122.238 53.903 130.562 65.794-0.6 0.142-1.303 0.242-2.022 0.279-32.95-1.304-65.87-2.913-98.813-3.706-6.085-0.14-8.696-2.122-10.422-7.204q-6.272-18.512-12.776-36.93c-1.982-5.969-4.197-11.844-6.528-18.232zM937.246 132.332c23.897 16.95 87.523 143.291 87.103 176.305-10.002-2.448-19.934-5.176-30.006-7.251-5.782-1.189-7.228-4.663-8.417-9.909-5.992-27.488-11.074-55.326-19.351-82.161s-20.004-52.877-29.33-76.985zM39.938 473.588c0.577 0.687 1.145 1.447 1.668 2.239 8.94 15.783 17.45 31.637 29.853 45.113 4.793 4.89 8.574 10.793 10.988 17.356 2.604 8.453 2.441 17.359 3.49 26.545-0.738 0.093-1.593 0.146-2.46 0.146s-1.721-0.053-2.56-0.156c-14.914-4.653-29.999-9.036-44.827-14.165-2.331-0.769-4.173-4.663-4.663-7.507-2.541-12.776-4.383-25.646-6.785-38.492-3.544-19.001-2.868-20.75 13.336-30.565 0.563-0.223 1.223-0.402 1.907-0.506zM621.264 937.805l-0.816-2.541c68.405-23.315 128.114-60.921 181.527-109.579-2.045 7.631-4.835 14.304-8.379 20.489-11.881 19.589-19.155 43.603-45.198 51.95-13.989 4.453-26.928 11.401-40.707 16.32-13.173 4.663-26.765 8.090-40.241 11.657-15.341 4.033-30.799 7.787-46.186 11.704zM185.048 193.836c20.797-41.966 48.611-78.593 80.692-112.073-1.795 9.326-4.849 18.162-6.994 27.185-4.383 18.955-8.37 38.003-12.194 57.097-0.38 3.699-3.042 6.684-6.539 7.542-9.805 3.253-19.34 7.007-28.946 10.667zM196.449 599.137c0.811-0.45 1.75-0.825 2.738-1.078 28.27-0.018 56.434-0.205 84.622 0.122 3.053 0.501 5.583 2.378 6.969 4.961 3.895 9.074 7.020 18.447 10.307 27.703 2.588 7.204 5.153 14.408 8.417 23.571-39.775-16.483-77.684-32.081-113.052-55.279zM993.411 349.554c1.512 0.879 2.815 1.899 3.96 3.074q17.256 23.318 34.323 47.006c2.331 3.241 1.492 5.945-1.912 7.997-11.494 6.994-22.942 13.989-34.459 20.983-1.274 0.533-2.751 0.913-4.295 1.067zM617.837 957.039l104.589-25.273c-32.734 18.349-66.19 32.151-104.589 25.273zM81.415 498.651l-2.518 0.606-22.126-37.886 24.644-11.96zM848.768 742.148l-1.492-0.933c1.819-10.748 3.521-21.543 5.572-32.244 0.435-2.016 1.691-3.677 3.393-4.645 7.309-3.096 14.769-5.707 22.16-8.481l1.189 1.119zM1002.224 325.657l1.026-1.142c6.994 2.448 13.989 4.803 20.867 7.437 2.518 0.956 6.342 2.098 6.994 3.94 2.658 8.836 4.383 17.929 6.435 26.928l-1.865 0.21zM401.501-46.211l-60.408 34.272-1.306-1.469c8.277-7.344 15.574-16.553 25.086-21.566 10.608-5.572 23.245-7.321 36.627-11.238zM20.354 459.273v-42.223l1.842-0.117c2.331 9.932 4.663 19.911 7.251 29.773 2.355 8.743 1.819 9.909-9.093 12.567zM5.526 509.236l3.124 26.206c-8.65-8.65-9.909-17.043-3.124-26.206zM1059.345 374.314l-4.080-25.156c8.253 6.412 9.955 16.017 4.103 25.156zM106.757 558.826l11.447 10.538c-9.466 1.609-10.958 0.233-11.447-10.538z" />
<glyph unicode="&#xe902;" glyph-name="Recurso-3k" horiz-adv-x="1048" d="M577.324-54.472c-16.226 1.061-33.336 2.211-50.468 3.227-0.3 0.012-0.652 0.018-1.005 0.018-3.061 0-6.007-0.492-8.764-1.401-22.196-6.863-44.965-11.483-68.486-9.98-25.307 1.935-48.531 9.257-69.052 20.813-5.030 2.895-10.094 6.487-14.763 10.525-15.729 13.007-35.116 19.197-53.177 28.061-19.896 9.727-39.658 19.896-58.449 31.369-18.861 11.881-35.030 23.591-50.412 36.224-12.303 9.889-23.997 22.247-36.31 33.852-6.787 6.411-14.015 12.468-20.139 19.475-22.504 25.732-43.195 52.789-60.084 82.412-9.477 15.914-19.099 34.908-27.499 54.55-12.625 30.496-22.21 62.538-28.442 95.763-7.105 37.965-11.527 73.114-10.045 108.572 0.663 14.678 0.442 27.5-10.633 38.531-3.051 3.029-4.598 7.914-5.969 12.225-3.36 10.523-4.266 21.377 3.006 30.506 6.071 8.077 12.847 15.112 20.384 21.248 5.735 3.841 9.759 9.376 11.409 15.86 8.853 36.913 21.718 69.24 38.479 99.084 11.499 20.628 25.912 42.292 40.546 63.47 22.438 32.607 50.844 59.687 80.732 85.44 18.951 16.388 39.894 31.739 62.026 45.343 21.76 13.005 44.961 24.67 69.034 34.658 25.929 11.305 51.99 19.491 79.134 24.61 22.915 3.952 43.451 8.638 64.275 11.114 24.56 2.918 49.297 4.974 74.166 2.697 0.167-0.003 0.365-0.005 0.563-0.005 4.36 0 8.513 0.888 12.288 2.492 23.47 8.19 47.566 13.717 72.568 12.412 27.234-1.302 52.169-10.138 73.056-24.451 6.845-4.182 12.989-8.418 18.904-12.936 7.843-6.17 15.285-13.184 22.042-20.818 8.731-10.589 20.337-16.359 31.103-23.499 16.978-11.274 34.707-21.465 51.065-33.579 17.948-13.116 33.745-26.353 48.623-40.544 15.909-15.501 30.943-32.028 44.942-49.424 27.432-33.891 50.191-71.432 67.478-111.87 4.796-11.396 8.625-22.002 11.869-32.861 4.557-15.785 12.781-26.971 19.788-38.953 12.91-22.106 21.288-45.45 21.708-71.513s-3.029-51.065-13.639-75.006c-2.211-4.753-0.508-9.019 2.476-13.264 4.75-6.275 9.004-13.393 12.446-20.958 6.145-15.517 0.951-28.36-9.417-39.502-2.294-2.931-4.939-5.443-7.907-7.526-11.17-6.224-14.022-16.857-16.918-27.865-8.117-29.86-17.681-55.446-29.264-79.888-13.689-29.736-33.341-59.336-54.563-87.986-8.458-11.524-17.21-21.693-26.678-31.144-22.442-22.11-45.388-43.619-68.533-64.885-15.165-13.905-30.197-28.274-46.998-40.034-28.25-20.115-60.89-36.649-95.888-47.929-18.937-6.165-38.405-10.638-58.445-13.3-18.117-2.215-34.696-2.392-52.16-3.431zM813.351 486.288c-0.774 3.67 1.967 7.936-4.068 9.66-16.469 4.686-32.717 10.169-49.297 14.369-27.765 7.008-55.663 13.507-83.605 19.697-16.535 3.67-33.159 6.455-49.938 9.395-15.187 2.675-30.44 4.952-45.649 7.472-22.106 3.625-43.991 7.56-66.075 10.898-15.474 2.343-30.949 4.001-46.423 5.792-17.884 2.078-35.768 4.178-53.696 5.88-14.48 1.371-29.025 2.211-43.527 3.117-17.685 1.194-35.525 2.211-53.298 3.471-4.686 0.309-7.008-1.702-8.246-6.322-5.239-19.741-11.429-39.283-16.093-59.156-5.062-21.553-8.842-43.394-13.264-65.103-0.862-4.289 0.575-6.875 4.775-8.621 21.443-8.842 29.379-26.638 30.418-48.169 0.265-5.527 1.967-7.030 6.632-8.047 22.659-4.974 45.185-10.5 67.91-15.209q33.159-6.853 66.584-12.424c23.123-3.824 46.423-6.787 69.546-10.235 14.767-2.211 29.423-5.217 44.212-6.809q43.704-4.731 87.54-8.246c24.869-2.034 49.805-3.449 74.741-4.93 11.495-0.685 23.012-0.774 34.508-1.326 8.842-0.42 10.324 0.199 12.667 8.511 4.664 16.513 9.285 33.159 13.264 49.739 3.692 15.474 6.764 30.949 9.705 46.423 3.758 20.028 7.14 40.123 10.677 60.173zM815.208 515.026c0.337 1.27 0.662 2.895 0.899 4.548 1.488 22.355 4.119 44.461 4.008 66.567-0.133 29.733-2.41 59.465-3.625 89.22-0.177 4.311-2.211 6.146-6.123 7.030-16.513 3.67-32.894 8.025-49.518 11.053-17.287 3.183-34.773 5.328-52.215 7.649-8.29 1.105-16.535 1.348-18.481-9.881 0-0.575-0.707-1.083-1.105-1.592-21.222-27.389-67.291-19.21-75.736 8.179-1.901 6.168-5.77 7.826-11.783 7.428-22.968-1.525-46.025-2.211-68.927-4.421-16.845-1.525-33.579-4.421-50.291-7.207-13.021-2.211-25.908-5.151-38.863-7.737-10.655-2.211-21.465-3.67-31.921-6.477-21.355-5.725-42.576-11.959-63.71-18.437-3.407-1.141-6.144-3.505-7.746-6.558-7.397-18.201-14.117-36.571-21.103-54.853-1.525-3.979 0.309-5.173 3.869-5.239 7.605-0.133 15.253 0 22.836-0.464 20.139-1.415 40.277-2.896 60.372-4.841q39.15-3.824 78.211-8.467c18.105-2.211 36.166-4.686 54.226-7.229 29.799-4.178 59.687-8.179 89.154-14.236 17.84-3.648 35.701-7.251 53.453-11.385 27.655-6.455 55.265-13.264 82.787-20.028 11.208-2.697 22.46-5.173 33.646-7.892 5.814-1.238 11.562-2.962 17.685-4.664zM770.885 302.254c-3.648 0.309-5.924 0.597-8.201 0.663-13.684 0.464-27.367 0.663-41.051 1.348-36.144 1.768-72.265 2.896-108.165 8.842-30.153 4.908-60.77 6.897-91.099 10.788-26.262 3.36-52.502 6.986-78.587 11.517-22.438 3.891-44.61 9.196-66.893 13.927-20.382 4.421-40.719 8.953-61.168 12.976-0.429 0.059-0.924 0.093-1.428 0.093-2.858 0-5.462-1.084-7.424-2.864-8.632-10.096-20.030-17.609-33.020-21.381-3.525-0.637-5.812-3.252-5.812-6.402 0-0.264 0.016-0.524 0.047-0.779 0.527-29.105 0.749-58.241 1.611-87.355 0.637-11.044 1.889-21.251 3.749-31.245 0.224-0.962 1.76-3.007 3.858-4.147 9.968-3.005 19.938-5.526 30.129-7.847 6.632-1.503 13.264-2.498 19.896-3.449 12.247-1.724 24.471-3.603 36.785-4.731 15.342-1.415 30.75-2.387 46.158-3.051q33.513-1.459 67.070-1.99c2.817 0.483 5.125 2.301 6.278 4.767 4.554 15.327 14.523 25.165 28.76 31.885 25.135 11.959 61.322 0.332 70.74-22.305 2.211-5.062 5.637-6.123 10.456-5.062q19.896 4.311 39.946 8.577c15.054 3.183 30.219 5.902 45.163 9.572 19.409 4.753 38.686 10.058 57.918 15.474 5.858 1.457 10.438 5.825 12.171 11.442 3.237 9.78 7.504 19.109 11.085 28.659 3.537 10.279 7.030 20.713 11.009 32.142zM276.548 186.418c3.692-16.602 6.433-31.767 10.545-46.423 4.421-16.292 9.749-32.474 15.762-48.28 3.891-10.213 6.632-21.576 15.762-28.848 10.191-8.091 20.537-16.093 31.369-23.278 12.313-8.157 25.444-15.032 37.846-23.057 22.504-14.568 47.882-22.681 72.641-31.767 16.602-6.101 34.419-8.842 51.773-12.822 4.554-1.039 9.881-2.211 14.037-0.73 9.033 3.166 16.806 6.898 24.083 11.361 23.257 13.914 43.838 29.93 62.25 48.135 4.966 4.9 11.465 9.078 9.321 16.616 3.802 1.393 7.251 1.746 9.351 3.603 5.693 4.78 10.763 9.934 15.31 15.531 12.146 15.926 24.481 31.533 34.96 48.201 14.281 22.548 27.191 45.981 40.432 69.192 4.001 7.030 7.14 14.524 11.053 22.46-12.379-3.404-23.278-6.919-34.419-9.373-27.964-6.168-56.039-11.849-84.003-17.685-7.162-1.525-14.347-3.117-21.332-5.239-1.702-0.508-3.051-3.183-3.913-5.151-3.471-7.892-5.328-16.911-10.279-23.698-17.11-23.455-52.193-27.964-78.433-9.727-9.041 6.278-13.264 15.651-17.066 25.533-1.085 2.542-3.252 4.441-5.907 5.137-24.577 1.141-49.115 2.003-73.653 2.49-35.082 0.685-69.457 6.256-103.567 14.037-7.273 1.437-14.59 2.233-23.919 3.78zM353.698 685.243c2.31 0.19 4.396 0.495 6.437 0.921 7.954 2.462 16.111 5.623 24.534 7.524 23.72 5.35 47.462 10.721 71.381 15.098 27.058 4.952 54.226 9.638 81.527 12.954 16.106 1.873 34.767 2.942 53.678 2.942 1.708 0 3.415-0.009 5.119-0.026 9.489 0.002 15.679 1.859 19.636 11.696 4.020 9.324 11.812 16.371 21.401 19.302 8.62 2.65 18.258 1.191 27.365 1.301 2.785 0 6.367 0.309 8.246-1.194 9.55-7.693 18.613-15.916 22.416-28.318 0.728-2.181 2.325-3.901 4.37-4.778 7.346-1.81 14.796-3.092 22.157-4.242 6.013-0.928 12.136-1.105 18.105-2.211 22.106-3.957 43.947-8.157 65.92-12.225 1.813-0.332 3.67-0.376 6.742-0.685-3.603 15.762-7.759 30.352-10.102 45.229-2.432 15.474-11.363 26.395-22.106 36.409-3.979 3.692-7.98 7.383-12.048 11.053-13.264 11.783-25.953 24.538-40.255 35.016-22.106 16.27-44.92 31.921-69.988 43.903s-50.314 22.615-77.371 28.915c-7.276 1.309-13.619 3.017-19.738 5.197-12.139 5.060-23.457 5.679-36.168-3.119-20.844-14.002-39.034-29.131-55.551-45.912-14.298-14.998-27.992-30.949-40.833-47.591-25.685-33.364-46.133-67.938-64.504-103.794-3.736-7.251-6.632-14.767-10.368-23.366zM502.649 916.451c-22.526 2.056-44.853 2.852-66.937-0.84-15.703-2.579-29.121-5.693-42.213-9.568-14.843-4.447-32.307-9.443-48.709-16.672-24.317-10.655-47.639-23.366-68.109-40.454-15.32-12.799-30.949-25.4-44.721-39.791-19.386-20.537-36.344-43.703-50.205-68.818-9.018-16.578-17.838-31.124-24.89-46.487-5.456-11.705-10.861-26.006-15.282-40.732-5.873-19.794-9.875-37.59-14.296-55.252-0.422-2.303-0.708-5.007-0.794-7.762 8.442 0.931 16.047 2.987 23.475 2.479 12.070-0.818 20.537 5.549 29.423 11.783 5.858 4.090 11.628 8.4 17.818 11.937 13.927 8.002 27.721 16.381 42.223 23.167 22.99 10.744 46.18 21.266 69.988 29.932 12.158 4.421 19.299 11.164 22.615 23.035 0.536 1.598 1.164 2.972 1.915 4.265 7.303 14.172 14.112 28.74 22.158 42.622 12.844 22.106 25.864 44.212 39.99 65.567 10.504 15.399 21.014 28.795 32.326 41.459 12.195 14.005 25.437 27.843 39.253 41.019 10.987 10.39 23.278 19.453 34.972 29.114zM571.996-26.552c0.111 0 0.287-0.376 0.42-0.376 29.534 3.095 58.802 6.986 87.363 16.16 25.223 8.091 50.535 15.474 74.652 26.859 28.378 13.8 52.36 27.871 75.153 43.548 2.57 1.407 6.469 4.399 9.971 7.797 11.944 13.249 24.434 25.982 34.868 40.307 10.789 14.386 21.061 30.657 30.003 47.734 10.814 20.73 21.020 43.734 29.827 67.418 8.566 24.205 12.612 45.295 17.763 65.942 1.415 5.703 1.791 11.694 2.852 19.078-12.379-8.975-23.079-17.508-34.53-24.825-15.187-9.727-30.44-19.586-46.622-27.434-25.732-12.49-51.839-24.449-78.609-34.441-13.463-5.040-23.875-10.523-26.881-25.356-0.238-0.658-0.544-1.228-0.92-1.744-11.902-21.91-23.375-44.193-35.931-65.68-9.982-16.946-19.472-31.145-29.658-44.794-9.735-13.212-21.186-27.183-33.101-40.712-15.607-17.685-31.7-35.060-50.844-49.12-8.82-6.477-17.199-13.551-25.776-20.36zM117.87 497.319h-1.172c0.84-15.828 1.304-31.7 2.807-47.462 0.265-2.852 4.289-6.389 7.383-7.715 11.053-4.686 22.283-8.577 33.491-12.689 14.634-5.372 29.357-10.523 43.925-16.049 6.101-2.211 9.881-0.951 12.313 5.195 1.224 2.671 2.804 4.959 4.714 6.925 8.041 8.969 18.696 12.993 30.059 15.888 2.211 0.575 5.394 2.653 5.792 4.421 3.117 15.098 5.283 30.374 8.467 45.45 3.294 15.474 7.273 30.794 11.252 46.135 2.83 10.92 6.079 21.73 9.174 32.584 0.995 3.515 0.752 5.902-3.869 6.035-9.329 0.265-18.658 1.238-27.986 1.15-19.343-0.155-38.686-0.73-58.029-1.282-7.162-0.199-14.325-0.663-21.443-1.371-2.715-0.186-5.184-1.102-7.253-2.551-15.052-11.973-30.107-24.043-44.829-36.533-2.553-2.444-4.242-5.773-4.572-9.493-0.623-9.519-0.225-19.135-0.225-28.64zM796.196 322.15c2.135-0.356 4.673-0.61 7.252-0.704 11.605 0.328 23.122 0.572 34.617 1.257 26.859 1.57 53.74 3.051 80.555 5.151 14.966 1.172 22.106 9.417 21.907 24.317-0.575 29.291 1.967 58.625-2.211 87.916-1.017 7.339-3.006 11.429-9.771 13.927q-45.406 16.779-90.724 33.977c-4.554 1.724-7.030 0.663-7.781-4.222-1.813-11.76-3.846-23.499-5.438-35.37-4.988-36.715-12.085-69.201-21.483-100.695-1.684-5.016-4.094-14.876-6.923-25.553zM123.33 421.229c-0.003-0.199-0.005-0.433-0.005-0.668 0-2.322 0.171-4.605 0.5-6.835 4.103-20.372 7.729-41.13 12.769-61.644 4.853-19.281 9.955-35.165 15.911-50.625 5.355-14.080 12.893-30.725 20.343-47.349 1.879-4.178 4.554-9.329 8.268-11.053 16.403-7.892 33.159-14.877 50.092-21.841 5.482-2.211 11.407-3.493 18.37-5.571 0 3.846 0.111 6.367 0 8.842-1.216 21.664-2.763 43.306-3.603 64.992-0.553 13.905-0.221 27.854 0 41.781 0 5.372-1.437 8.842-6.831 11.053-19.542 7.87-29.136 23.234-31.236 43.615-0.091 4.51-3.184 8.274-7.359 9.38zM57.83 326.173l-1.326-0.464c0.287-2.012 0.42-4.068 0.906-6.035 8.77-36.010 21.544-67.686 38.165-96.888 14.181-24.564 29.095-46.945 45.313-68.281 25.373-34.051 58.001-63.872 93.371-90.4 18.326-13.75 38.597-25.002 58.294-36.829 7.627-4.576 16.137-7.649 24.914-11.716-6.367 10.589-12.667 19.896-17.818 29.932-4.166 8.3-9.455 15.382-15.774 21.39-10.953 10.266-21.586 20.876-31.6 31.996-12.18 13.529-24.14 27.345-35.215 41.781-20.316 26.527-36.696 55.442-53.055 84.468-2.051 3.342-4.708 6.112-7.842 8.23-15.214 10.56-30.777 20.464-45.743 31.207-8.158 5.526-15.232 11.736-21.454 18.721-10.179 12.272-18.845 25.579-28.107 38.423-0.995 1.481-1.99 3.006-3.029 4.532zM933.475 472.074c0.079 0.894 0.124 1.934 0.124 2.984s-0.045 2.090-0.133 3.118c-3.329 16.667-5.893 33.711-10.359 50.202-10.29 39.116-22.865 72.873-38.313 104.987-3.136 6.097-7.535 15.823-12.973 24.931-2.619 3.813-6.206 6.789-10.41 8.605-6.052 2.584-13.616 5.265-21.356 7.535-3.326 0.79-5.369 1.053-7.461 1.123 0.166-2.651 0.298-4.42 0.453-6.011 1.061-11.893 2.807-23.764 3.006-35.657q0.707-39.415 0-78.83c-0.265-13.617-2.211-27.191-2.984-40.83 0.087-2.399 1.337-4.489 3.201-5.731 7.631-3.133 15.501-5.499 23.326-8.284 19.608-7.052 39.238-14.104 58.78-21.332 4.952-1.791 9.594-4.311 15.121-6.831zM973.885 625.38c-26.019 70.74-69.988 128.835-125.187 178.507-20.117 18.105-40.941 36.033-66.451 48.368 0.009-0.991 0.121-1.952 0.327-2.877 7.278-16.599 14.462-33.333 21.956-49.913 3.891-8.621 7.472-17.574 12.711-25.334 7.759-11.473 16.867-22.106 25.4-32.938 12.749-15.66 24.44-33.216 34.38-51.847 2.559-5.142 4.77-9.099 7.843-10.846 10.545-5.947 21.686-10.832 32.385-16.513 9.948-5.283 19.896-10.633 29.379-16.756s18.238-13.219 27.279-19.873zM898.725 650.691c3.493-8.135 6.632-14.944 9.417-21.907 7.848-19.52 16.27-38.84 23.101-58.692 4.88-13.656 10.005-31.461 14.202-49.622 4.5-20.034 6.644-36.879 9.872-53.481 0.654-2.665 2.24-4.884 4.384-6.343 9.277-5.661 18.805-10.812 28.2-16.183 6.632-3.736 12.998-7.56 20.338-11.849 0.738 2.178 1.299 4.726 1.578 7.358-0.34 13.819-0.738 27.503-1.512 41.143-0.367 10.404-1.327 20.232-2.855 29.871-3.401 18.895-7.469 39.1-11.89 59.217-1.082 5.593-3.468 10.504-6.831 14.579-9.612 10.906-19.723 20.87-30.494 30.086-11.795 9.627-24.528 17.298-36.974 25.212-6.278 3.913-12.91 6.742-20.559 10.589zM141.634 265.713l2.078 1.216c-0.73 2.83-1.282 5.703-2.211 8.445-5.504 15.74-11.296 31.413-16.668 47.197-10.876 31.921-17.265 64.948-22.106 98.173-1.326 8.842-4.421 14.037-12.446 17.398-7.627 3.161-14.767 7.516-22.57 11.562-11.407-38.465-11.451-75.979 7.008-111.835 15.765-29.97 38.502-54.386 66.141-71.702zM57.034 576.061c16.823 4.045 31.678 7.538 46.423 11.385 1.172 0.309 2.034 3.095 2.432 4.841 1.658 7.627 2.675 15.474 4.642 22.924 8.577 32.761 17.862 65.324 32.607 95.963 7.406 15.474 15.474 30.551 24.184 45.185 7.671 12.822 16.801 24.781 25.245 37.16 0.299 0.573 0.543 1.237 0.697 1.935-66.75-59.19-111.98-131.522-136.23-219.393zM768.586 242.899c21.752 3.471 115.902 51.109 123.794 62.383-0.568 0.134-1.235 0.229-1.918 0.264-31.242-1.237-62.456-2.762-93.691-3.514-5.77-0.133-8.246-2.012-9.881-6.831q-5.947-17.552-12.114-35.016c-1.879-5.659-3.979-11.23-6.19-17.287zM908.761 155.58c22.659 16.071 82.986 135.864 82.588 167.167-9.484-2.321-18.901-4.908-28.451-6.875-5.482-1.127-6.853-4.421-7.98-9.395-5.681-26.063-10.5-52.458-18.348-77.902s-18.989-50.225-27.81-72.994zM58.029 479.059c0.547 0.651 1.085 1.372 1.581 2.123 8.477 14.965 16.546 29.997 28.306 42.775 4.545 4.637 8.129 10.234 10.419 16.457 2.469 8.015 2.314 16.459 3.309 25.169-0.7 0.088-1.51 0.139-2.332 0.139s-1.632-0.050-2.428-0.148c-14.141-4.412-28.444-8.568-42.503-13.431-2.211-0.73-3.957-4.421-4.421-7.118-2.41-12.114-4.156-24.317-6.433-36.497-3.36-18.016-2.719-19.674 12.645-28.981 0.534-0.211 1.159-0.381 1.808-0.48zM609.223 919.192l-0.774-2.41c64.859-22.106 121.473-57.763 172.118-103.899-1.951 7.188-4.595 13.469-7.945 19.292-11.266 18.576-18.163 41.345-42.855 49.259-13.264 4.222-25.533 10.81-38.597 15.474-12.49 4.421-25.378 7.671-38.155 11.053-14.546 3.957-29.202 7.516-43.792 11.23zM195.617 213.808c19.719-39.791 46.091-74.52 76.509-106.264-1.702 8.842-4.598 17.221-6.632 25.776-4.156 17.972-7.936 36.033-11.562 54.138-0.36 3.507-2.884 6.337-6.2 7.151-9.297 3.084-18.338 6.644-27.446 10.114zM206.427 598.101c0.769-0.426 1.659-0.782 2.596-1.022 26.805-0.017 53.509-0.194 80.236 0.116 2.894 0.475 5.294 2.255 6.608 4.704 3.694 8.604 6.656 17.491 9.773 26.267 2.454 6.831 4.885 13.662 7.98 22.349-37.713-15.629-73.636-30.418-107.193-52.414zM962.081 361.455c1.434 0.833 2.669 1.801 3.755 2.914q16.362 22.11 32.544 44.57c2.211 3.073 1.415 5.637-1.813 7.582-10.898 6.632-21.752 13.264-32.673 19.896-1.208 0.506-2.609 0.865-4.072 1.012zM605.995 937.452l99.19-23.875c-31.081 17.309-62.781 30.396-99.19 23.875zM97.267 502.823l-2.211 0.597-20.979-35.922 23.189-11.34zM824.934 733.7l-1.415-0.884c1.724-10.191 3.338-20.426 5.283-30.573 0.412-1.912 1.603-3.487 3.217-4.404 6.93-2.935 14.004-5.411 21.011-8.042l1.127 1.061zM970.459 338.818l0.973-1.083c6.632 2.321 13.264 4.554 19.785 7.052 2.387 0.906 6.013 1.99 6.632 3.736 2.52 8.378 4.156 17 6.101 25.533l-1.768 0.199zM400.85-13.797l-57.277 32.496-1.238-1.393c7.848-6.963 14.767-15.695 23.786-20.448 10.058-5.283 22.040-6.941 34.729-10.655zM39.459 465.486v-40.034l1.746-0.111c2.211 9.417 4.421 18.879 6.875 28.23 2.233 8.29 1.724 9.373-8.621 11.915zM25.4 512.881l2.962 24.891c-8.268-8.268-9.395-16.226-2.962-24.914zM1024.597 384.953l-3.869-24.029c7.826 6.234 9.417 15.342 3.891 24.007zM121.385 559.879l10.854 9.992c-8.975 1.525-10.412 0.221-10.854-9.992z" />
<glyph unicode="&#xe903;" horiz-adv-x="1273" d="M445.353 544.483c-5.957 7.038-11.763 14.202-17.922 21.064s-12.995 14.126-19.857 20.787c-2.111 2.205-4.932 3.716-8.095 4.164-14.627 0.461-29.231 0.235-43.81 0.36-10.054 0-20.108 0-30.163 0.729-7.164 0.427-11.060-3.846-14.126-8.948-11.663-19.329-30.163-25.362-50.623-22.999-15.534 1.785-29.761 8.948-37.93 23.929-8.37 15.383-0.478 37.477 14.528 44.39 12.568 5.781 24.432 11.085 38.533 8.571 16.212-2.865 28.931-10.984 37.075-25.387 2.639-4.65 6.033-5.404 10.683-5.379 25.136 0 50.271 0 75.407 0 0.412 0.028 0.894 0.043 1.379 0.043 7.631 0 14.352-3.9 18.277-9.816 5.631-7.974 13.046-14.584 19.656-21.748 7.088-7.691 14.378-15.232 21.164-23.175 5.027-5.932 10.456-10.054 18.776-8.873 2.137 0.276 5.656-0.654 6.435-2.137s-0.553-4.625-1.709-6.636c-2.287-3.921-5.253-7.541-7.541-11.361s-4.524-5.027-7.943-1.357c-5.027 5.454-11.085 6.988-18.45 6.937-58.34-0.251-116.654-0.126-174.994-0.151-20.561 0-41.122-0.151-61.658 0-6.234 0-8.999-2.137-12.316-7.893-8.144-14.126-21.29-22.019-37.905-23.778-2.013-0.254-4.343-0.399-6.707-0.399-13.539 0-25.966 4.759-35.699 12.696-18.724 14.724-17.065 40.312 2.339 53.86 9.218 6.945 20.862 11.123 33.482 11.123 6.638 0 13.006-1.156 18.914-3.278 11.264-3.483 20.653-11.439 26.062-21.803 2.454-4.87 5.973-5.397 10.17-5.397q30.54 0 61.054 0h172.606zM266.664 581.181c11.236 0 19.958 5.178 21.742 11.814 0.401 1.364 0.632 2.931 0.632 4.552 0 5.85-3.005 10.998-7.556 13.985-3.829 2.41-8.408 3.817-13.316 3.817-6.391 0-12.225-2.385-16.66-6.314-2.901-2.526-4.74-6.258-4.74-10.421 0-2.102 0.469-4.094 1.308-5.878 3.634-9.442 11.979-10.774 18.59-11.553zM157.5 518.845v0.478h2.74c12.769 0.126 18.173 8.119 14.679 20.36-3.167 11.060-19.48 13.573-29.032 9.702-6.661-2.69-12.065-10.23-11.588-15.559 0.603-6.862 6.384-12.769 14.428-14.378 2.63-0.377 5.672-0.596 8.765-0.603z" />
<glyph unicode="&#xe904;" glyph-name="Recurso-1e" horiz-adv-x="1021" d="M488.461 384.105l85.94 88.981c16.644-17.284 32.994-34.675 49.878-51.692q88.928-89.248 178.308-178.042c7.122-7.042 7.148-10.963 0-18.058q-141.1-140.593-281.906-281.719c-2.667-2.667-5.921-5.148-8.722-7.575l-131.097 130.697 85.353 84.953c12.029-12.643 24.646-25.713 37.022-38.942 4.988-5.335 9.202-7.362 15.39-1.094q59.507 60.174 119.415 120.028c0.66 1.050 1.23 2.26 1.648 3.538zM217.331 664.277l295.456 295.723 128.030-128.59-86.020-84.046c-9.842 10.669-22.165 23.312-33.688 36.675-7.015 8.002-12.029 7.522-19.365 0q-55.773-56.493-112.32-112.106c-7.682-7.522-5.788-11.603 0.774-18.111q68.149-67.589 135.712-135.738c2.667-2.667 5.335-5.735 7.628-8.322l-82.686-82.686zM298.523 406.91l173.587-171.454-173.001-173.907-172.947 174.574zM555.037 665.504l171.16 171.8 173.587-174.708-171.614-171.053zM805.655 493.224l87.3 85.567 128.35-129.23-171.427-171.187-81.699 81.486 87.487 86.18zM214.477 404.296l-83.433-85.193-131.044 132.831c6.668 6.802 15.737 16.244 25.019 25.473 46.544 46.384 93.355 92.555 139.553 139.259 7.468 7.548 11.789 7.575 19.071 0 21.845-22.725 44.437-44.757 66.682-67.109 2.427-2.454 4.561-5.201 8.375-9.602l-94.876-90.688z" />
<glyph unicode="&#xe905;" glyph-name="Recurso-1rfr" horiz-adv-x="1192" d="M404.022 775.132c4.423-0.926 8.197-2.021 11.852-3.364 31.107-13.575 63.224-26.284 94.226-41.484 33.212-16.209 65.695-33.985 97.769-52.341 22.95-13.139 45.085-27.781 66.875-42.938 29.799-20.653 58.932-42.294 88.216-63.698 6.441-4.702 12.516-9.962 18.485-15.286 3.95-3.542 6.441-3.564 10.369 0.601 16.037 16.638 32.783 32.59 48.97 49.121 14.019 14.298 27.652 28.961 41.37 43.539 12.667 13.461 25.14 27.072 37.85 40.49 5.496 5.797 7.879 5.56 12.409-1.202 11.98-17.948 23.938-35.896 35.595-54.059 2.649-4.429 5.155-9.593 7.216-14.977 1.216-2.781 1.789-5.226 1.789-7.804 0-3.314-0.947-6.406-2.584-9.022-5.948-9.847-11.938-19.766-18.121-29.556-12.881-20.503-25.14-41.499-39.138-61.229-20.696-29.198-42.358-57.73-64.192-86.112-25.419-33.041-54.831-62.582-83.729-92.445-14.084-14.513-29.82-27.459-44.891-41.027-5.818-5.238-5.947-6.312 0.386-10.992 19.021-13.998 37.957-28.081 57.172-41.8 25.548-18.227 51.354-36.089 76.987-54.209 7.45-5.26 14.663-10.842 21.963-16.316 4.723-3.542 4.594-6.054-0.837-8.588-20.288-9.725-40.641-19.322-60.993-28.897-5.603-2.641-11.507-4.788-16.832-7.943-9.232-5.475-18.12-4.616-27.373-0.322-15.136 6.999-30.443 13.654-45.578 20.696-23.616 11.014-47.575 21.469-70.611 33.556-31.495 16.574-62.796 33.685-93.239 52.126-29.090 17.626-57.451 36.497-85.21 56.227-22.907 16.209-44.376 34.35-66.446 51.525-7.020 5.475-7.772 5.432-13.933-0.58-14.706-14.298-29.777-28.21-44.033-42.938-21.018-21.705-41.435-43.99-62.26-65.952-7.793-8.244-15.823-16.273-23.787-24.346-3.070-3.113-5.539-2.49-8.158 1.031-15.26 20.219-29.947 43.081-42.889 67.025-2.844 5.305-3.683 8.223-3.683 11.337 0 3.218 0.896 6.227 2.453 8.791 7.45 13.858 14.986 27.834 23.337 41.188q19.322 30.4 39.932 59.877c13.032 18.549 26.557 36.798 40.641 54.574 15.178 19.15 30.765 38.043 47.124 56.227 20.052 22.285 40.791 43.968 61.809 65.394 12.237 12.495 25.376 24.152 38.408 35.874 3.714 3.328 3.864 5.26 0 8.158-20.632 15.028-41.027 30.572-61.787 45.514-26.364 18.978-53.007 37.549-79.435 56.356-5.947 4.294-11.829 8.588-17.454 13.246-3.156 2.619-2.619 4.959 1.331 7.042 26.6 14.062 53.307 27.91 81.904 37.506 3.285 0.988 6.849 1.503 10.756 2.405zM518.752 448.462l0.215-3.006c1.336-0.691 2.474-1.404 3.549-2.197q23.544-19.508 47.16-39.152c7.836-6.441 15.629-13.032 23.487-19.472 3.521-2.877 6.441-3.113 10.391 0.408 14.427 13.182 29.241 25.977 43.947 38.88q11.293 9.897 22.671 19.687c2.147 1.911 4.294 3.585 1.138 6.441-5.26 4.788-10.241 9.897-15.672 14.449-18.077 15.028-36.368 30.056-54.466 45.085-6.741 5.625-8.308 5.346-14.835-1.073-8.373-8.244-17.175-16.080-25.934-23.852-13.783-12.173-27.759-24.131-41.65-36.196zM592.39 771.546c-6.913 1.116-18.377 1.374-28.725 4.916-29.756 10.198-56.27 25.763-69.237 56.27-13.332 31.345-8.588 64.407 16.059 90.169 20.138 20.975 44.183 33.771 73.617 36.497 23.229 2.147 45.772-0.751 65.866-12.023 21.791-12.237 41.886-27.287 50.323-52.856 9.79-29.734 5.088-56.764-14.298-81.431-11.851-15.028-28.468-23.015-44.891-31.559-14.062-7.364-29.090-8.974-48.713-9.983zM487.236 26.298c1.095 32.482 13.568 55.819 36.926 73.209 20.114 14.475 45.245 23.149 72.402 23.149 19.738 0 38.405-4.582 54.997-12.741 25.029-11.89 42.72-31.684 50.663-59.572 7.342-25.763 1.374-48.713-14.041-69.903-19.172-26.385-45.686-39.524-77.46-43.346s-61.701 3.006-86.927 22.671c-15.887 12.409-28.79 28.575-33.491 49.378-1.567 6.548-2.426 13.375-3.070 17.154zM109.083 355.008c-29.434 0.859-56.184 9.017-78.211 28.597-17.070 14.731-28.429 35.673-30.547 59.278-2.172 23.206 7.318 41.347 20.714 58.307 19.322 24.474 45.75 34.694 75.807 38.236 4.010 0.479 8.655 0.752 13.363 0.752 21.092 0 40.903-5.483 58.086-15.102 22.134-11.627 37.226-30.949 45.062-55.531 7.686-24.174 1.546-45.729-11.035-66.682-15.543-25.827-39.889-37.549-67.584-44.204-8.351-1.932-17.089-2.469-25.655-3.65zM975.609 443.631c0.301 21.705 7.364 37.206 17.347 52.234 13.332 20.073 32.203 32.203 54.338 38.644 14.406 4.165 30.164 4.423 45.364 4.852 15.994 0.472 31.323-4.036 45.621-11.293 30.056-15.221 48.949-39.245 53.672-72.629 2.147-15.415-2.040-30.808-9.511-45.085-18.334-34.908-49.679-49.872-86.455-53.415-30.271-2.92-59.576 2.533-84.63 22.521-15.737 12.559-25.763 28.682-32.203 47.231-1.453 4.755-2.693 10.487-3.479 16.362zM887.2 731.035c-8.588-6.119-16.080-11.701-23.766-17.175-23.616-16.66-47.231-33.341-71.019-49.851-17.562-12.194-12.516-11.099-28.639-0.966l-85.875 53.951c-1.696 1.073-3.435 2.147-5.024 3.306-3.65 2.727-3.285 5.797 0 8.18 3.019 2.132 6.461 4.091 10.088 5.706q36.714 16.278 73.168 32.122c6.441 2.834 13.461 4.723 19.988 7.557 11.529 5.024 21.598-0.322 31.387-4.637 25.462-11.207 50.602-23.186 75.828-34.887 1.434-1.035 2.696-2.12 3.861-3.303zM406.577 117.498c-6.076 2.297-11.099 3.907-15.865 6.076q-27.008 12.237-53.887 24.797c-7.836 3.671-15.629 7.536-23.186 11.786s-7.235 5.195 0 10.219q40.018 27.759 79.971 55.561c4.723 3.306 9.253 6.913 13.676 10.627 4.788 4.015 9.060 3.95 14.427 0.472 24.968-16.188 50.194-31.989 75.291-47.983 7.858-5.002 15.694-10.047 23.401-15.264 4.294-2.963 1.803-5.238-1.288-6.849-6.333-3.263-12.667-6.441-19.172-9.403q-34.071-15.071-68.421-29.842c-8.351-3.564-16.746-6.827-24.947-10.198zM212.842 611.732c2.761 6.78 5.497 12.371 8.552 17.758 12.337 19.362 25.369 39.242 38.486 59.186 4.53 6.934 6.441 7.299 12.259 1.224 17.175-17.841 33.985-35.874 50.86-53.908 8.588-9.253 17.025-18.764 25.763-27.91 3.671-3.821 4.079-6.934 0.365-10.863-7.514-7.922-15.028-15.801-22.177-24.088q-23.487-27.351-46.502-55.111c-6.999-8.416-7.986-8.588-14.277 0.687-8.588 12.667-18.077 24.904-25.763 38.107-9.232 15.715-17.068 32.203-25.419 48.477-0.762 1.761-1.496 3.905-2.074 6.113zM979.495 285.427c-0.457-2.788-1.204-5.285-2.227-7.634-15.249-23.797-30.771-47.67-46.143-71.651-3.242-5.045-6.054-5.539-10.133-0.751-9.081 10.734-18.249 21.276-27.91 31.452s-19.515 19.451-29.262 29.198c-6.72 6.741-13.418 13.525-19.988 20.395-4.186 4.294-4.294 8.716 0 13.397 8.158 8.588 16.166 17.175 23.938 26.042 15.415 17.562 30.615 35.295 45.943 52.942 5.195 5.99 7.579 5.925 12.001-0.687 5.689-8.588 11.4-17.046 16.66-25.763q15.908-26.643 31.259-53.672c1.894-3.556 3.867-7.93 5.581-12.431z" />
<glyph unicode="&#xe906;" glyph-name="Recurso-1l" horiz-adv-x="2103" d="M1926.526 557.487c-32.867 3.667-65.733 6.876-98.508 11.001-173.508 23.908-380.358 40.668-589.953 46.443-189.358 4.76-369.918-1.612-548.966-33.287-130.779-22.92-257.157-58.445-372.397-128.35-174.922-106.026-243.818-297.954-173.134-489.562 2.676-5.956 4.236-12.91 4.236-20.229 0-2.665-0.207-5.281-0.605-7.834-13.715 24.212-27.834 48.002-41.219 72.159-41.255 74.58-74.168 152.461-91.678 236.209-35.342 169.605 31.767 300.475 193.854 376.706 103 48.452 213.244 69.217 325.458 79.806 238.363 22.461 475.948 6.647 713.027-20.857 222.457-25.807 442.439-65.962 661.367-112.581 6.417-1.375 12.697-3.346 19.069-5.042zM1809.682 628.4c-51.065 12.056-102.084 24.478-153.286 36.030-207.055 46.71-414.936 89.295-625.429 117.623-165.021 22.324-331.096 35.159-497.813 28.466-106.301-4.263-211.685-16.777-312.348-54.365-76.597-28.558-144.897-69.080-188.261-141.78-10.818-18.336-18.336-38.092-32.087-57.391 0 9.993-0.596 20.078 0 30.025 11.001 159.658 97.271 263.575 241.389 323.853 70.409 29.52 144.897 41.668 220.715 46.573 181.844 11.735 359.149-18.886 535.309-58.491 228.462-51.386 449.498-126.883 668.334-209.118 48.452-18.336 96.491-37.542 144.76-56.382zM1555-20.224c-8.251-1.742-15.035-3.667-22.003-4.584-190.141-25.532-352.594 97.683-387.936 294.15-4.666 24.763-7.335 53.251-7.335 82.362 0 40.963 5.284 80.692 15.208 118.542 1.294 4.868 2.807 13.119 4.273 21.37 0 1.238-1.054 2.705-2.475 5.913-2.189 0.181-4.738 0.285-7.311 0.285s-5.122-0.103-7.643-0.306c-181.97-27.482-362.026-64.795-533.281-135.616-87.094-36.030-170.017-79.806-240.701-143.751-66.008-59.591-111.847-130.779-125.141-220.44-1.864-7.297-3.903-13.406-6.315-19.322-3.313 6.62-7.125 13.314-10.563 20.227-39.688 100.491-12.047 217.885 65.558 294.574 85.261 84.436 191.516 129.633 302.859 164.746 137.517 43.364 279.389 64.175 422.407 78.477 206.276 20.49 413.194 20.49 620.157 16.731 22.871-0.006 44.957-3.355 65.8-9.585-6.23-0.681-12.016-1.68-17.9-2.357-118.080-7.173-235.382-14.554-352.73-20.742-22.92-1.192-35.525-9.58-43.593-31.537-43.226-117.165-48.727-233.779 11.597-345.994 51.752-96.262 134.354-149.619 244.598-157.595 3.394-0.358 6.434-0.907 9.394-1.656 0.278 0.418 0.599-0.498 3.074-3.89zM1345.286 203.425c27.137-19.436 48.589-38.092 72.884-51.707 106.668-59.591 213.931-50.881 319.865 2.2 179.139 89.845 283.102 307.122 240.518 500.334-30.3 137.517-127.249 228.462-265.5 249.181-6.463 0.963-12.835 2.888-22.92 5.226 152.598 32.133 311.202-49.781 372.626-190.782 69.538-160.116 44.876-312.577-44.876-456.328-74.993-120.098-181.294-200.454-323.441-222.732-135.775-21.269-247.99 23.286-331.463 134.629-3.667 4.859-6.876 10.085-10.085 15.264-2.109 3.209-3.575 6.693-7.609 14.714zM1899.206 676.668c-18.886 15.723-36.671 32.592-56.245 46.343-75.176 52.302-158.007 64.175-246.935 46.114-5.306-0.941-11.415-1.479-17.65-1.479-11.715 0-22.986 1.9-33.522 5.408-35.923 11.244-71.677 26.004-110.274 40.352 172.401 97.179 397.288 19.711 464.625-136.738z" />
<glyph unicode="&#xe907;" horiz-adv-x="1273" d="M827.741 543.101c3.494-0.151 5.882-0.377 8.27-0.377q112.859 0 225.718 0c5.555 0 9.099 1.257 12.115 6.535 14.554 25.362 48.386 30.163 72.189 16.64 8.834-5.135 15.627-12.95 19.349-22.319 5.309-12.443-0.271-23.478-8.239-31.597-9.636-10.121-23.211-16.416-38.256-16.416-1.008 0-2.009 0.028-3.004 0.084-20.549 0.848-34.424 10.953-44.679 27.945-1.677 2.179-4.224 3.618-7.111 3.794-51.957 0.001-103.862-0.2-155.868-0.25-28.127 0-56.254 0.302-84.38 0.402-3.645 0-7.39-1.056-10.909-0.503-3.85 0.344-7.303 1.814-10.089 4.074-6.727 6.91-5.948 8.695 3.252 12.063 1.764 0.648 3.257 1.672 4.44 2.982 9.61 11.22 18.911 22.632 28.613 33.792 6.646 7.811 13.371 14.894 20.459 21.598 3.184 2.581 7.11 4.076 11.384 4.090 27.2 0.176 54.422-0.251 81.619 0 3.291 0.182 6.141 1.921 7.844 4.487 5.377 14.088 17.040 20.372 29.859 24.796 4.605 1.669 9.919 2.634 15.46 2.634 7.24 0 14.096-1.649 20.211-4.591 7.638-3.498 15.807-5.987 21.261-14.482 13.096-20.46 7.063-41.323-15.081-52.408-17.922-8.948-35.19-8.823-52.533 0.151-8.132 3.963-14.488 10.514-18.102 18.563-2.056 4.813-4.922 6.12-9.597 6.070-20.284-0.176-40.669-1.232-60.853 0.302-15.081 1.156-25.89-2.514-34.788-15.081-7.214-10.054-16.59-18.801-24.985-28.152-1.106-1.282-1.835-2.664-3.569-4.826zM1006.204 580.804v0.478c0.511-0.032 1.108-0.050 1.709-0.050s1.198 0.018 1.791 0.054c8.088 0.951 15.377 6.808 16.986 13.62 0.13 0.789 0.205 1.698 0.205 2.624 0 6.302-3.451 11.798-8.567 14.701-7.624 4.618-15.768 3.864-23.686 0.32-5.826-2.176-9.899-7.694-9.899-14.163 0-0.279 0.008-0.556 0.023-0.831 0.327-6.898 4.973-12.667 11.295-14.66 2.821-0.801 6.213-1.521 9.672-2.035zM1117.982 518.116c0.819-0.047 1.776-0.074 2.74-0.074s1.921 0.027 2.872 0.080c7.723 0.497 14.095 6.268 15.511 13.789 1.349 7.973-1.592 13.88-10.666 16.77-3.699 1.182-7.955 1.863-12.369 1.863-2.458 0-4.868-0.211-7.21-0.617-9.050-1.598-14.002-12.758-10.458-21.631s11.135-10.456 19.581-10.18z" />
<glyph unicode="&#xe908;" horiz-adv-x="1273" d="M520.709 601.214c0 2.514 0 4.575 0 6.586 0 59.672 0 119.369 0 179.041 0 6.108-1.458 8.772-7.968 10.833-12.222 3.479-22.168 11.493-28.106 22.061-9.597 17.829 1.161 41.833 20.289 48.972 7.536 3.124 16.288 4.938 25.463 4.938 2.106 0 4.189-0.096 6.246-0.283 16.275-1.74 30.149-8.552 37.263-24.689 1.906-4.176 3.018-9.058 3.018-14.199 0-12.911-7.009-24.186-17.429-30.227-5.974-3.382-12.735-4.891-18.793-7.882-2.341-1.303-4.018-3.558-4.516-6.228-0.31-19.485-0.009-38.915-0.009-58.345 0-14.83-0.151-29.635 0-44.465 0-20.787 0.402-41.549 0.452-62.336 0-8.446-0.201-16.891-0.628-25.312-0.276-5.58 1.357-9.753 6.586-12.367s3.77-5.379-0.377-7.541c-4.6-2.514-9.401-4.725-13.95-7.314s-7.239-1.584-7.239 3.645c0 5.806-3.494 8.446-7.918 10.884q-31.193 17.218-62.236 34.662c-5.86 2.78-9.84 8.648-9.84 15.445 0 0.394 0.013 0.784 0.040 1.172 0.525 20.659-0.003 41.396 0.148 62.133 0.040 0.273 0.063 0.588 0.063 0.909 0 3.224-2.317 5.907-5.376 6.475-9.844 3.123-19.093 7.245-26.182 15.44-11.135 12.869-10.054 35.19 2.815 46.35 18.475 16.238 39.915 19.254 61.306 9.501 28.303-12.895 32.5-43.811 8.797-62.387-5.172-3.723-11.181-6.711-17.648-8.638-4.159-0.992-6.894-4.297-6.894-8.24 0-0.35 0.022-0.695 0.063-1.033-0.004-19.264 0.172-38.568 0.624-57.771 0.114-2.932 1.493-5.52 3.602-7.25 18.567-10.923 37.369-21.404 56.12-31.986 0.642-0.256 1.389-0.45 2.166-0.548zM526.893 817.38c6.309 1.709 11.009 2.187 14.905 4.198 10.884 5.656 11.713 20.108 1.533 26.292-3.824 2.52-8.514 4.021-13.555 4.021-4.62 0-8.945-1.26-12.651-3.455-8.381-4.587-11.095-16.401-4.208-23.263 3.821-3.946 9.753-5.656 13.95-7.918zM448.972 727.923l0.628 1.483c0.194-0.002 0.423-0.003 0.652-0.003 2.658 0 5.279 0.156 7.854 0.461 5.72 1.001 11.049 4.218 12.256 10.2 0.804 4.399 0.302 11.21-2.514 13.674-4.881 4.278-11.044 7.208-17.842 8.149-8.726 0.875-15.814-3.348-19.358-12.371-2.84-7.214 0.503-12.316 5.304-16.112 3.469-2.991 8.596-3.871 13.020-5.605z" />
<glyph unicode="&#xe909;" horiz-adv-x="1273" d="M545.795 314.241c-0.553-1.634-0.578-2.514-1.005-2.865-11.286-6.083-8.823-16.765-8.848-26.543 0-28.076 0-56.153 0-84.229 0-22.396 0.553-44.792 0.654-67.162 0-8.446-0.427-16.891-0.679-25.337-0.176-5.329 1.558-8.244 7.541-8.898 14.83-1.634 31.621-18.977 33.33-33.556 1.81-15.232-8.244-32.199-23.351-38.231-20.46-8.169-40.443-7.063-58.591 5.982-8.513 6.302-13.972 16.311-13.972 27.594 0 13.018 7.266 24.339 17.963 30.128 5.937 3.206 12.095 5.569 17.776 8.611 1.652 1.004 2.895 2.541 3.503 4.367 0.293 1.423 0.451 2.994 0.451 4.601 0 0.798-0.039 1.588-0.115 2.366q0.008 87.373 0.008 174.845c0 3.067-0.402 6.158-0.679 10.255l-45.998-27.272c-0.672-0.557-1.443-1.030-2.277-1.385-14.061-3.115-13.986-13.898-13.785-24.857 0.302-15.081 0.955-30.163 0.528-45.244-0.176-6.058 2.212-8.797 7.264-9.451 12.819-1.684 20.737-10.054 27.423-19.832 7.139-10.331 5.48-21.994 0.251-32.098-6.359-12.342-16.816-21.189-31.42-22.622-12.945-1.232-25.714-1.558-38.080 4.901-11.311 5.907-22.421 20.636-22.471 33.003 0.531 14.86 9.734 27.444 22.68 32.887 2.556 1.046 4.819 2.202 7.181 3.007 10.054 3.343 9.652 3.896 9.476 14.001-0.352 20.762-0.302 41.549 0.855 62.261 0.226 3.896 5.731 8.546 9.878 11.009 20.385 12.090 41.122 23.552 61.733 35.19 4.323 2.514 8.043 5.027 7.691 10.934-0.201 3.167 1.81 5.53 5.354 3.77 6.812-2.991 13.071-6.56 19.731-10.13zM450.707 169.007c-8.094-1.031-15.835-2.514-18.651-10.255-0.645-2.035-1.016-4.375-1.016-6.802 0-3.348 0.707-6.531 1.98-9.408 4.164-9.126 23.141-10.232 32.316-2.566 7.918 6.611 8.069 18.073-0.276 23.401-4.248 2.715-9.526 3.795-14.327 5.63zM529.758 44.485c10.683 0 20.586 7.767 20.636 16.137 0 9.577-9.702 17.595-21.441 17.721-10.054 0-19.153-8.169-19.204-17.293-0.025-10.029 8.043-16.615 20.033-16.564z" />
<glyph unicode="&#xe90a;" horiz-adv-x="1273" d="M731.019 582.79c0.377 1.232 0.377 2.363 0.93 2.891 7.541 7.365 5.63 16.765 5.63 25.714 0 58.088 0 116.177 0 174.265 0 6.661-0.528 10.582-8.999 11.613-14.604 1.785-30.163 19.581-30.867 32.827-0.955 20.259 9.149 35.416 27.448 40.644 20.586 5.882 40.418 4.474 56.254-11.060 18.198-17.846 13.624-39.765-5.027-54.218-5.404-4.198-12.794-5.731-18.877-9.2-2.406-1.546-4.093-4.034-4.542-6.931-0.284-30.923-0.133-61.815-0.007-92.681 0-18.525 0-37.050 0-55.55 0-10.934 0-21.843 0-32.676 0-6.711 2.137-7.541 7.943-4.273q24.482 14.076 49.090 28.001c3.009 1.29 5.079 4.226 5.079 7.646 0 0.326-0.019 0.648-0.055 0.964-0.273 17.33 0.004 34.699 0.456 52.068 0.352 11.236-0.704 12.97-11.613 17.067-13.448 5.027-23.602 13.498-27.398 28.177-0.556 2.187-0.876 4.697-0.876 7.281 0 8.177 3.195 15.607 8.404 21.111 13.987 15.846 32.663 20.622 52.771 15.419 9.022-2.788 16.868-6.87 23.795-12.104 15.341-10.669 15.643-45.482-6.904-56.215-4.253-2.148-9.317-4.188-14.562-5.815-4.266-0.854-6.914-3.924-6.914-7.612 0-0.335 0.022-0.665 0.064-0.989 0.122-20.297-0.356-40.631 0.172-60.966 0.226-8.647-3.569-13.749-10.456-17.595-21.164-11.688-42.429-23.25-63.467-35.19-2.613-1.631-4.596-4.061-5.626-6.944-1.613-5.121-4.478-4.769-7.947-3.136-4.449 2.363-8.823 4.826-13.9 7.465zM745.045 852.897c-6.426-2.306-11.692-4.603-16.786-7.192-4.73-2.762-6.54-7.839-4.353-14.299 2.991-8.797 10.658-13.347 22.32-12.769s17.922 6.636 17.846 17.092c-0.101 9.577-7.239 15.685-19.028 17.168zM825.001 761.429c-4.091-0.6-7.666-1.399-11.141-2.43-7.862-2.874-10.853-7.7-10.325-16.498 0.402-6.41 5.027-11.060 12.945-12.819 2.063-0.49 4.59-0.906 7.165-1.161 8.419-0.799 20.359 6.616 20.233 12.699-0.352 12.668-4.7 19.631-18.877 20.209z" />
<glyph unicode="&#xe90b;" horiz-adv-x="1273" d="M753.189 295.087c-0.176-3.368-0.427-5.806-0.427-8.244q0-52.081 0-104.137c0-24.005 0-47.984 0-71.988 0-6.234 0.955-9.853 8.32-12.342 16.288-5.48 29.534-15.986 31.621-34.21 0.804-7.139-2.891-15.584-6.56-22.32-7.541-13.85-21.516-17.796-35.969-19.028-16.69-1.433-32.224 1.433-44.138 15.081-13.598 15.634-12.392 37.502 4.273 50.045 6.711 5.027 15.282 7.541 22.873 11.537 1.833 0.99 3.274 2.505 4.148 4.341 0.302 1.2 0.461 2.511 0.461 3.859 0 0.814-0.058 1.614-0.17 2.397q0.011 92.208 0.011 184.506c0 5.027 0 9.903-4.675 13.573-3.293 2.664-1.709 5.354 1.282 7.088s5.756 2.74 8.622 4.147c4.826 2.363 9.451 5.027 10.456-3.846 0.201-1.835 3.067-3.77 5.027-5.027 18.198-10.482 36.472-20.787 54.72-31.118 2.388-1.332 5.027-2.388 7.34-3.67 7.264-3.846 12.241-8.722 11.99-18.073-0.503-19.656 0.151-39.337-0.302-59.018-0.151-6.963 2.74-10.054 8.973-11.361 22.245-5.027 35.441-25.739 28.68-47.054-2.162-6.812-8.169-13.246-13.975-17.947-18.877-15.257-53.086-12.568-69.902 4.7-14.88 15.232-14.001 37.201 2.74 50.271 5.528 3.998 11.874 7.393 18.658 9.879 4.944 1.96 7.609 2.99 7.458 8.997-0.478 19.103 0.352 38.256 0 57.385-0.15 4.102-2.065 7.728-5.004 10.161-17.342 10.425-35.213 20.127-52.808 30.005-1.023 0.494-2.257 0.972-3.53 1.358zM744.014 44.611c0.717-0.045 1.556-0.070 2.4-0.070s1.683 0.026 2.515 0.076c7.5 0.579 13.674 6.096 15.248 13.33 1.403 7.402-1.764 13.434-9.028 17.707-8.094 4.7-15.886 2.514-23.577-1.005s-10.632-11.99-6.988-20.108c3.997-8.571 11.889-9.024 19.43-9.929zM823.141 167.977c-11.412 0-19.832-7.541-19.706-17.268 0.126-8.999 10.054-15.76 22.899-15.534 10.356 0.201 16.891 6.636 16.866 16.564 0.050 10.306-7.365 16.313-19.958 16.238z" />
<glyph unicode="&#xe90c;" horiz-adv-x="1273" d="M447.615 354.232c-4.072 0.176-6.485 0.377-8.898 0.377h-168.107c-19.656 0-39.312-0.126-58.943 0-0.311 0.033-0.672 0.052-1.037 0.052-4.363 0-8.096-2.698-9.621-6.517-8.118-16.257-26.945-25.205-45.445-24.879-11.224 0.185-21.667 3.366-30.612 8.775-10.090 5.624-17.209 16.135-18.168 28.377-0.028 0.548-0.040 1.044-0.040 1.544 0 10.147 4.776 19.179 12.202 24.97 22.818 19.030 59.315 19.985 78.469-6.935 7.239-10.054 13.498-13.674 24.733-12.895s22.346 0.679 33.531 0.679c7.289 0 14.554-0.829 21.843-0.779 22.622 0.151 45.244 0.804 67.74 0.804 24.18 0 48.361-0.578 72.541-0.855 9.325 0 18.701 0.503 28.001-0.176 0.971-0.137 2.092-0.215 3.232-0.215 7.24 0 13.743 3.152 18.213 8.159 2.937 3.292 5.35 3.090 7.738-0.328 2.991-4.298 6.108-8.546 8.848-13.020 2.137-3.519 1.232-6.234-3.217-6.837-2.929-0.077-5.729-0.357-8.465-0.829-2.796-0.856-6.566-1.76-8.552-4.023-11.738-13.272-22.924-27.021-34.511-40.418-4.211-5.177-8.784-9.758-13.78-13.841-3.494-2.456-7.608-3.86-12.048-3.905-26.755-0.327-53.525-0.176-80.269-0.151-4.223 0-6.963-0.452-9.602-5.228-11.311-20.661-31.847-31.545-53.463-26.518-15.861 3.695-32.676 8.521-38.131 27.649-5.027 17.595-1.031 30.389 17.268 40.921 16.866 9.727 33.355 10.532 51.176 3.77 11.537-4.374 18.073-13.548 24.432-22.974 1.876-3.212 5.307-5.335 9.233-5.335 0.289 0 0.575 0.011 0.858 0.034 21.403 0.45 42.97 2.31 64.234 0.5 13.045-1.106 18.927 5.027 25.814 13.246 8.571 10.331 18.022 19.958 27.046 29.911 1.684 1.86 3.167 3.871 5.756 6.887zM269.328 281.615c15.081-1.785 23.502 15.081 17.268 24.708-4.348 6.636-16.037 10.632-26.015 7.742-8.823-2.514-13.071-7.792-12.97-15.986s3.946-12.769 12.97-15.081c2.388-0.547 5.368-1.034 8.399-1.353zM156.218 378.311c-3.482-0.236-6.705-0.728-9.833-1.463-10.954-3.413-15.151-16.333-7.862-24.829s25.839-9.727 33.305-0.905c2.84 3.368 5.429 9.451 4.323 13.196-3.318 11.185-8.069 13.649-19.983 14.026z" />
<glyph unicode="&#xe90d;" horiz-adv-x="1273" d="M797.805 356.745c3.695 10.381 7.817 12.316 18.726 11.588 14.101-0.955 28.278-0.855 42.429-1.131 6.359-0.126 12.719-0.201 19.078 0 23.703 0.276 47.381 0.855 71.084 0.855s47.431-0.628 71.134-0.855c13.9-0.126 27.8-0.276 41.7 0.201 3.564 0.149 6.707 1.832 8.806 4.402 9.946 17.843 24.122 27.671 45.060 28.55 19.38 0.829 38.835-8.571 47.356-24.985s0.327-35.567-14.277-43.082c-3.809-2.256-8.278-4.435-12.925-6.261-21.285-6.961-39.759-3.040-55.645 11.966-1.434 1.124-2.583 2.546-3.363 4.178-3.625 11.306-11.618 12.864-22.376 12.638-42.529-0.578-85.084-0.251-127.614-0.251h-100.945c5.706-6.912 10.205-12.744 15.081-18.198 8.722-9.652 17.595-19.204 26.644-28.504 1.935-2.039 4.551-3.415 7.482-3.765 9.409-0.207 18.759 0.497 28.11 0.572 5.027 0 10.054-0.754 15.081-0.779 12.090 0 24.155 0 36.246 0.327 2.147 0.205 3.972 1.422 5.011 3.162 7.205 25.97 44.833 34.893 65.545 25.819 8.599-3.331 15.952-8.124 22.107-14.138 7.528-7.931 8.081-28.919 2.35-37.264-13.071-19.003-31.042-24.834-53.036-21.566-16.501 1.984-30.16 12.467-36.607 26.88-1.172 2.453-5.495 4.112-8.336 4.137-24.231 0.302-48.512 1.181-72.642-0.201-13.975-0.804-22.32 4.751-30.414 14.88-12.191 15.232-25.337 29.735-38.608 44.088-2.991 3.293-8.219 4.575-12.241 6.736zM1139.925 363.205c-2.514 3.67-4.298 8.27-7.541 10.808-8.722 6.611-18.651 5.429-27.649 0.679-3.86-2.419-6.619-6.289-7.523-10.828-1.45-11.090 5.588-17.851 18.482-18.354s23.552 4.876 24.256 17.695zM1025.835 298.104c0 9.074-8.797 17.344-18.977 17.595-10.808 0.327-21.742-8.395-21.843-17.369 0-9.878 8.898-17.394 21.214-17.595 10.708-0.251 19.53 7.566 19.606 17.369z" />
<glyph unicode="&#xe90e;" horiz-adv-x="1273" d="M271.666 441.125c-55.298 0-110.597 0-166.046 0-6.133 0-9.828-1.357-12.568-7.541-7.289-15.458-21.164-21.541-37.352-24.055-21.114-3.117-37.226 5.304-50.497 20.988-7.39 8.747-6.837 27.649 1.232 36.874 9.851 11.701 24.236 19.311 40.413 20.103 16.695 0.784 40.599-8.993 47.411-26.89 1.031-3.429 4.16-5.885 7.862-5.885 0.33 0 0.655 0.019 0.974 0.057q77.153 0.248 154.344 0.273 92.625 0 185.25-0.226c4.474 0 8.018-1.357 8.018-6.284 0-4.499-3.016-6.988-7.541-7.314-2.514-0.176-5.027-0.151-7.541-0.151zM26.694 447.585c2.212-3.921 3.62-8.772 6.812-11.613 9.225-8.119 26.443-5.857 33.858 3.72 1.484 2.309 2.365 5.128 2.365 8.152 0 3.37-1.095 6.485-2.948 9.008-6.581 8.026-15.052 7.725-24.352 6.367-10.004-1.458-13.699-4.776-15.735-15.634z" />
<glyph unicode="&#xe90f;" horiz-adv-x="1273" d="M645.659 152.92c0-43.409 0-86.818 0-130.253 0-6.787 1.659-9.828 8.999-11.537 15.936-3.72 32.123-18.098 31.017-38.256-0.779-14.076-13.724-28.931-28.956-33.908-5.527-1.864-11.893-2.94-18.51-2.94-10.013 0-19.451 2.463-27.74 6.817-13.246 6.328-21.389 17.614-20.887 32.997 0.478 14.956 8.923 25.488 22.094 32.174 2.623 1.509 5.707 2.546 8.994 2.906 7.646 0.386 8.626 4.634 8.626 10.994q-0.201 129.624 0 259.224c0 2.514 0 5.027 0 7.541 0.151 4.751 2.514 6.988 7.39 6.963s8.797-1.257 8.923-7.013c0.176-8.898 0-17.796 0.126-26.694q-0.075-54.494-0.075-109.013zM635.931-42.082c6.69 2.145 12.23 4.368 17.583 6.922 3.108 1.569 5.782 5.558 5.782 10.172 0 3.839-1.851 7.245-4.708 9.376-4.512 3.405-9.864 5.895-15.682 7.115-10.012 1.906-21.574-6.766-22.228-15.187s8.521-16.841 19.254-18.399z" />
<glyph unicode="&#xe910;" horiz-adv-x="1273" d="M629.119 742.401c0 43.686-0.151 87.371 0.151 131.082 0 6.761-2.036 10.28-8.647 11.311-11.361 1.81-19.254 8.999-26.216 17.394-8.797 10.607-6.837 32.048 4.374 42.731 15.609 15.081 34.436 17.972 54.645 12.266 12.844-3.62 22.823-10.607 29.007-23.829 6.56-14.051-0.955-33.078-14.227-41.725-4.453-2.903-9.593-5.302-15.064-6.931-5.446-1.565-7.96-3.903-7.734-9.131s0.226-10.054 0.226-15.081q0-122.486 0-244.997c0.002-0.213 0.004-0.464 0.004-0.715 0-2.643-0.147-5.253-0.435-7.819-0.6-4.938-3.616-7.225-8.945-6.723s-7.088 3.418-7.113 8.219q0 24.708 0 49.417-0.025 42.328-0.025 84.531zM637.892 937.705c-5.153-1.282-9.401-1.609-12.92-3.368-11.336-5.681-12.568-16.112-3.092-24.206 7.691-6.51 15.383-9.149 29.333-0.478 8.27 5.027 9.401 17.369 0.98 22.346-3.989 2.044-8.725 3.98-13.635 5.525z" />
<glyph unicode="&#xe911;" horiz-adv-x="1273" d="M980.138 454.774h126.935c20.787 0 41.549 0 62.336 0 4.474 0 7.742 0.779 9.727 5.555 8.647 20.888 38.734 31.973 58.968 25.638 10.193-3.017 18.95-8.223 26.085-15.1 12.775-12.348 11.040-34.241-0.019-45.226-9.633-10.099-23.193-16.378-38.221-16.378-10.34 0-19.986 2.973-28.129 8.111-6.652 4.339-12.326 10.053-16.615 16.741-3.376 5.099-6.192 7.186-11.922 7.161-47.557-0.176-95.138 0-142.72 0h-179.116c-9.627 0-14.78 2.388-14.051 7.239 1.232 8.043 8.169 6.46 13.649 6.485q66.559-0.050 133.093-0.226zM1203.418 448.214c1.207-3.067 1.759-6.661 3.745-9.074 8.345-10.054 26.543-10.255 35.491-0.628 2.659 2.533 4.313 6.1 4.313 10.054s-1.654 7.522-4.308 10.049c-7.546 7.973-22.628 9.532-31.551 3.147-4.592-2.789-7.624-7.747-7.666-13.416z" />
<glyph unicode="&#xe912;" horiz-adv-x="1273" d="M580.432 464.828c-3.821 4.399-11.21 7.691-3.72 14.403 5.505 5.027 10.733 3.921 17.871-3.645 7.943 5.354 7.767 5.48 4.198 13.95-0.284 0.804-0.448 1.731-0.448 2.696 0 1.742 0.534 3.359 1.446 4.697 2.023 2.155 4.89 3.545 8.083 3.641 8.639-0.729 10.901-6.912 5.597-13.925-0.528-0.704-0.93-1.508-1.759-2.84 1.785-1.508 3.268-3.67 5.178-4.147 0.444-0.081 0.956-0.127 1.478-0.127 1.824 0 3.516 0.565 4.91 1.529 0.374 0.707 0.612 1.573 0.612 2.495s-0.237 1.788-0.654 2.541c-4.234 4.497-3.732 8.745 0.466 12.541 4.7 4.147 9.929 3.494 14.579-1.382 0.646-0.645 1.146-1.437 1.445-2.32 6.523 2.044 11.173 4.557 15.948 4.834 6.435 0.377 10.205-5.228 6.937-10.632-3.871-6.435-0.98-10.054 2.363-13.473 4.65 2.237 8.722 5.027 13.171 5.957 2.137 0.452 5.706-2.011 7.541-4.147 5.027-6.083-2.514-8.37-4.675-12.744 3.62-4.147 6.963-8.094 13.297-3.62 1.939 1.141 4.272 1.816 6.762 1.816 0.141 0 0.282-0.002 0.422-0.006 5.484 0 8.676-3.518 8.727-9.174 0-6.284-4.072-7.691-9.074-7.541-3.167 0-6.334 1.081-9.501 1.181-3.569 0-7.164-0.327-11.336-0.578 2.363-6.007 11.688-8.244 5.027-15.081-4.751-5.027-10.833-3.896-18.852 3.041l-7.34-7.742h1.961c0.452-4.725 2.514-10.054 0.905-13.95-2.137-5.027-8.647-3.795-20.963 2.514l-5.781-8.622 1.734-1.961c2.941-3.343 4.876-6.912 1.081-10.808-1.69-2.007-4.203-3.273-7.013-3.273-2.534 0-4.828 1.030-6.485 2.695-3.67 3.595-4.223 7.239-0.151 11.261 0.762 1.2 1.215 2.661 1.215 4.229 0 0.406-0.030 0.805-0.089 1.194-2.976 1.485-6.458 2.517-10.143 2.839-3.751 0.008-7.396-2.28-11.066-2.355-5.027 0-8.722 6.007-5.379 9.652 6.711 7.314 0 10.054-3.368 14.176-9.677-7.314-15.986-7.842-20.259-1.634-5.404 7.867 3.795 8.32 6.435 12.090-12.367 6.284-12.744 10.532-1.332 19.757zM640.305 419.081l3.695-0.276 3.016 9.853-8.747 0.704z" />
<glyph unicode="&#xe913;" horiz-adv-x="1273" d="M550.47 456.282c3.242 2.212 6.234 5.555 9.803 6.309 4.826 1.031 9.727-4.223 9.35-8.722-0.478-5.656-4.524-7.717-9.376-8.169-4.223-0.402-8.772 4.65-9.778 10.582z" />
<glyph unicode="&#xe914;" horiz-adv-x="1273" d="M630.602 500.018c-3.971 4.65-7.541 7.264-8.823 10.733s5.278 7.943 10.054 7.893c0.211 0.022 0.456 0.035 0.704 0.035 3.929 0 7.113-3.185 7.113-7.113 0-0.421-0.037-0.833-0.107-1.234-0.597-3.124-4.87-5.739-8.942-10.313z" />
<glyph unicode="&#xe915;" horiz-adv-x="1273" d="M701.284 426.119c-4.826 4.625-10.482 7.541-10.959 11.085-0.905 6.887 6.963 4.776 10.733 5.857 2.011 0.578 7.314-4.022 7.893-6.937 0.553-2.287-3.946-5.58-7.666-10.004z" />
<glyph unicode="&#xe916;" horiz-adv-x="1273" d="M698.77 467.342c-2.287 0.287-4.354 1.026-6.178 2.126-1.292 1.571-2.144 3.651-2.216 5.928 3.429 2.449 7.476 4.274 11.847 5.229 2.103 0.241 5.873-3.856 6.325-6.445 1.156-5.781-3.368-6.837-9.778-6.837z" />
<glyph unicode="&#xe917;" horiz-adv-x="1273" d="M732.678 449.948c-5.027-1.734-10.507-6.359-15.081 0.176-1.433 2.036-1.584 7.139-0.151 8.471 2.017 1.673 4.632 2.688 7.484 2.688 0.713 0 1.411-0.063 2.089-0.185 3.663-0.611 6.474-3.818 6.474-7.681 0-1.264-0.301-2.457-0.835-3.513z" />
<glyph unicode="&#xe918;" horiz-adv-x="1273" d="M645.985 514.245c1.785 1.181 4.374 4.198 7.189 4.424 5.48 0.478 11.512-4.876 9.727-7.867s-5.907-6.787-9.275-7.113c-4.298-0.377-7.867 3.192-7.641 10.557z" />
<glyph unicode="&#xe919;" horiz-adv-x="1273" d="M585.283 407.494c-4.273 3.821-8.722 5.932-9.727 9.124-1.483 4.6 3.067 7.918 8.647 7.691 5.027-0.201 9.074-2.514 8.446-7.541-0.377-2.865-4.122-5.354-7.365-9.275z" />
<glyph unicode="&#xe91a;" horiz-adv-x="1273" d="M575.606 491.020c0.276 7.541 4.323 8.546 8.948 8.722s8.973-2.137 7.792-6.787c-1.413-3.793-4.497-6.67-8.332-7.77-3.809-0.625-8.71 1.662-8.409 5.835z" />
<glyph unicode="&#xe91b;" horiz-adv-x="1273" d="M654.305 387.938c-3.846 4.6-7.817 7.365-8.345 10.683-0.327 2.036 4.751 7.063 7.164 6.912 3.393-0.226 6.56-3.971 9.828-6.234z" />
<glyph unicode="&#xe91c;" horiz-adv-x="1273" d="M604.914 502.306c-1.81 3.167-5.253 6.51-5.027 9.476s5.027 7.113 7.139 6.736c3.067-0.528 7.541-4.675 7.541-7.239 0-3.092-4.223-6.133-6.611-9.2z" />
<glyph unicode="&#xe91d;" horiz-adv-x="1273" d="M535.741 444.267c-3.117 4.374-6.058 6.711-6.51 9.476-0.779 4.801 2.111 7.541 7.314 7.541s9.451-1.885 8.395-7.189c-0.603-3.192-4.977-5.555-9.2-9.828z" />
<glyph unicode="&#xe91e;" horiz-adv-x="1273" d="M604.989 407.142c5.63-1.86 10.18-2.262 10.054-7.943 0-5.027-3.418-8.948-8.043-8.069-2.916 0.553-6.259 5.027-7.088 8.169-0.528 2.061 3.343 5.203 5.077 7.842z" />
<glyph unicode="&#xe91f;" horiz-adv-x="1273" d="M676.877 424.285c6.46 0.352 9.049-3.142 8.018-7.038-1.306-3.311-4.062-5.802-7.463-6.719-0.553-0.137-1.099-0.205-1.661-0.205-3.748 0-6.787 3.038-6.787 6.787 0 0.013 0 0.026 0 0.039-0.050 6.332 4.348 7.137 7.893 7.137z" />
<glyph unicode="&#xe920;" horiz-adv-x="1273" d="M558.011 465.482c-1.759 3.117-5.329 6.586-4.801 9.275 1.369 3.341 4.296 5.793 7.851 6.474 3.686 0.187 8.713-2.503 7.105-7.706-0.98-3.192-4.499-5.58-6.887-8.345z" />
<glyph unicode="&#xe921;" horiz-adv-x="1273" d="M678.461 482.298l-9.149 9.903c2.84 2.514 5.404 6.686 8.571 7.214 2.162 0.377 6.862-3.971 7.314-6.686s-3.469-5.656-6.736-10.431z" />
<glyph unicode="&#xe922;" horiz-adv-x="1273" d="M571.458 435.219c-5.027-2.865-7.666-5.605-10.632-5.907-4.499-0.478-8.596 2.514-7.541 7.239 0.578 2.765 5.027 6.711 7.541 6.56 2.941-0.201 5.781-4.097 10.632-7.893z" />
<glyph unicode="&#xe923;" horiz-adv-x="1273" d="M701.887 409.002l-10.658 8.446c3.242 2.338 6.309 6.007 9.803 6.485 2.111 0.276 5.781-4.097 6.963-7.063 0.528-1.332-3.293-4.424-6.108-7.867z" />
<glyph unicode="&#xe924;" horiz-adv-x="1273" d="M640.079 379.091c-3.016-1.986-6.234-5.806-8.948-5.48s-5.027 4.7-7.691 7.314c2.514 2.111 5.027 5.907 7.541 5.907 3.067 0 6.133-3.192 9.175-5.027z" />
<glyph unicode="&#xe925;" horiz-adv-x="1273" d="M583.775 501.803c-3.444 4.198-7.088 6.636-7.541 9.501-0.628 4.801 3.494 5.957 7.867 5.932s7.943-2.514 7.214-6.761c-0.352-2.664-3.971-4.801-7.541-8.672z" />
<glyph unicode="&#xe926;" horiz-adv-x="1273" d="M641.159 529.553c-4.298-3.192-6.586-6.133-9.325-6.611-0.455-0.123-0.978-0.193-1.518-0.193-3.346 0-6.058 2.712-6.058 6.058 0 0.227 0.013 0.452 0.037 0.673 0.349 2.662 4.145 6.935 6.332 6.885 2.79-0.050 5.806-3.67 10.532-6.812z" />
<glyph unicode="&#xe927;" horiz-adv-x="1273" d="M584.026 407.871l7.993-9.225c-2.514-2.162-5.329-6.234-7.691-6.033-2.891 0.276-5.454 4.122-8.144 6.435z" />
<glyph unicode="&#xe928;" horiz-adv-x="1273" d="M569.121 415.713c-2.865-1.634-5.656-4.424-8.622-4.6s-7.767 0.503-7.214 5.907c0.427 4.399 2.865 7.842 7.365 7.038 3.142-0.578 5.831-3.569 8.697-5.48z" />
<glyph unicode="&#xe929;" horiz-adv-x="1273" d="M537.651 445.323l7.264-8.948c-2.941-2.312-5.63-5.656-8.948-6.51-1.558-0.402-6.41 4.323-6.108 6.108 0.503 2.815 4.022 5.128 7.792 9.35z" />
<glyph unicode="&#xe92a;" horiz-adv-x="1273" d="M699.851 486.319c-2.353 0.574-4.413 1.35-6.346 2.338-0.943 0.628-1.295 2.438-1.974 3.82 3.476 1.919 7.583 3.76 11.847 5.271 1.5 0.435 4.818-3.36 4.793-5.271-0.075-4.826-3.569-6.435-8.32-6.158z" />
<glyph unicode="&#xe92b;" horiz-adv-x="1273" d="M560.524 483.856c-3.092 3.77-6.56 6.234-6.334 8.219 0.302 2.514 4.374 7.113 5.454 6.761 3.318-1.131 5.982-4.173 8.898-6.485z" />
<glyph unicode="&#xe92c;" horiz-adv-x="1273" d="M535.389 479.91c5.48-1.232 10.255-1.709 9.401-7.365-1.36-2.702-4.020-4.574-7.136-4.799-3.070 0.652-5.483 4.121-8.172 6.383z" />
<glyph unicode="&#xe92d;" horiz-adv-x="1273" d="M653.526 374.717c-4.524-1.031-6.46 1.533-6.661 5.404s2.388 5.982 6.435 6.058 8.521-0.955 8.043-5.781c-0.251-2.514-4.072-4.725-6.309-7.063z" />
<glyph unicode="&#xe92e;" horiz-adv-x="1273" d="M732.728 434.213c-2.891-1.558-6.007-4.6-8.647-4.248s-4.776 4.173-7.139 6.46c2.514 1.91 5.027 5.253 7.541 5.379s5.58-2.865 8.37-4.499z" />
<glyph unicode="&#xe92f;" horiz-adv-x="1273" d="M684.92 396.962c-2.514-1.609-5.379-5.027-7.365-4.449-2.891 0.704-5.027 4.097-7.666 6.359 2.514 2.137 4.776 5.656 7.541 5.982s5.027-3.016 7.717-4.751z" />
<glyph unicode="&#xe930;" horiz-adv-x="1273" d="M677.933 519.85c2.991-3.795 5.53-5.605 5.907-7.792 0.779-4.625-2.237-7.993-6.661-7.113-2.765 0.553-5.027 4.223-7.314 6.485z" />
<glyph unicode="&#xe931;" horiz-adv-x="1273" d="M732.829 472.168c-3.067-1.558-6.208-4.424-9.2-4.273-2.262 0-4.298 4.072-6.46 6.309 2.514 1.81 5.027 4.851 7.541 5.027s5.278-2.514 7.943-3.946z" />
<glyph unicode="&#xe932;" horiz-adv-x="1273" d="M691.757 511.455c3.946 4.298 7.993 8.27 13.498 4.725 1.483-0.955 1.558-6.636 0.201-8.923-2.061-3.519-8.546-1.483-13.699 4.198z" />
<glyph unicode="&#xe933;" horiz-adv-x="1273" d="M653.727 520.655c-3.092 4.173-6.611 6.963-6.158 8.722 1.177 2.784 3.644 4.819 6.631 5.371 2.569 0.008 4.931-3.209 7.344-5.019z" />
<glyph unicode="&#xe934;" horiz-adv-x="1273" d="M537.299 483.881c-3.142 4.047-6.158 6.41-6.636 9.2-0.251 1.408 4.499 5.404 6.309 5.027 3.106-1.107 5.57-3.359 6.931-6.236 0.509-1.079-3.287-4.17-6.605-7.991z" />
<glyph unicode="&#xe935;" horiz-adv-x="1273" d="M605.995 539.104c3.368-4.474 6.133-7.038 7.164-10.054 0.327-0.98-3.846-4.675-6.259-5.027-0.322-0.069-0.693-0.108-1.073-0.108-2.971 0-5.379 2.408-5.379 5.379 0 0.54 0.080 1.062 0.228 1.554 0.342 2.174 2.579 4.21 5.319 8.257z" />
<glyph unicode="&#xe936;" horiz-adv-x="1273" d="M537.575 426.27c3.167-4.298 6.435-6.761 6.812-9.627 0.779-5.806-5.027-4.047-7.842-4.348-1.759-0.176-5.379 3.544-5.505 5.681s3.192 4.273 6.535 8.295z" />
<glyph unicode="&#xe937;" horiz-adv-x="1273" d="M519.327 448.013c-4.374 2.514-12.442-2.137-11.21 7.038 1.393 2.927 4.194 4.983 7.503 5.301 6.196-1.304 5.693-6.382 3.707-12.339z" />
<glyph unicode="&#xe938;" horiz-adv-x="1273" d="M654.004 540.235c-3.142 3.896-6.636 6.56-6.208 8.119 0.971 2.942 3.256 5.21 6.141 6.139 2.053 0.22 5.999-3.375 6.226-5.586s-3.142-4.776-6.158-8.672z" />
<glyph unicode="&#xe939;" horiz-adv-x="1273" d="M723.906 410.209c-2.514 2.514-6.359 5.253-6.007 6.033 1.808 2.978 3.888 5.546 6.267 7.802l7.557-6.846z" />
<glyph unicode="&#xe93a;" horiz-adv-x="1273" d="M692.436 399.476c3.645 4.55 7.541 7.968 12.568 3.695 1.533-1.307 1.759-6.108 0.603-8.244-1.81-3.519-8.471-1.181-13.171 4.55z" />
<glyph unicode="&#xe93b;" horiz-adv-x="1273" d="M584.102 388.19c2.941-3.469 6.485-5.907 6.208-7.792-0.327-2.287-4.198-5.957-5.982-5.656-2.84 0.478-5.203 3.745-7.792 5.831z" />
<glyph unicode="&#xe93c;" horiz-adv-x="1273" d="M732.477 491.271c-3.016-1.533-6.033-4.198-9.024-4.173-1.91 0-3.821 3.971-5.731 6.183 2.162 1.634 4.348 4.625 6.46 4.575 2.815 0 5.555-2.514 8.32-3.896z" />
<glyph unicode="&#xe93d;" horiz-adv-x="1273" d="M560.524 520.629c2.84-3.971 5.806-6.334 5.756-8.596s-3.494-6.435-4.851-6.208c-2.664 0.427-6.711 3.167-6.912 5.278s3.067 5.178 6.007 9.526z" />
<glyph unicode="&#xe93e;" horiz-adv-x="1273" d="M691.783 378.965c5.354 6.787 10.23 8.672 13.297 5.027 1.332-1.558 1.885-5.857 0.779-7.038-5.002-5.404-9.225-0.754-14.076 2.011z" />
<glyph unicode="&#xe93f;" horiz-adv-x="1273" d="M744.969 448.364c-1.181 2.036-3.821 4.876-3.242 5.982 1.89 2.59 4.089 4.805 6.578 6.653 1.942-2.103 5.11-4.089 5.411-6.502 0.829-5.103-2.941-5.932-8.747-6.133z" />
<glyph unicode="&#xe940;" horiz-adv-x="1273" d="M778.425 449.294c-5.027-0.176-11.135-4.223-12.392 4.374-0.276 1.935 2.061 5.957 3.594 6.183 7.591 1.081 7.742-4.927 8.797-10.557z" />
<glyph unicode="&#xe941;" horiz-adv-x="1273" d="M607.050 372.128c-2.941 3.821-6.033 6.108-6.033 8.42 0 1.734 4.173 5.027 6.083 4.851 2.514-0.352 4.776-3.494 7.139-5.454z" />
<glyph unicode="&#xe942;" horiz-adv-x="1273" d="M584.604 537.898c2.69-3.594 5.656-5.932 5.278-7.541-0.578-2.514-3.645-6.183-5.228-5.982-2.514 0.327-5.027 3.343-7.365 5.228z" />
<glyph unicode="&#xe943;" horiz-adv-x="1273" d="M622.509 549.133c3.795 2.74 6.435 5.857 7.742 5.379 2.639-0.98 4.55-3.921 6.761-6.058-2.111-1.835-4.122-5.027-6.334-5.027s-4.348 2.815-8.169 5.706z" />
<glyph unicode="&#xe944;" horiz-adv-x="1273" d="M676.802 388.19c3.092-3.544 6.435-5.706 6.435-7.893-0.738-2.745-2.844-4.869-5.524-5.617-2.974 0.418-5.357 2.35-6.421 4.96-0.296 2.065 2.821 4.755 5.51 8.55z" />
<glyph unicode="&#xe945;" horiz-adv-x="1273" d="M654.532 369.036c2.514-3.293 5.957-5.781 5.605-7.541-0.478-2.312-4.399-5.957-5.831-5.555-2.514 0.754-4.499 4.072-6.711 6.334z" />
<glyph unicode="&#xe946;" horiz-adv-x="1273" d="M559.594 390.93c-2.514 3.971-5.656 6.937-5.027 8.043 1.457 2.655 3.852 4.642 6.73 5.533 1.464 0.323 5.561-3.799 5.235-5.156-0.654-2.564-3.494-4.575-6.937-8.42z" />
<glyph unicode="&#xe947;" horiz-adv-x="1273" d="M537.425 503.487c-2.79 3.418-5.831 5.53-5.882 7.691s3.092 4.097 4.851 6.158c2.632-2.023 4.928-4.279 6.926-6.782 0.438-0.683-2.905-3.749-5.896-7.067z" />
<glyph unicode="&#xe948;" horiz-adv-x="1273" d="M639.626 362.024c-4.122-3.217-6.586-6.586-8.546-6.309s-4.499 3.67-5.53 6.208c-0.352 0.855 3.067 4.6 4.725 4.6 2.488-0.025 4.952-2.237 9.35-4.499z" />
<glyph unicode="&#xe949;" horiz-adv-x="1273" d="M521.79 435.973c-3.117-2.514-5.756-5.58-6.761-5.027-2.717 1.74-5.044 3.788-7.025 6.137 2.476 1.68 4.763 4.143 7.503 4.621 1.357 0.126 3.393-3.041 6.284-5.731z" />
<glyph unicode="&#xe94a;" horiz-adv-x="1273" d="M615.043 549.259c-3.67-2.891-6.108-6.133-7.691-5.781-2.363 0.553-4.147 3.645-6.158 5.681 1.961 1.835 3.745 4.876 5.907 5.153s4.223-2.539 7.943-5.052z" />
<glyph unicode="&#xe94b;" horiz-adv-x="1273" d="M686.579 530.181c-4.374-2.891-6.636-5.454-9.124-5.656-1.835-0.151-3.921 2.79-5.907 4.348 2.312 2.036 4.323 4.801 7.013 5.831 1.382 0.503 3.946-2.011 8.018-4.524z" />
<glyph unicode="&#xe94c;" horiz-adv-x="1273" d="M693.743 531.337c4.323 2.514 8.144 6.661 12.141 1.307 0.176-0.577 0.277-1.241 0.277-1.928 0-1.778-0.678-3.397-1.79-4.613-4.821-2.659-8.466-0.623-10.628 5.233z" />
<glyph unicode="&#xe94d;" horiz-adv-x="1273" d="M755.753 435.772c-3.544-2.287-6.033-5.027-7.541-4.65-2.514 0.704-4.198 3.62-6.234 5.605 2.086 1.734 4.147 4.776 6.234 4.801s4.147-3.041 7.541-5.756z" />
<glyph unicode="&#xe94e;" horiz-adv-x="1273" d="M560.323 372.128c-2.514 3.519-5.656 5.831-5.404 7.742 0.839 2.572 2.926 4.518 5.528 5.142 2.659-0.643 4.696-2.588 5.468-5.089 0.115-2.115-2.876-4.326-5.591-7.795z" />
<glyph unicode="&#xe94f;" horiz-adv-x="1273" d="M747.86 481.745c2.79-3.971 5.756-6.435 5.404-8.219-0.427-2.187-3.645-3.846-5.681-5.731-1.684 1.86-4.675 3.67-4.725 5.555s2.488 4.424 5.002 8.395z" />
<glyph unicode="&#xe950;" horiz-adv-x="1273" d="M515.28 465.029c-3.092 4.147-5.681 6.284-6.208 8.848-0.276 1.332 3.393 5.027 4.801 4.751 2.64-0.664 4.74-2.532 5.711-4.971 0.522-1.916-1.991-4.48-4.304-8.627z" />
<glyph unicode="&#xe951;" horiz-adv-x="1273" d="M731.447 398.47c-3.72-3.494-6.812-7.541-11.286-3.67-0.546 1.017-0.866 2.226-0.866 3.509 0 1.495 0.435 2.889 1.186 4.061 4.557 3.74 7.497-0.382 10.966-3.901z" />
<glyph unicode="&#xe952;" horiz-adv-x="1273" d="M731.447 511.178c-3.343-3.393-6.284-7.541-10.783-3.871-1.357 1.131-1.031 7.214 0.553 8.42 5.203 3.946 6.787-2.061 10.23-4.55z" />
<glyph unicode="&#xe953;" horiz-adv-x="1273" d="M543.96 397.591c-2.237-1.408-4.499-3.871-6.711-3.846-2.407 0.634-4.285 2.437-5.013 4.751-0.265 1.433 2.802 4.776 4.46 4.826 2.338 0 4.751-2.061 7.139-3.268z" />
<glyph unicode="&#xe954;" horiz-adv-x="1273" d="M476.722 447.51c-3.533 0.892-6.408 1.805-9.214 2.86-1.463 0.69-3.21 1.921-4.655 3.443-0.081 0.296-0.123 0.628-0.123 0.97 0 0.962 0.338 1.846 0.902 2.538 2.256 0.571 5.549 1.526 6.881 0.445 2.838-2.804 5.387-5.889 7.607-9.212z" />
<glyph unicode="&#xe955;" horiz-adv-x="1273" d="M615.194 361.42c-4.173-2.514-6.661-5.429-8.571-5.027s-3.795 3.62-5.656 5.605c2.162 1.558 4.173 4.097 6.51 4.399 1.759 0.176 3.896-2.413 7.717-4.977z" />
<glyph unicode="&#xe956;" horiz-adv-x="1273" d="M770.532 429.638c-2.312 2.966-5.027 5.027-4.851 6.586s3.418 4.6 5.027 4.399c2.187-0.302 4.072-2.966 6.083-4.6z" />
<glyph unicode="&#xe957;" horiz-adv-x="1273" d="M497.685 453.417c-3.067-2.237-5.806-5.027-6.41-4.524-2.357 1.613-4.218 3.789-5.414 6.339-0.342 0.8 3.529 4.646 4.559 4.319 2.237-0.779 3.997-3.293 7.264-6.133z" />
<glyph unicode="&#xe958;" horiz-adv-x="1273" d="M584.127 354.659l-6.309 6.359c2.137 1.81 4.047 4.374 6.485 5.027 1.106 0.302 4.323-2.916 4.625-4.851s-2.463-3.519-4.801-6.535z" />
<glyph unicode="&#xe959;" horiz-adv-x="1273" d="M661.067 566.401c-2.036-1.307-4.248-3.896-6.033-3.62-2.514 0.377-4.625 2.916-6.937 4.524 1.74 1.337 3.757 2.429 5.935 3.173 2.504-0.011 4.733-0.486 6.786-1.308z" />
<glyph unicode="&#xe95a;" horiz-adv-x="1273" d="M560.122 537.546c2.514-3.645 4.876-5.58 5.027-7.541 0-1.508-2.865-4.625-4.223-4.499-2.39 0.436-4.334 2.022-5.261 4.152-0.169 1.805 2.144 4.067 4.456 7.888z" />
<glyph unicode="&#xe95b;" horiz-adv-x="1273" d="M747.408 499.214c2.815-2.941 5.857-5.027 5.505-5.982-1.376-2.409-3.049-4.465-5.003-6.213-1.733 1.714-4.397 3.247-4.875 5.283-0.327 1.508 2.187 3.645 4.374 6.912z" />
<glyph unicode="&#xe95c;" horiz-adv-x="1273" d="M520.986 417.724c-2.941-2.363-5.027-5.027-6.384-4.826-2.061 0.352-3.77 2.891-5.63 4.499 1.785 1.759 3.318 4.424 5.429 5.027 1.357 0.302 3.519-2.413 6.586-4.7z" />
<glyph unicode="&#xe95d;" horiz-adv-x="1273" d="M747.609 425.215c2.514-4.122 4.826-6.435 4.499-8.244s-3.268-3.745-5.379-4.223c-1.005-0.226-3.946 2.916-3.871 4.424 0.151 2.086 2.262 4.072 4.751 8.043z" />
<glyph unicode="&#xe95e;" horiz-adv-x="1273" d="M536.645 374.139c-1.566 1.632-3.005 3.414-4.284 5.313 1.404 2.267 3.433 3.923 5.803 4.934 1.246 0.336 3.257-2.681 4.891-4.214z" />
<glyph unicode="&#xe95f;" horiz-adv-x="1273" d="M677.48 368.308l5.781-6.761c-1.86-1.533-3.795-4.323-5.555-4.223s-4.348 2.79-4.876 4.826c-0.327 1.257 2.413 3.343 4.65 6.158z" />
</font>
</defs>
</svg>
