<svg xmlns="http://www.w3.org/2000/svg" viewBox="0 0 502.23 536.56"><defs><style>.cls-1,.cls-20,.cls-25,.cls-27,.cls-40{fill:none;stroke-linecap:round;}.cls-1{stroke:#c2b49b;stroke-width:2px;stroke-dasharray:5 5;}.cls-1,.cls-20,.cls-25,.cls-27,.cls-31,.cls-40{stroke-miterlimit:10;}.cls-2{fill:#29a9e0;}.cls-3{fill:#c2b49b;}.cls-31,.cls-4{fill:#8bc543;}.cls-5{fill:#91288e;}.cls-6{fill:#ed1d24;}.cls-7{fill:#f0f1f1;}.cls-8{fill:#ed2b7a;}.cls-9{fill:#f69322;}.cls-10{fill:#179ecc;}.cls-11{fill:#e8811a;}.cls-12{fill:#d81220;}.cls-13{fill:#7eb530;}.cls-14{fill:#d61d71;}.cls-15{fill:#7f1c7f;}.cls-16{fill:#fff;}.cls-17{fill:#e6e6e7;}.cls-18{fill:#c6421e;}.cls-19{fill:#aa3115;}.cls-20{stroke:#f0f1f1;stroke-width:3.15px;}.cls-21{fill:#f9ca35;}.cls-22{fill:#e8af2e;}.cls-23{fill:#a6a8ab;}.cls-24{fill:#d0d2d3;}.cls-25,.cls-27{stroke:#403f41;}.cls-25{stroke-width:1.46px;}.cls-26{fill:#221f1f;}.cls-27{stroke-width:1.21px;}.cls-28{fill:#403f41;}.cls-29{fill:#773249;}.cls-30{fill:#6c6e70;}.cls-31{stroke:#006738;stroke-width:2.04px;}.cls-32{fill:#006738;}.cls-33{fill:#e2a540;}.cls-34{fill:#744c29;}.cls-35{fill:#f7f7f7;}.cls-36{fill:#c38728;}.cls-37{fill:#a31123;}.cls-38{fill:#8c091f;}.cls-39{fill:#be1e2c;}.cls-40{stroke:#478c2d;stroke-width:2.94px;}.cls-41{fill:#0464b9;}.cls-42{fill:#fbc69a;}.cls-43{fill:#035693;}.cls-44{fill:#3b2314;}.cls-45{fill:#5f3813;}.cls-46{fill:#929597;}.cls-47{fill:#bbbdbf;}.cls-48{fill:#f45d81;}.cls-49{fill:#f7cf9c;}.cls-50{fill:#ffdc24;}.cls-51{fill:#e8bf15;}</style></defs><title>KRecurso 1h</title><g id="Capa_2" data-name="Capa 2"><g id="Capa_1-2" data-name="Capa 1"><circle class="cls-1" cx="251.12" cy="268.7" r="170.36"/><path class="cls-2" d="M219.09,534.56a18.91,18.91,0,0,1-16.33-9.43l-32-55.47a18.92,18.92,0,0,1,0-18.86l32-55.47a18.92,18.92,0,0,1,16.33-9.43h64.06a18.92,18.92,0,0,1,16.33,9.43l32,55.47a18.91,18.91,0,0,1,0,18.86l-32,55.47a18.91,18.91,0,0,1-16.33,9.43Z"/><path class="cls-3" d="M283.14,387.88a16.86,16.86,0,0,1,14.6,8.43l32,55.47a16.86,16.86,0,0,1,0,16.86l-32,55.47a16.86,16.86,0,0,1-14.6,8.43H219.09a16.86,16.86,0,0,1-14.6-8.43l-32-55.47a16.86,16.86,0,0,1,0-16.86l32-55.47a16.86,16.86,0,0,1,14.6-8.43h64.06m0-4H219.09A20.92,20.92,0,0,0,201,394.31l-32,55.47a20.92,20.92,0,0,0,0,20.86l32,55.47a20.92,20.92,0,0,0,18.07,10.43h64.06a20.92,20.92,0,0,0,18.07-10.43l32-55.47a20.91,20.91,0,0,0,0-20.86l-32-55.47a20.92,20.92,0,0,0-18.07-10.43Z"/><path class="cls-4" d="M219.09,150.67a18.91,18.91,0,0,1-16.33-9.43l-32-55.47a18.91,18.91,0,0,1,0-18.86l32-55.48A18.91,18.91,0,0,1,219.09,2h64.06a18.91,18.91,0,0,1,16.33,9.43l32,55.48a18.91,18.91,0,0,1,0,18.86l-32,55.47a18.91,18.91,0,0,1-16.33,9.43Z"/><path class="cls-3" d="M283.14,4a16.86,16.86,0,0,1,14.6,8.43l32,55.48a16.86,16.86,0,0,1,0,16.86l-32,55.47a16.86,16.86,0,0,1-14.6,8.43H219.09a16.86,16.86,0,0,1-14.6-8.43l-32-55.47a16.86,16.86,0,0,1,0-16.86l32-55.48A16.86,16.86,0,0,1,219.09,4h64.06m0-4H219.09A20.92,20.92,0,0,0,201,10.43L169,65.91a20.92,20.92,0,0,0,0,20.86l32,55.47a20.92,20.92,0,0,0,18.07,10.43h64.06a20.92,20.92,0,0,0,18.07-10.43l32-55.47a20.92,20.92,0,0,0,0-20.86l-32-55.47A20.92,20.92,0,0,0,283.14,0Z"/><path class="cls-5" d="M52.89,438.63a18.91,18.91,0,0,1-16.33-9.43l-32-55.47a18.91,18.91,0,0,1,0-18.86l32-55.48A18.92,18.92,0,0,1,52.86,290h64.06a18.91,18.91,0,0,1,16.34,9.43l32,55.47a18.91,18.91,0,0,1,0,18.86l-32,55.48A18.91,18.91,0,0,1,117,438.61H52.89Z"/><path class="cls-3" d="M116.93,291.94a16.86,16.86,0,0,1,14.6,8.43l32,55.47a16.86,16.86,0,0,1,0,16.86l-32,55.48a16.86,16.86,0,0,1-14.6,8.44H52.89a16.86,16.86,0,0,1-14.6-8.43l-32-55.47a16.86,16.86,0,0,1,0-16.86l32-55.48A16.87,16.87,0,0,1,52.87,292h64.06m0-4H52.86A20.92,20.92,0,0,0,34.8,298.39l-32,55.48a20.92,20.92,0,0,0,0,20.86l32,55.47a20.92,20.92,0,0,0,18.06,10.43H117A20.92,20.92,0,0,0,135,430.18l32-55.48a20.92,20.92,0,0,0,0-20.86l-32-55.47a20.92,20.92,0,0,0-18.06-10.42Z"/><path class="cls-6" d="M385.31,246.62A18.92,18.92,0,0,1,369,237.19l-32-55.47a18.91,18.91,0,0,1,0-18.86l32-55.48a18.92,18.92,0,0,1,16.33-9.43h64.06a18.92,18.92,0,0,1,16.33,9.43l32,55.47a18.92,18.92,0,0,1,0,18.86l-32,55.48a18.91,18.91,0,0,1-16.33,9.43H385.31Z"/><path class="cls-3" d="M449.34,99.93a16.86,16.86,0,0,1,14.6,8.43l32,55.47a16.86,16.86,0,0,1,0,16.86l-32,55.48a16.86,16.86,0,0,1-14.6,8.43H385.31a16.86,16.86,0,0,1-14.6-8.43l-32-55.47a16.86,16.86,0,0,1,0-16.86l32-55.48a16.86,16.86,0,0,1,14.6-8.43h64.06m0-4H385.28a20.92,20.92,0,0,0-18.06,10.43l-32,55.48a20.92,20.92,0,0,0,0,20.86l32,55.47a20.92,20.92,0,0,0,18.07,10.43h64.06a20.92,20.92,0,0,0,18.06-10.43l32-55.48a20.92,20.92,0,0,0,0-20.86l-32-55.47a20.92,20.92,0,0,0-18.06-10.43Z"/><path class="cls-7" d="M369.44,265.74l-56.26-98.23a5.9,5.9,0,0,0-5.1-3l-113.2-.4a5.83,5.83,0,0,0-5.12,2.93l-56.94,97.84a5.9,5.9,0,0,0,0,5.9L189.05,369a5.9,5.9,0,0,0,5.1,3l113.2.39h0a5.9,5.9,0,0,0,5.1-2.93l56.94-97.84A5.9,5.9,0,0,0,369.44,265.74Z"/><path class="cls-8" d="M52.94,246a18.91,18.91,0,0,1-16.3-9.49L4.8,180.88A18.91,18.91,0,0,1,4.87,162l32.22-55.36a18.92,18.92,0,0,1,16.3-9.37l64.12.22a18.92,18.92,0,0,1,16.3,9.49l31.83,55.59a18.91,18.91,0,0,1-.07,18.86L133.36,236.8a18.92,18.92,0,0,1-16.3,9.37Z"/><path class="cls-3" d="M53.45,99.28l64.06.22A16.86,16.86,0,0,1,132.08,108l31.83,55.59a16.86,16.86,0,0,1-.06,16.86l-32.22,55.36a16.86,16.86,0,0,1-14.57,8.38H117L52.94,244a16.86,16.86,0,0,1-14.57-8.48L6.54,179.88A16.86,16.86,0,0,1,6.6,163l32.22-55.36a16.86,16.86,0,0,1,14.57-8.38h.06m0-4h-.07a20.93,20.93,0,0,0-18,10.37L3.14,161a20.91,20.91,0,0,0-.07,20.86L34.9,237.46a20.92,20.92,0,0,0,18,10.49l64.06.22h.07a20.93,20.93,0,0,0,18-10.37l32.22-55.36a20.92,20.92,0,0,0,.07-20.86L135.55,106a20.92,20.92,0,0,0-18-10.49l-64.06-.22Z"/><path class="cls-9" d="M384.72,439.05a18.91,18.91,0,0,1-16.3-9.49L336.58,374a18.91,18.91,0,0,1,.07-18.86l32.22-55.36a18.92,18.92,0,0,1,16.3-9.37l64.12.22a18.91,18.91,0,0,1,16.3,9.49l31.83,55.59a18.91,18.91,0,0,1-.07,18.86L465.14,429.9a18.92,18.92,0,0,1-16.3,9.37Z"/><path class="cls-3" d="M385.23,292.38l64.06.22a16.86,16.86,0,0,1,14.57,8.48l31.83,55.59a16.86,16.86,0,0,1-.06,16.86L463.41,428.9a16.86,16.86,0,0,1-14.57,8.38h-.06l-64.06-.22a16.86,16.86,0,0,1-14.57-8.48L338.32,373a16.86,16.86,0,0,1,.06-16.86l32.22-55.36a16.86,16.86,0,0,1,14.57-8.38h.06m0-4h-.07a20.93,20.93,0,0,0-18,10.37l-32.22,55.36a20.92,20.92,0,0,0-.07,20.86l31.83,55.59a20.92,20.92,0,0,0,18,10.49l64.06.22h.07a20.93,20.93,0,0,0,18-10.37l32.22-55.37a20.92,20.92,0,0,0,.07-20.86L467.33,299.1a20.92,20.92,0,0,0-18-10.49l-64.06-.22Z"/><path class="cls-10" d="M297.75,524.12l32-55.47a16.86,16.86,0,0,0,0-16.86l-32-55.47a16.86,16.86,0,0,0-14.6-8.43h-32V532.56h32A16.86,16.86,0,0,0,297.75,524.12Z"/><path class="cls-11" d="M464,428.19l32-55.47a16.86,16.86,0,0,0,0-16.86l-32-55.47a16.86,16.86,0,0,0-14.6-8.43h-32V436.62h32A16.86,16.86,0,0,0,464,428.19Z"/><path class="cls-12" d="M464,235.63l32-55.47a16.86,16.86,0,0,0,0-16.86l-32-55.47a16.86,16.86,0,0,0-14.6-8.43h-32V244.06h32A16.86,16.86,0,0,0,464,235.63Z"/><path class="cls-13" d="M297.75,140.24l32-55.47a16.86,16.86,0,0,0,0-16.86l-32-55.47A16.86,16.86,0,0,0,283.14,4h-32V148.67h32A16.86,16.86,0,0,0,297.75,140.24Z"/><path class="cls-14" d="M163.89,162.84l-32-55.47a16.86,16.86,0,0,0-14.6-8.43h-32V243.61h32a16.86,16.86,0,0,0,14.6-8.43l32-55.48A16.86,16.86,0,0,0,163.89,162.84Z"/><path class="cls-15" d="M131.86,300.38a16.86,16.86,0,0,0-14.6-8.43h-32V436.62h32a16.86,16.86,0,0,0,14.6-8.43l32-55.47a16.85,16.85,0,0,0,0-16.86Z"/><path class="cls-16" d="M220.44,33a5.45,5.45,0,0,1-4.75-2.49Q214,28,214,23.34q0-5.17,1.78-7.82a5.82,5.82,0,0,1,5.14-2.65q6.43,0,6.43,10,0,5-1.82,7.56A5.84,5.84,0,0,1,220.44,33Zm.31-17.64q-3.55,0-3.55,7.82,0,7.32,3.48,7.32t3.43-7.44Q224.11,15.38,220.75,15.38Z"/><path class="cls-16" d="M243,28h-2.44V32.7h-3V28h-8.87V26l8.46-12.76h3.37V25.61H243Zm-5.4-2.38V18.06q0-.8.05-1.8h-.05a11.24,11.24,0,0,1-.67,1.33l-5.31,8Z"/><path class="cls-17" d="M370.22,268.69h0Z"/><path class="cls-17" d="M370.22,268.69v0Z"/><path class="cls-17" d="M369.42,271.64a5.89,5.89,0,0,0,.75-2.18A5.89,5.89,0,0,1,369.42,271.64Z"/><path class="cls-17" d="M370.22,268.7h0v0a5.91,5.91,0,0,0-.78-2.92l-56.26-98.23a5.9,5.9,0,0,0-5.1-3l-57-.2V372.21l56.24.2h0a5.9,5.9,0,0,0,5.1-2.93l56.94-97.84a5.89,5.89,0,0,0,.75-2.18A6,6,0,0,0,370.22,268.7Z"/><path class="cls-16" d="M387,130.88a5.45,5.45,0,0,1-4.75-2.49q-1.71-2.49-1.71-7.2,0-5.17,1.78-7.82a5.81,5.81,0,0,1,5.14-2.65q6.43,0,6.43,10,0,5-1.82,7.56A5.84,5.84,0,0,1,387,130.88Zm.31-17.64q-3.55,0-3.55,7.82,0,7.32,3.48,7.32t3.43-7.44Q390.67,113.23,387.31,113.23Z"/><path class="cls-16" d="M397.17,130.1v-3a6.9,6.9,0,0,0,3.89,1.29,4.82,4.82,0,0,0,3.2-1,3.35,3.35,0,0,0,1.21-2.7,3,3,0,0,0-1.23-2.58,5.8,5.8,0,0,0-3.53-.92q-.79,0-2.92.16V111h10v2.69h-7.25v4.88q.88-.05,1.65-.05a6.74,6.74,0,0,1,4.79,1.59,5.68,5.68,0,0,1,1.69,4.35,6,6,0,0,1-1.94,4.64,7.66,7.66,0,0,1-5.33,1.75A8.83,8.83,0,0,1,397.17,130.1Z"/><path class="cls-16" d="M387.31,323.33a5.45,5.45,0,0,1-4.75-2.49q-1.71-2.49-1.71-7.2,0-5.17,1.78-7.82a5.81,5.81,0,0,1,5.14-2.65q6.43,0,6.43,10,0,5-1.82,7.56A5.84,5.84,0,0,1,387.31,323.33Zm.31-17.64q-3.55,0-3.55,7.82,0,7.32,3.48,7.32t3.43-7.44Q391,305.69,387.63,305.69Z"/><path class="cls-16" d="M408.41,303.73v2.73a6.41,6.41,0,0,0-3.06-.78,4.72,4.72,0,0,0-4,2,8.85,8.85,0,0,0-1.5,5.4h.05a4.56,4.56,0,0,1,4.35-2.45,5,5,0,0,1,4,1.66,7.26,7.26,0,0,1-.35,9.18,6.2,6.2,0,0,1-4.61,1.84,5.72,5.72,0,0,1-4.84-2.34,10.76,10.76,0,0,1-1.76-6.57,13.34,13.34,0,0,1,2.29-8.19,7.22,7.22,0,0,1,6.07-3.06A8.34,8.34,0,0,1,408.41,303.73Zm-5.09,9.4a3.05,3.05,0,0,0-2.39,1,3.52,3.52,0,0,0-.92,2.43,4.94,4.94,0,0,0,.91,3,3,3,0,0,0,4.73.16,4.19,4.19,0,0,0,.88-2.74,4.37,4.37,0,0,0-.84-2.85A2.91,2.91,0,0,0,403.32,313.13Z"/><path class="cls-16" d="M222.11,418.83a5.45,5.45,0,0,1-4.75-2.49q-1.71-2.49-1.71-7.2,0-5.17,1.78-7.82a5.82,5.82,0,0,1,5.14-2.65q6.43,0,6.43,10,0,5-1.82,7.56A5.84,5.84,0,0,1,222.11,418.83Zm.31-17.64q-3.55,0-3.55,7.82,0,7.32,3.48,7.32t3.43-7.44Q225.78,401.19,222.42,401.19Z"/><path class="cls-16" d="M244,418.5H232.4v-2.61h4.24V402.1l-4.35,1.16v-2.75l7.51-1.88v17.26H244Z"/><path class="cls-16" d="M54.9,322.89a5.45,5.45,0,0,1-4.75-2.49q-1.71-2.49-1.71-7.2,0-5.17,1.78-7.82a5.81,5.81,0,0,1,5.14-2.65q6.43,0,6.43,10,0,5-1.82,7.56A5.84,5.84,0,0,1,54.9,322.89Zm.31-17.64q-3.55,0-3.55,7.82,0,7.32,3.48,7.32t3.43-7.44Q58.57,305.25,55.22,305.25Z"/><path class="cls-16" d="M76.46,322.56H64.22V320l5.4-5.24a22.22,22.22,0,0,0,3-3.33,5,5,0,0,0,.88-2.84,3.11,3.11,0,0,0-.92-2.4,3.72,3.72,0,0,0-2.62-.85,6.78,6.78,0,0,0-4.76,2.23v-3a9.15,9.15,0,0,1,5.59-1.78,6.34,6.34,0,0,1,4.33,1.38,5,5,0,0,1,1.58,4,6.74,6.74,0,0,1-1,3.43,23.39,23.39,0,0,1-3.77,4.4l-4,3.85v.07h8.57Z"/><path class="cls-16" d="M54.9,129.88a5.45,5.45,0,0,1-4.75-2.49q-1.71-2.49-1.71-7.2,0-5.17,1.78-7.82a5.81,5.81,0,0,1,5.14-2.65q6.43,0,6.43,10,0,5-1.82,7.56A5.85,5.85,0,0,1,54.9,129.88Zm.31-17.64q-3.55,0-3.55,7.82,0,7.32,3.48,7.32t3.43-7.44Q58.57,112.24,55.22,112.24Z"/><path class="cls-16" d="M64.72,128.84v-3a6.74,6.74,0,0,0,4.3,1.51,5,5,0,0,0,3.11-.88,2.85,2.85,0,0,0,1.16-2.39q0-3.32-5.07-3.32H66.71v-2.53h1.44q4.5,0,4.5-3.13,0-2.88-3.51-2.88a5.76,5.76,0,0,0-3.69,1.4v-2.8a9.43,9.43,0,0,1,4.69-1.12,6.29,6.29,0,0,1,4.16,1.3,4.17,4.17,0,0,1,1.56,3.35q0,3.85-3.92,5v.05a5.13,5.13,0,0,1,3.33,1.48A4.4,4.4,0,0,1,76.52,124a5.21,5.21,0,0,1-2,4.24,8,8,0,0,1-5.2,1.61A8.86,8.86,0,0,1,64.72,128.84Z"/><rect class="cls-7" x="372.82" y="402.33" width="90" height="3.08"/><rect class="cls-18" x="376.35" y="366.3" width="14.36" height="31.93"/><rect class="cls-19" x="383.53" y="366.3" width="7.18" height="31.93"/><rect class="cls-18" x="398.98" y="354.4" width="14.36" height="43.83"/><rect class="cls-19" x="406.15" y="354.4" width="7.18" height="43.83"/><rect class="cls-18" x="421.6" y="358.71" width="14.36" height="39.52"/><rect class="cls-19" x="428.78" y="358.71" width="7.18" height="39.52"/><rect class="cls-18" x="444.22" y="343.52" width="14.36" height="54.71"/><rect class="cls-19" x="451.4" y="343.52" width="7.18" height="54.71"/><polyline class="cls-20" points="451.4 329.51 428.78 348.15 406.15 343.39 383.08 356.98"/><polyline class="cls-20" points="445.44 328.5 453.34 328.12 450.38 336.32"/><path class="cls-21" d="M277.25,456.09a26.55,26.55,0,0,0-53.09,1c2.91,16.57,10.91,18.6,15.28,35.91,9.48,6.31,8.75,4.85,24,1.24,2.18-15.94,13.82-25.55,13.82-37.16A8.26,8.26,0,0,0,277.25,456.09Z"/><path class="cls-22" d="M277.27,457.1a8.26,8.26,0,0,0,0-1,26.55,26.55,0,0,0-25.75-25.53v66.58c2.62-.44,6.12-1.5,12-2.88C265.63,478.32,277.27,468.71,277.27,457.1Z"/><path class="cls-23" d="M242.32,501v8.2c0,2.52,1.63,4.56,3.65,4.56h11c2,0,3.65-2,3.65-4.56V501Z"/><path class="cls-24" d="M242.32,501v8.2c0,2.52,1.63,4.56,3.65,4.56h5.41V501Z"/><path class="cls-23" d="M260.58,509.22V501h-9.19v12.76h5.54C258.94,513.79,260.58,511.74,260.58,509.22Z"/><path class="cls-25" d="M238.71,462.15s5,11.56,6.55,15.84,1.56,14.52,1.56,14.52"/><path class="cls-25" d="M264.55,462.15s-5,11.56-6.55,15.84-1.57,14.52-1.57,14.52"/><path class="cls-26" d="M237.77,491v13.29a4.56,4.56,0,0,0,4.56,4.56h18.23a4.56,4.56,0,0,0,4.56-4.56V491Z"/><ellipse class="cls-27" cx="243.69" cy="466.37" rx="2.65" ry="3.48"/><ellipse class="cls-27" cx="248.98" cy="466.37" rx="2.65" ry="3.48"/><ellipse class="cls-27" cx="254.28" cy="466.37" rx="2.65" ry="3.48"/><ellipse class="cls-27" cx="259.58" cy="466.37" rx="2.65" ry="3.48"/><path class="cls-28" d="M266.05,495a.64.64,0,0,1-.62.66H237.34a.64.64,0,0,1-.62-.66v-1.14a.64.64,0,0,1,.62-.66h28.09a.64.64,0,0,1,.62.66Z"/><path class="cls-28" d="M266.05,498.9a.64.64,0,0,1-.62.66H237.34a.64.64,0,0,1-.62-.66v-1.14a.64.64,0,0,1,.62-.66h28.09a.64.64,0,0,1,.62.66Z"/><path class="cls-28" d="M266.12,502.83a.64.64,0,0,1-.62.66H237.4a.64.64,0,0,1-.62-.66v-1.14a.64.64,0,0,1,.62-.66h28.09a.64.64,0,0,1,.62.66Z"/><circle class="cls-23" cx="417.48" cy="182.56" r="40.14"/><circle class="cls-7" cx="417.48" cy="182.56" r="33.44"/><path class="cls-24" d="M417.48,216a33.44,33.44,0,0,1,0-66.88h0v-6.7h0a40.14,40.14,0,1,0,0,80.28h0V216Z"/><path class="cls-16" d="M384,182.56A33.44,33.44,0,0,0,417.48,216h0V149.13h0A33.44,33.44,0,0,0,384,182.56Z"/><rect class="cls-29" x="415.68" y="146.66" width="3.6" height="9.27" rx="1.55" ry="1.55"/><rect class="cls-30" x="381.57" y="180.76" width="9.27" height="3.6" rx="1.55" ry="1.55"/><rect class="cls-30" x="444.11" y="180.76" width="9.27" height="3.6" rx="1.55" ry="1.55"/><rect class="cls-30" x="415.68" y="146.66" width="3.6" height="9.27" rx="1.55" ry="1.55"/><rect class="cls-30" x="415.68" y="209.2" width="3.6" height="9.27" rx="1.55" ry="1.55"/><path class="cls-28" d="M421.52,185.52a1.55,1.55,0,0,1,0,2.2l-.35.35a1.56,1.56,0,0,1-2.2,0l-20.15-20.15a1.55,1.55,0,0,1,0-2.2l.35-.35a1.55,1.55,0,0,1,2.2,0Z"/><path class="cls-28" d="M416.15,188.07a1.55,1.55,0,0,1-2.2,0l-.35-.35a1.55,1.55,0,0,1,0-2.2l14.89-14.89a1.55,1.55,0,0,1,2.2,0l.35.35a1.55,1.55,0,0,1,0,2.2Z"/><path class="cls-31" d="M103.74,341.6c-5.84,10.05-11.53,20.22-14.71,31L73.44,368c2.69-10.86,3.51-21.86,5.82-33.41A107,107,0,0,1,103.74,341.6Z"/><path class="cls-32" d="M88.11,347.66c4.64,1.33,7,5.29,5.4,8.58a8.08,8.08,0,0,1-9.36,4.07c-3.67-1.08-6.27-4.77-5.71-8.33S83.47,346.37,88.11,347.66Z"/><path class="cls-32" d="M73.44,368l4.16,1.23a4.43,4.43,0,0,0-3.2-5.39C74.11,365.19,73.8,366.58,73.44,368Z"/><path class="cls-4" d="M84.43,352.12c-.59-.12-1,.25-1.23,1.11s-.07,1.36.46,1.5a.77.77,0,0,0,.82-.22,8.65,8.65,0,0,0,1-1.52A3.46,3.46,0,0,1,87,351.44a2.82,2.82,0,0,1,2-.07,2.21,2.21,0,0,1,1.63,1.51,3.43,3.43,0,0,1-.14,2.3c-.75,1.89-2,2.72-3.72,2.51l.38-1.63a1.67,1.67,0,0,0,1.94-1.3c.35-.95.14-1.54-.65-1.77a1,1,0,0,0-.89.12,5.64,5.64,0,0,0-1.08,1.48A4.11,4.11,0,0,1,85,356.2a2.13,2.13,0,0,1-1.63.16,2.24,2.24,0,0,1-1.42-1.19,3.33,3.33,0,0,1-.15-2.35c.44-1.89,1.47-2.69,3-2.36Z"/><path class="cls-4" d="M82.17,352l-.37,1.55-1.67-.44.33-1.55Z"/><path class="cls-4" d="M92.1,354.87l-.62,1.48-1.62-.49.58-1.5Z"/><path class="cls-32" d="M88.78,372.5q.63-2.06,1.35-4.09a4.38,4.38,0,0,0-5.48,2.87Z"/><path class="cls-32" d="M103.36,341.44Q100.2,340.14,97,339c-1,2.33.82,5,4.16,6.29Z"/><path class="cls-32" d="M79.26,334.55q-.42,2.22-.8,4.4c3.53.64,6.78-.65,7.51-3.1Q82.66,335.09,79.26,334.55Z"/><path class="cls-32" d="M83.36,363a1.49,1.49,0,0,1,1,1.84,1.53,1.53,0,0,1-2.93-.86A1.49,1.49,0,0,1,83.36,363Z"/><path class="cls-32" d="M90.07,342c1.14.33,1.8,1.25,1.49,2a2,2,0,0,1-2.51.87c-1.07-.3-1.76-1.19-1.51-2A2,2,0,0,1,90.07,342Z"/><path class="cls-31" d="M100,336c-4.34,10.79-8.51,21.67-10.12,32.76l-16.09-2.33c1.1-11.13.34-22.14,1-33.9A107.1,107.1,0,0,1,100,336Z"/><path class="cls-32" d="M85.4,344.3c4.78.65,7.68,4.23,6.58,7.71a8.08,8.08,0,0,1-8.68,5.37c-3.78-.54-6.89-3.83-6.85-7.42S80.63,343.67,85.4,344.3Z"/><path class="cls-32" d="M73.79,366.48l4.29.62a4.43,4.43,0,0,0-3.93-4.88C74.06,363.64,73.95,365.06,73.79,366.48Z"/><path class="cls-4" d="M82.4,349.23c-.6,0-1,.4-1.06,1.27s.13,1.35.67,1.42a.77.77,0,0,0,.78-.33,8.45,8.45,0,0,0,.76-1.64,3.49,3.49,0,0,1,1.29-1.76,2.83,2.83,0,0,1,2-.35,2.21,2.21,0,0,1,1.83,1.26,3.42,3.42,0,0,1,.19,2.29c-.47,2-1.57,3-3.32,3,0-.56.09-1.11.14-1.67a1.68,1.68,0,0,0,1.74-1.57c.21-1-.09-1.54-.9-1.66a1,1,0,0,0-.87.25,5.65,5.65,0,0,0-.86,1.62,4.1,4.1,0,0,1-1.22,1.8,2.11,2.11,0,0,1-1.59.39,2.23,2.23,0,0,1-1.57-1,3.33,3.33,0,0,1-.48-2.3c.16-1.93,1.07-2.87,2.67-2.77C82.5,348.1,82.45,348.67,82.4,349.23Z"/><path class="cls-4" d="M80.15,349.46,80,351l-1.71-.19c0-.53.07-1.05.11-1.58Z"/><path class="cls-4" d="M90.39,350.85q-.2.78-.4,1.55l-1.67-.25c.12-.52.23-1,.36-1.56Z"/><path class="cls-32" d="M89.63,368.78q.33-2.13.75-4.24a4.38,4.38,0,0,0-5,3.62Z"/><path class="cls-32" d="M99.61,336q-3.31-.84-6.62-1.47c-.68,2.46,1.53,4.88,5,5.63Z"/><path class="cls-32" d="M74.77,332.58q-.1,2.26-.16,4.47c3.58.13,6.62-1.61,7-4.15Q78.21,332.63,74.77,332.58Z"/><path class="cls-32" d="M82.9,360.19a1.48,1.48,0,0,1,1.3,1.67,1.53,1.53,0,0,1-3-.43A1.49,1.49,0,0,1,82.9,360.19Z"/><path class="cls-32" d="M86.53,338.36c1.17.16,2,1,1.76,1.81a2,2,0,0,1-2.35,1.22c-1.11-.15-1.91-.93-1.78-1.77A2,2,0,0,1,86.53,338.36Z"/><path class="cls-17" d="M73.85,370.94,64.59,359s.21-3.68,6.19-3.48,12.35,2.78,17.94,3a47.5,47.5,0,0,0,15.18-2l-9.68,14.32Z"/><path class="cls-17" d="M106,392.82c-3-7.31-7.55-15-11.77-21.88H73.85a225.19,225.19,0,0,0-11.67,21.88c-7,15.4-3,20.48,5.22,24.12,6.12,2.7,27.25,2.7,33.37,0C109,413.3,111.1,405.37,106,392.82Z"/><path class="cls-33" d="M87.76,391.19c-.12-1.47-1.47-2.2-4.06-2.21s-3.9.68-3.9,2.06A1.91,1.91,0,0,0,81,392.89a26.15,26.15,0,0,0,5,1.32,10.88,10.88,0,0,1,5.56,2.45,5.85,5.85,0,0,1,1.76,4.44A5.46,5.46,0,0,1,90.54,406,12.29,12.29,0,0,1,84,407.71q-8.88,0-10.1-6.84l4.9-.38q.53,3.57,5.24,3.59,4.41,0,4.42-3a2.15,2.15,0,0,0-1.07-2,19,19,0,0,0-5-1.44,12,12,0,0,1-5.7-2.38,5.11,5.11,0,0,1-1.74-4,5.28,5.28,0,0,1,2.27-4.28q2.26-1.75,6.57-1.73,8.53,0,8.92,5.68Z"/><rect class="cls-33" x="81.88" y="381.36" width="4.24" height="4.67" transform="translate(-300 466.25) rotate(-89.78)"/><rect class="cls-33" x="81.8" y="406.69" width="4.25" height="4.67" transform="translate(-325.43 491.32) rotate(-89.77)"/><path class="cls-34" d="M96.11,371.38a.84.84,0,0,1-.91.74H72.58a.84.84,0,0,1-.91-.74v-.61a.84.84,0,0,1,.91-.74H95.2a.84.84,0,0,1,.91.74Z"/><path class="cls-24" d="M89.83,415.7c3.77,2.71,10.49.41,13-1.36,3.46-2.45,5-7.34,4.65-10.84a28.66,28.66,0,0,0-2.36-9.13,15.56,15.56,0,0,1-1,9.85c-2,4.72-7.83,5.92-11.69,6.36C89.72,410.88,86.08,413,89.83,415.7Z"/><path class="cls-24" d="M87.54,369.41s7.13-2.59,10.64-6.21c4-4.09-3.91,6.21-3.91,6.21Z"/><path class="cls-35" d="M67.32,359.9l.35.3c.22.19.52.48.87.83a30.53,30.53,0,0,1,4.37,5.75c.25.43.44.8.57,1.06s.19.42.19.42l-.35-.3c-.22-.19-.52-.48-.87-.83a27.15,27.15,0,0,1-2.35-2.75,28.75,28.75,0,0,1-2-3c-.25-.43-.44-.8-.57-1.06S67.32,359.9,67.32,359.9Z"/><path class="cls-35" d="M74.44,373.61s-.11.35-.34.94-.55,1.44-1,2.44c-.83,2-2,4.63-3.34,7.2s-2.7,5.1-3.82,7c-.56.93-1,1.69-1.39,2.22s-.56.83-.56.83.11-.35.33-.94.55-1.44,1-2.44c.83-2,2-4.63,3.34-7.2s2.7-5.1,3.83-7c.56-.93,1-1.69,1.39-2.22S74.44,373.61,74.44,373.61Z"/><circle class="cls-22" cx="64.07" cy="409.31" r="9.77" transform="translate(-346.58 354.52) rotate(-73.5)"/><circle class="cls-21" cx="64.07" cy="409.31" r="8" transform="translate(-346.59 354.56) rotate(-73.51)"/><path class="cls-36" d="M66.37,407.7c.13-.61-.33-1.08-1.39-1.39s-1.67-.19-1.84.37a.81.81,0,0,0,.29.9,11.18,11.18,0,0,0,1.9,1.15,4.64,4.64,0,0,1,2,1.67,2.49,2.49,0,0,1,.18,2,2.32,2.32,0,0,1-1.76,1.66,5.22,5.22,0,0,1-2.87-.09q-3.62-1.09-3.29-4l2,.44q-.21,1.52,1.7,2.1t2.16-.68a.92.92,0,0,0-.2-.94,8.1,8.1,0,0,0-1.87-1.19,5.1,5.1,0,0,1-2-1.66,2.18,2.18,0,0,1-.23-1.82,2.25,2.25,0,0,1,1.44-1.47,4.47,4.47,0,0,1,2.89.09q3.47,1,3,3.4Z"/><rect class="cls-36" x="64.84" y="403.19" width="1.81" height="1.99" transform="translate(-340.26 350.78) rotate(-73.27)"/><rect class="cls-36" x="61.74" y="413.52" width="1.81" height="1.99" transform="translate(-352.37 355.35) rotate(-73.29)"/><path class="cls-16" d="M56.52,407.22a4.5,4.5,0,0,1,.59-2.19,4.55,4.55,0,0,1,2.19-.59,4.21,4.21,0,0,1-2.19-.59,4.14,4.14,0,0,1-.59-2.19,4,4,0,0,1-.63,2.22,3.82,3.82,0,0,1-2.15.55,4.25,4.25,0,0,1,2.19.59A4.23,4.23,0,0,1,56.52,407.22Z"/><path class="cls-16" d="M58.38,407.65a1.61,1.61,0,0,1,.21-.78,1.62,1.62,0,0,1,.78-.21,1.51,1.51,0,0,1-.78-.21,1.47,1.47,0,0,1-.21-.78,1.45,1.45,0,0,1-.22.79,1.37,1.37,0,0,1-.77.2.81.81,0,0,1,1,1Z"/><path class="cls-16" d="M54.76,409.74a2.22,2.22,0,0,1,.29-1.08,2.26,2.26,0,0,1,1.08-.29,2.09,2.09,0,0,1-1.08-.29,2.05,2.05,0,0,1-.29-1.08,2,2,0,0,1-.31,1.1,1.88,1.88,0,0,1-1.06.27,2.11,2.11,0,0,1,1.08.29A2.09,2.09,0,0,1,54.76,409.74Z"/><path class="cls-37" d="M242,113.74c.5.82-.52,2.37-2.29,3.45l-1.5.91c-1.77,1.08-3.61,1.28-4.12.45L213.14,84.19c-.5-.83.52-2.37,2.29-3.45l1.5-.92c1.77-1.08,3.61-1.28,4.12-.45Z"/><path class="cls-38" d="M225.92,105.17l8.44-4-13.3-21.84c-.51-.83-2.35-.63-4.12.45l-1.5.92c-1.77,1.08-2.79,2.62-2.29,3.45Z"/><circle class="cls-24" cx="266.81" cy="68.79" r="5.72" transform="translate(-4 119.62) rotate(-25.09)"/><circle class="cls-24" cx="218.05" cy="91.62" r="5.72" transform="translate(-18.28 101.06) rotate(-25.08)"/><rect class="cls-39" x="215.33" y="78.1" width="13.62" height="24.81" transform="translate(-17.42 102.74) rotate(-25.09)"/><rect class="cls-37" x="217.96" y="89.92" width="13.62" height="12.41" transform="translate(-19.55 104.39) rotate(-25.09)"/><path class="cls-7" d="M273.33,89.12s-13.08,1.12-21.3,2.46c-4.89.79-18.46,7.28-18.46,7.28L223,76.38s13.26-6.07,16.85-9.25c7.66-6.8,16.09-15,16.09-15Z"/><path class="cls-39" d="M277.87,88.61a1.84,1.84,0,0,1-.78,2.47l-.75.35a1.84,1.84,0,0,1-2.4-1L255.39,50.79a1.83,1.83,0,0,1,.78-2.47l.75-.35a1.84,1.84,0,0,1,2.4,1Z"/><path class="cls-24" d="M228,87l5.57,11.89s13.57-6.48,18.46-7.28c8.22-1.33,21.3-2.46,21.3-2.46l-9-19.18Z"/><path class="cls-37" d="M264.35,69.94l9.53,20.36a1.94,1.94,0,0,0,2.47,1.14l.75-.35a1.94,1.94,0,0,0,.71-2.63l-9.53-20.35Z"/><path class="cls-40" d="M272.92,54.28a16,16,0,0,1,9.57,20.43"/><path class="cls-40" d="M278,40.11a31.08,31.08,0,0,1,18.64,39.81"/><path class="cls-40" d="M275.35,47.31a23.42,23.42,0,0,1,14,30"/><polygon class="cls-7" points="263.75 303.93 239.56 303.02 214.8 312.49 214.8 372.09 287.13 372.34 287.13 312.49 263.75 303.93"/><polygon class="cls-41" points="248.47 318.27 244.71 372.19 258.65 372.24 254.09 318.27 248.47 318.27"/><path class="cls-42" d="M301.18,404.46l-6.12,6.94s-1.37,2.76,0,3.61,3.15-1.32,3.15-1.32-2.29,5.5-2,7.64,2.68,3.63,4.42,4.16,5.24-.82,6.76-3.8,4.18-12.37,3.21-13.43S301.18,404.46,301.18,404.46Z"/><polygon class="cls-7" points="298.63 405.78 312.68 410.38 313.9 406.54 299.85 401.94 298.63 405.78"/><path class="cls-43" d="M251.2,305.91s-5.61.12-7,2.67c-3,5.66,4.25,10.5,4.25,10.5h5.62s6-4.39,4.31-8.65C257,307,251.2,305.91,251.2,305.91Z"/><polygon class="cls-17" points="232.27 303.83 240.96 316.02 251.51 305.45 233.86 293.76 232.27 303.83"/><polygon class="cls-17" points="250.88 305.45 261.44 316.02 269.33 304.64 268.53 293.76 250.88 305.45"/><path class="cls-42" d="M210.35,251.9c-4,1.17-3,7.2-3,9.44s3.31,10.19,5.52,11.06c5.61,2.21,5.61-6.11,5.61-6.11v-9.68S214.3,250.73,210.35,251.9Z"/><path class="cls-42" d="M290.83,251.64c-4-1.17-8.1,4.72-8.1,4.72V266s0,8.58,5.61,6.11c2.18-1,5.52-8.82,5.52-11.06S294.78,252.81,290.83,251.64Z"/><path class="cls-42" d="M260.57,209.48H240.94c-14.25,0-25.81,15.31-25.81,34.21v26c0,18.89,19.38,32.13,25.81,34.21a32.41,32.41,0,0,0,19.64,0c6.75-2,25.81-15.32,25.81-34.21v-26C286.38,224.8,274.83,209.48,260.57,209.48Z"/><path class="cls-44" d="M215.12,258.49c2.63-2.16,9.2-38.55,9.54-40.47l-11.26,3.65S212.82,260.37,215.12,258.49Z"/><path class="cls-44" d="M278,220.29s6.68,37.2,8.75,39S288.28,226,288.28,226Z"/><path class="cls-45" d="M297.26,212.76c-5.55.81-10.84.4-13.62-.81A12,12,0,0,0,287,202.3c-4.24,1.74-9,4.74-20.82,1.1-4.41-1.35-24-8.77-39.94,0-11.1,6.11-12.22,14-14.6,20.25,25,6.09,27.27,10.86,48.27,11.3,11,.23,17.45-1.89,26.18-6.42S298.53,212.57,297.26,212.76Z"/><path class="cls-26" d="M196,361.35c1.59-17.23,16.83-27.46,16.83-27.46L233.86,303s-20.14,2.87-25.85,5.56c-5,2.35-23.29,22.26-27.94,44.79l9,15.67a5.9,5.9,0,0,0,5.1,3h2A54.79,54.79,0,0,1,196,361.35Z"/><path class="cls-26" d="M215.92,306.24l-3.51,27s.39,18.84.88,38.81l39,.14L233.86,303Z"/><polygon class="cls-28" points="228.54 303.02 223.87 322.58 231.43 330.12 230.75 336.04 251.13 372.21 252.31 372.22 232.85 298.85 228.54 303.02"/><path class="cls-26" d="M307.37,372.41H306c-1.65,14.9-7.71,30.13-7.71,30.13l15.9,5.12s9-17.77,9-44.15A50.41,50.41,0,0,0,322.07,353l-9.59,16.48A5.9,5.9,0,0,1,307.37,372.41Z"/><path class="cls-26" d="M294.22,308.59c-5.71-2.69-25.85-5.56-25.85-5.56l21.08,30.87s15.24,10.23,16.83,27.46A55.54,55.54,0,0,1,306,372.4h1.33a5.9,5.9,0,0,0,5.1-2.93L322.07,353C317.3,330.62,299.16,310.92,294.22,308.59Z"/><path class="cls-26" d="M286.31,306.24,268.37,303l-18.44,69.19,39,.14c.49-20.07.88-39.07.88-39.07Z"/><polygon class="cls-28" points="270.8 330.12 278.36 322.58 273.69 303.02 269.38 298.85 249.93 372.21 251.33 372.21 273.87 336.04 270.8 330.12"/><polygon class="cls-7" points="55.89 145.05 55.89 221.49 113.04 221.49 113.04 157.6 100.48 145.05 55.89 145.05"/><polygon class="cls-24" points="113.04 157.6 100.48 145.05 100.48 157.6 113.04 157.6"/><rect class="cls-46" x="64.98" y="166.63" width="39.81" height="3.46"/><rect class="cls-47" x="64.98" y="173.02" width="39.81" height="3.47"/><rect class="cls-47" x="64.98" y="179.41" width="39.81" height="3.46"/><rect class="cls-46" x="65.36" y="155.86" width="23.62" height="3.47"/><rect class="cls-47" x="64.98" y="185.8" width="39.81" height="3.47"/><rect class="cls-46" x="64.98" y="195.43" width="39.81" height="3.46"/><rect class="cls-47" x="64.98" y="201.82" width="39.81" height="3.47"/><rect class="cls-47" x="64.98" y="208.22" width="39.81" height="3.46"/><path class="cls-48" d="M111.14,214.7a1.55,1.55,0,0,1,0-2.19l6.95-6.95a1.55,1.55,0,0,1,2.19,0l5.41,5.41a1.55,1.55,0,0,1,0,2.19l-6.95,6.95a1.55,1.55,0,0,1-2.19,0Z"/><polygon class="cls-49" points="91.79 177.08 76.02 170.93 82.57 186.3 91.79 177.08"/><polygon class="cls-26" points="81.52 173.08 76.02 170.93 78.31 176.3 81.52 173.08"/><rect class="cls-50" x="94.97" y="175.76" width="13.04" height="40.47" transform="translate(-108.85 129.12) rotate(-44.99)"/><rect class="cls-7" x="110.46" y="209.81" width="13.04" height="3.36" transform="translate(-115.28 144.66) rotate(-45)"/><rect class="cls-51" x="95.91" y="178.05" width="6.58" height="40.47" transform="translate(-111.15 128.22) rotate(-45)"/></g></g></svg>