<svg xmlns="http://www.w3.org/2000/svg" viewBox="0 0 648.43 430.24"><defs><style>.cls-1{isolation:isolate;}.cls-2{opacity:0.4;}.cls-3{fill:#fff;}.cls-15,.cls-17,.cls-18,.cls-4,.cls-6{fill:none;}.cls-18,.cls-4,.cls-6{stroke:#fff;}.cls-15,.cls-17,.cls-4,.cls-6{stroke-miterlimit:10;}.cls-4{stroke-width:1.36px;}.cls-5{opacity:0.15;}.cls-6{stroke-width:1.51px;}.cls-7{opacity:0.1;mix-blend-mode:multiply;}.cls-8{fill:#e6e6e6;}.cls-9{fill:#8e6ee5;}.cls-10{fill:#7647dd;}.cls-11{fill:#268fef;}.cls-12{fill:#075edb;}.cls-13{fill:#5eaef7;}.cls-14{fill:#efcb12;}.cls-15{stroke:#000;}.cls-15,.cls-17,.cls-18{stroke-linecap:round;}.cls-15,.cls-17{stroke-width:1.07px;}.cls-16{fill:#ac94f7;}.cls-17{stroke:#4650e0;}.cls-18{stroke-linejoin:round;stroke-width:10.37px;}</style></defs><title>KRecurso 2d</title><g class="cls-1"><g id="Capa_2" data-name="Capa 2"><g id="Artboard_2" data-name="Artboard 2"><g class="cls-2"><circle class="cls-3" cx="36.88" cy="52.82" r="6.21"/><circle class="cls-3" cx="6.21" cy="323.07" r="6.21"/><circle class="cls-3" cx="179.8" cy="185.88" r="6.21"/><circle class="cls-3" cx="448.85" cy="303.14" r="6.21"/><circle class="cls-3" cx="642.21" cy="151.13" r="6.21"/><circle class="cls-3" cx="458.19" cy="19.5" r="6.21"/><circle class="cls-3" cx="572.46" cy="424.02" r="6.21"/><circle class="cls-3" cx="211.87" cy="405.19" r="6.21"/><line class="cls-4" x1="36.88" y1="52.82" x2="179.8" y2="185.88"/><line class="cls-4" x1="179.8" y1="185.88" x2="6.21" y2="323.07"/><line class="cls-4" x1="6.21" y1="323.07" x2="211.87" y2="405.19"/><line class="cls-4" x1="211.87" y1="405.19" x2="448.85" y2="303.13"/><line class="cls-4" x1="448.85" y1="303.13" x2="572.46" y2="424.02"/><line class="cls-4" x1="572.46" y1="424.02" x2="642.21" y2="151.13"/><line class="cls-4" x1="572.46" y1="424.02" x2="458.19" y2="19.5"/><line class="cls-4" x1="458.19" y1="19.5" x2="642.21" y2="151.13"/><line class="cls-4" x1="458.19" y1="19.5" x2="448.85" y2="303.13"/><line class="cls-4" x1="458.19" y1="19.5" x2="179.8" y2="185.88"/><line class="cls-4" x1="36.88" y1="52.82" x2="6.21" y2="323.07"/><line class="cls-4" x1="36.88" y1="52.82" x2="642.21" y2="151.13"/><line class="cls-4" x1="211.87" y1="405.19" x2="36.88" y2="52.82"/><line class="cls-4" x1="211.87" y1="405.19" x2="458.19" y2="19.5"/><line class="cls-4" x1="448.85" y1="303.13" x2="179.8" y2="185.88"/><line class="cls-4" x1="179.8" y1="185.88" x2="642.21" y2="151.13"/><line class="cls-4" x1="6.21" y1="323.07" x2="448.85" y2="303.13"/></g><g class="cls-5"><circle class="cls-3" cx="602.37" cy="31.96" r="6.03"/><circle class="cls-3" cx="596.34" cy="339.32" r="6.03"/><circle class="cls-3" cx="463.97" cy="193.22" r="6.03"/><circle class="cls-3" cx="185.75" cy="288.91" r="7.5"/><circle class="cls-3" cx="43.1" cy="204.07" r="6.03"/><circle class="cls-3" cx="151.73" cy="6.03" r="6.03"/><circle class="cls-3" cx="92.93" cy="411.97" r="6.03"/><circle class="cls-3" cx="436.6" cy="418" r="6.03"/><line class="cls-6" x1="602.37" y1="31.96" x2="463.97" y2="193.22"/><line class="cls-6" x1="463.97" y1="193.22" x2="596.34" y2="339.33"/><line class="cls-6" x1="596.34" y1="339.33" x2="436.6" y2="418"/><line class="cls-6" x1="436.6" y1="418" x2="185.75" y2="288.91"/><line class="cls-6" x1="185.75" y1="288.91" x2="92.93" y2="411.97"/><line class="cls-6" x1="92.93" y1="411.97" x2="43.1" y2="204.07"/><line class="cls-6" x1="92.93" y1="411.97" x2="151.73" y2="6.03"/><line class="cls-6" x1="151.73" y1="6.03" x2="43.1" y2="204.07"/><line class="cls-6" x1="151.73" y1="6.03" x2="185.75" y2="288.91"/><line class="cls-6" x1="151.73" y1="6.03" x2="463.97" y2="193.22"/><line class="cls-6" x1="602.37" y1="31.96" x2="596.34" y2="339.33"/><line class="cls-6" x1="602.37" y1="31.96" x2="43.1" y2="204.07"/><line class="cls-6" x1="436.6" y1="418" x2="602.37" y2="31.96"/><line class="cls-6" x1="436.6" y1="418" x2="151.73" y2="6.03"/><line class="cls-6" x1="185.75" y1="288.91" x2="463.97" y2="193.22"/><line class="cls-6" x1="463.97" y1="193.22" x2="43.1" y2="204.07"/><line class="cls-6" x1="596.34" y1="339.33" x2="185.75" y2="288.91"/></g><g class="cls-7"><path d="M375.69,66.6a12.6,12.6,0,0,0-18.7-11s0-.06,0-.1a25.19,25.19,0,0,0-49.3-7.28,18.51,18.51,0,0,0-25.62,17.09v6.6A12.42,12.42,0,0,0,294.5,84.3h68.77a12.42,12.42,0,0,0,12.42-12.42Z"/></g><path class="cls-3" d="M372,63.49a12.6,12.6,0,0,0-18.7-11s0-.06,0-.1A25.19,25.19,0,0,0,304,45.07a18.51,18.51,0,0,0-25.62,17.09v6.6a12.42,12.42,0,0,0,12.42,12.42h68.77A12.42,12.42,0,0,0,372,68.77Z"/><g class="cls-7"><path d="M323.1,56.73a7.32,7.32,0,0,0-10.85-6.41s0,0,0-.06A14.62,14.62,0,0,0,283.64,46,10.74,10.74,0,0,0,268.77,56v3.83A7.21,7.21,0,0,0,276,67h39.91a7.21,7.21,0,0,0,7.21-7.21Z"/></g><path class="cls-3" d="M319.41,53a7.32,7.32,0,0,0-10.85-6.41s0,0,0-.06A14.62,14.62,0,0,0,280,42.36a10.74,10.74,0,0,0-14.87,9.92v3.83a7.21,7.21,0,0,0,7.21,7.21H312.2a7.21,7.21,0,0,0,7.21-7.21Z"/><g class="cls-7"><path d="M153.07,45.7H121.41a3.72,3.72,0,0,0-3.72,3.72v52.42a3.72,3.72,0,0,0,3.72,3.72H161a3.72,3.72,0,0,0,3.72-3.72V57.34Z"/><path d="M153.07,53.62a3.72,3.72,0,0,0,3.72,3.72h7.93L153.07,45.7Z"/><path d="M138.67,59.22c-4.68-1.4-6.06-1-6.06-1V72.62a7.46,7.46,0,0,0-2.62-.45c-2.74,0-5,1.35-5,3s2.22,3,5,3,5-1.35,5-3a2,2,0,0,0-.28-1V63.85a7.67,7.67,0,0,1,5.23,1.51,5,5,0,0,0,6.34,0C142.25,65.21,142.48,60.35,138.67,59.22Z"/><path d="M153.47,77l-14.05-7.22V84.16a7.47,7.47,0,0,0-2.62-.45c-2.74,0-5,1.35-5,3s2.22,3,5,3,5-1.35,5-3a2,2,0,0,0-.27-1V78.06l9.92,5.09v7.37a7.47,7.47,0,0,0-2.62-.45c-2.74,0-5,1.35-5,3s2.22,3,5,3,5-1.35,5-3a2,2,0,0,0-.28-1Z"/></g><path class="cls-3" d="M148.54,41.17H116.89a3.72,3.72,0,0,0-3.72,3.72V97.31a3.72,3.72,0,0,0,3.72,3.72h39.58a3.72,3.72,0,0,0,3.72-3.72V52.82Z"/><path class="cls-8" d="M148.54,49.1a3.72,3.72,0,0,0,3.72,3.72h7.93L148.54,41.17Z"/><path class="cls-9" d="M134.15,54.7c-4.68-1.39-6.06-1-6.06-1V68.1a7.46,7.46,0,0,0-2.62-.45c-2.74,0-5,1.35-5,3s2.22,3,5,3,5-1.35,5-3a2,2,0,0,0-.28-1V59.33a7.67,7.67,0,0,1,5.23,1.51,5,5,0,0,0,6.34,0C137.73,60.69,138,55.83,134.15,54.7Z"/><path class="cls-10" d="M149,72.48,134.9,65.26V79.64a7.47,7.47,0,0,0-2.62-.45c-2.74,0-5,1.35-5,3s2.22,3,5,3,5-1.35,5-3a2,2,0,0,0-.27-1V73.54l9.92,5.09V86a7.47,7.47,0,0,0-2.62-.45c-2.74,0-5,1.35-5,3s2.22,3,5,3,5-1.35,5-3a2,2,0,0,0-.28-1Z"/><g class="cls-7"><rect x="100.19" y="209.42" width="73.16" height="97.94" rx="4.32" ry="4.32"/><rect x="107.63" y="218.35" width="58.28" height="77.2" rx="4.32" ry="4.32"/><circle cx="136.77" cy="214.38" r="1.78"/><circle cx="136.77" cy="301.51" r="3.96"/><path d="M150.29,256.12H123.36a3.82,3.82,0,0,0-3.81,3.81v22.62a3.82,3.82,0,0,0,3.81,3.81h26.94a3.82,3.82,0,0,0,3.81-3.81V259.93A3.82,3.82,0,0,0,150.29,256.12Z"/><path d="M148.47,256.12h-3.36V244.86a6.72,6.72,0,0,0-6.72-6.72h-3.24a6.72,6.72,0,0,0-6.72,6.72V256.1h-3.36V244.86a10.08,10.08,0,0,1,10.07-10.07h3.24c5.55,0,10.07,4.52,10.07,11.23Z"/><path d="M143.2,277.28l-4.13-7.15a4.84,4.84,0,1,0-4.5,0l-4.13,7.15c-.46.79-.08,1.44.83,1.44h11.09C143.29,278.72,143.66,278.07,143.2,277.28Z"/></g><rect class="cls-11" x="94.84" y="204.07" width="73.16" height="97.94" rx="4.32" ry="4.32"/><rect class="cls-12" x="102.27" y="213" width="58.28" height="77.2" rx="4.32" ry="4.32"/><circle class="cls-13" cx="131.41" cy="209.02" r="1.78"/><circle class="cls-13" cx="131.41" cy="296.15" r="3.96"/><path class="cls-14" d="M144.94,250.76H118a3.82,3.82,0,0,0-3.81,3.81v22.62A3.82,3.82,0,0,0,118,281h26.94a3.82,3.82,0,0,0,3.81-3.81V254.57A3.82,3.82,0,0,0,144.94,250.76Z"/><path class="cls-14" d="M143.11,250.76h-3.36V239.5a6.72,6.72,0,0,0-6.72-6.72h-3.24a6.72,6.72,0,0,0-6.72,6.72v11.25h-3.36V239.5a10.08,10.08,0,0,1,10.07-10.07H133c5.55,0,10.07,4.52,10.07,11.23Z"/><path class="cls-12" d="M137.85,271.92l-4.13-7.15a4.84,4.84,0,1,0-4.5,0l-4.13,7.15c-.46.79-.08,1.44.83,1.44H137C137.93,273.36,138.31,272.71,137.85,271.92Z"/><g class="cls-7"><path d="M566.08,109V64.31a4.76,4.76,0,0,0-2.42-4.13L536.74,87.09,563,113.4A4.77,4.77,0,0,0,566.08,109Z"/><path d="M483.18,60.18a4.75,4.75,0,0,0-2.42,4.13V109a4.77,4.77,0,0,0,3,4.44L510.1,87.09Z"/><path d="M561.3,113.74a4.79,4.79,0,0,0,1.75-.34L536.74,87.09,526.8,97A4.77,4.77,0,0,1,520,97l-9.95-9.95L483.79,113.4a4.79,4.79,0,0,0,1.75.34Z"/><path d="M526.8,97l36.86-36.86a4.74,4.74,0,0,0-2.35-.64H485.54a4.75,4.75,0,0,0-2.35.64L520,97A4.77,4.77,0,0,0,526.8,97Z"/><path d="M529.56,88.76a13.78,13.78,0,0,1-6.73,1.51c-6.2,0-11.46-4.54-11.46-11.8,0-7.79,5.41-14.52,13.81-14.52,6.58,0,11,4.61,11,10.93,0,5.67-3.18,9-6.73,9-1.51,0-2.91-1-2.8-3.33h-.15a5.94,5.94,0,0,1-5.33,3.33c-2.19,0-4.08-1.78-4.08-4.76a8.93,8.93,0,0,1,9-9,10,10,0,0,1,4,.79l-1.28,6.85c-.57,2.88-.11,4.2,1.13,4.24,1.93,0,4.09-2.53,4.09-6.92,0-5.48-3.29-9.42-9.15-9.42-6.16,0-11.35,4.88-11.35,12.56,0,6.32,4.12,10.21,9.72,10.21A11.8,11.8,0,0,0,529,87.14Zm-2.08-16.34a6.53,6.53,0,0,0-1.89-.27c-3.33,0-6,3.14-6,6.81,0,1.66.83,2.87,2.5,2.87,2.19,0,4.2-2.8,4.61-5.14Z"/></g><path class="cls-11" d="M560.72,103.6V59a4.76,4.76,0,0,0-2.42-4.13L531.39,81.73,557.69,108A4.77,4.77,0,0,0,560.72,103.6Z"/><path class="cls-11" d="M477.83,54.82A4.75,4.75,0,0,0,475.4,59V103.6a4.77,4.77,0,0,0,3,4.44l26.31-26.31Z"/><path class="cls-12" d="M555.95,108.38a4.79,4.79,0,0,0,1.75-.34L531.39,81.73l-9.95,9.95a4.77,4.77,0,0,1-6.75,0l-9.95-9.95L478.43,108a4.79,4.79,0,0,0,1.75.34Z"/><path class="cls-13" d="M521.44,91.68,558.3,54.82a4.74,4.74,0,0,0-2.35-.64H480.18a4.75,4.75,0,0,0-2.35.64l36.86,36.86A4.77,4.77,0,0,0,521.44,91.68Z"/><path class="cls-3" d="M524.2,83.41a13.78,13.78,0,0,1-6.73,1.51c-6.2,0-11.46-4.54-11.46-11.8,0-7.79,5.41-14.52,13.81-14.52,6.58,0,11,4.61,11,10.93,0,5.67-3.18,9-6.73,9-1.51,0-2.91-1-2.8-3.33h-.15a5.94,5.94,0,0,1-5.33,3.33c-2.19,0-4.08-1.78-4.08-4.76a8.93,8.93,0,0,1,9-9,10,10,0,0,1,4,.79l-1.28,6.85c-.57,2.88-.11,4.2,1.13,4.24,1.93,0,4.09-2.53,4.09-6.92,0-5.48-3.29-9.42-9.15-9.42-6.16,0-11.35,4.88-11.35,12.56,0,6.32,4.12,10.21,9.72,10.21a11.8,11.8,0,0,0,5.71-1.32Zm-2.08-16.34a6.53,6.53,0,0,0-1.89-.27c-3.33,0-6,3.14-6,6.81,0,1.66.83,2.87,2.5,2.87,2.19,0,4.2-2.8,4.61-5.14Z"/><g class="cls-7"><rect x="157.37" y="284.6" width="42.37" height="66.96" rx="4.29" ry="4.29"/><path d="M183.68,346.62a2.36,2.36,0,0,1-2.36,2.36h-5.54a2.36,2.36,0,0,1-2.36-2.36h0a2.36,2.36,0,0,1,2.36-2.36h5.54a2.36,2.36,0,0,1,2.36,2.36Z"/><path d="M183.68,288.46a1.29,1.29,0,0,1-1.29,1.29H174.7a1.29,1.29,0,0,1-1.29-1.29h0a1.29,1.29,0,0,1,1.29-1.29h7.69a1.29,1.29,0,0,1,1.29,1.29Z"/><rect x="162.67" y="291.9" width="31.76" height="49.84" rx="4.29" ry="4.29"/><path d="M189,325.19a10.41,10.41,0,0,1-10.41,10.41h0a10.41,10.41,0,0,1-10.41-10.41v-5.78A10.41,10.41,0,0,1,178.62,309h0A10.41,10.41,0,0,1,189,319.41Z"/><path class="cls-15" d="M180.4,329.28c-1.57,1.55-4.46-.36-5.4-4.38a10.67,10.67,0,0,1,2.32-8.72c1-1,3.4-.41,4.31,2.71.66,2.25-.45,6.34-1.24,7.15-1.31,1.34-2.94-1.09-3.16-3a6.37,6.37,0,0,1,1-4c.41-.41,1.82,1,1.33,3.25"/><path class="cls-15" d="M175.94,313.69a9.84,9.84,0,0,0-3.34,6.5"/><path class="cls-15" d="M182.26,327.22c2.77-3.14,2.95-10-.65-13.53"/><path class="cls-15" d="M172.83,324.19c0,1.14.73,4.67,2.17,6.34"/></g><rect class="cls-9" x="152.01" y="279.24" width="42.37" height="66.96" rx="4.29" ry="4.29"/><path class="cls-16" d="M178.33,341.27a2.36,2.36,0,0,1-2.36,2.36h-5.54a2.36,2.36,0,0,1-2.36-2.36h0a2.36,2.36,0,0,1,2.36-2.36H176a2.36,2.36,0,0,1,2.36,2.36Z"/><path class="cls-16" d="M178.33,283.11a1.29,1.29,0,0,1-1.29,1.29h-7.69a1.29,1.29,0,0,1-1.29-1.29h0a1.29,1.29,0,0,1,1.29-1.29H177a1.29,1.29,0,0,1,1.29,1.29Z"/><rect class="cls-10" x="157.31" y="286.54" width="31.76" height="49.84" rx="4.29" ry="4.29"/><path class="cls-14" d="M183.67,319.84a10.41,10.41,0,0,1-10.41,10.41h0a10.41,10.41,0,0,1-10.41-10.41v-5.78a10.41,10.41,0,0,1,10.41-10.41h0a10.41,10.41,0,0,1,10.41,10.41Z"/><path class="cls-17" d="M175,323.92c-1.57,1.55-4.46-.36-5.4-4.38a10.67,10.67,0,0,1,2.32-8.72c1-1,3.4-.41,4.31,2.71.66,2.25-.45,6.34-1.24,7.15-1.31,1.34-2.94-1.09-3.16-3a6.37,6.37,0,0,1,1-4c.41-.41,1.82,1,1.33,3.25"/><path class="cls-17" d="M170.59,308.33a9.84,9.84,0,0,0-3.34,6.5"/><path class="cls-17" d="M176.9,321.87c2.77-3.14,2.95-10-.65-13.53"/><path class="cls-17" d="M167.47,318.84c0,1.14.73,4.67,2.17,6.34"/><g class="cls-7"><rect x="497.2" y="306.47" width="120.55" height="81.18" rx="4.86" ry="4.86"/><rect x="504.98" y="314.25" width="105" height="65.62" rx="2.92" ry="2.92"/><path d="M628.57,383.62c0,2.22-2.18,4-4.86,4H491.25c-2.68,0-4.86-1.8-4.86-4v-6c0-2.23,2.18-4,4.86-4H623.71c2.69,0,4.86,1.8,4.86,4Z"/><path d="M568.17,379.75c0,1.82-1.91,3.28-4.25,3.28H551c-2.35,0-4.26-1.47-4.26-3.28h0c0-1.81,1.91-3.28,4.26-3.28h12.88c2.35,0,4.25,1.47,4.25,3.28Z"/><circle cx="557.48" cy="310.34" r="2.42"/><circle cx="557.48" cy="331.84" r="12.32"/><path d="M563.6,335a3.66,3.66,0,0,0-3.66-3.66h-1a4,4,0,1,0-2.92,0h-1a3.66,3.66,0,0,0-3.66,3.66l-.84,5h13.93Z"/><path d="M586.49,358.18A6.51,6.51,0,0,1,580,364.7h-44.6a6.52,6.52,0,0,1-6.51-6.52h0a6.51,6.51,0,0,1,6.51-6.51H580a6.51,6.51,0,0,1,6.51,6.51Z"/><polygon points="540.96 355.92 540.11 354.72 537.23 356.77 537.23 353.23 535.77 353.23 535.77 356.77 532.88 354.72 532.03 355.92 535.23 358.19 532.03 360.46 532.88 361.65 535.77 359.6 535.77 363.14 537.23 363.14 537.23 359.6 540.11 361.65 540.96 360.46 537.76 358.19 540.96 355.92"/><polygon points="551.49 355.92 550.64 354.72 547.76 356.77 547.76 353.23 546.3 353.23 546.3 356.77 543.41 354.72 542.56 355.92 545.76 358.19 542.56 360.46 543.41 361.65 546.3 359.6 546.3 363.14 547.76 363.14 547.76 359.6 550.64 361.65 551.49 360.46 548.29 358.19 551.49 355.92"/><polygon points="562.02 355.92 561.17 354.72 558.29 356.77 558.29 353.23 556.83 353.23 556.83 356.77 553.94 354.72 553.09 355.92 556.29 358.19 553.09 360.46 553.94 361.65 556.83 359.6 556.83 363.14 558.29 363.14 558.29 359.6 561.17 361.65 562.02 360.46 558.82 358.19 562.02 355.92"/><polygon points="572.55 355.92 571.71 354.72 568.82 356.77 568.82 353.23 567.36 353.23 567.36 356.77 564.47 354.72 563.62 355.92 566.83 358.19 563.62 360.46 564.47 361.65 567.36 359.6 567.36 363.14 568.82 363.14 568.82 359.6 571.71 361.65 572.55 360.46 569.35 358.19 572.55 355.92"/><polygon points="583.08 355.92 582.24 354.72 579.35 356.77 579.35 353.23 577.89 353.23 577.89 356.77 575 354.72 574.16 355.92 577.36 358.19 574.16 360.46 575 361.65 577.89 359.6 577.89 363.14 579.35 363.14 579.35 359.6 582.24 361.65 583.08 360.46 579.88 358.19 583.08 355.92"/></g><rect class="cls-9" x="491.84" y="301.11" width="120.55" height="81.18" rx="4.86" ry="4.86"/><rect class="cls-10" x="499.62" y="308.89" width="105" height="65.62" rx="2.92" ry="2.92"/><path class="cls-16" d="M623.21,378.26c0,2.22-2.18,4-4.86,4H485.89c-2.68,0-4.86-1.8-4.86-4v-6c0-2.23,2.18-4,4.86-4H618.35c2.69,0,4.86,1.8,4.86,4Z"/><path class="cls-9" d="M562.81,374.39c0,1.82-1.91,3.28-4.25,3.28H545.68c-2.35,0-4.26-1.47-4.26-3.28h0c0-1.81,1.91-3.28,4.26-3.28h12.88c2.35,0,4.25,1.47,4.25,3.28Z"/><circle class="cls-16" cx="552.12" cy="304.99" r="2.42"/><circle class="cls-16" cx="552.12" cy="326.48" r="12.32"/><path class="cls-3" d="M558.25,329.65a3.66,3.66,0,0,0-3.66-3.66h-1a4,4,0,1,0-2.92,0h-1a3.66,3.66,0,0,0-3.66,3.66l-.84,5h13.93Z"/><path class="cls-3" d="M581.13,352.83a6.51,6.51,0,0,1-6.51,6.52H530a6.52,6.52,0,0,1-6.51-6.52h0a6.51,6.51,0,0,1,6.51-6.51h44.6a6.51,6.51,0,0,1,6.51,6.51Z"/><polygon class="cls-16" points="535.61 350.56 534.76 349.37 531.87 351.42 531.87 347.87 530.41 347.87 530.41 351.42 527.52 349.37 526.67 350.56 529.88 352.83 526.67 355.11 527.52 356.3 530.41 354.25 530.41 357.78 531.87 357.78 531.87 354.25 534.76 356.3 535.61 355.11 532.4 352.83 535.61 350.56"/><polygon class="cls-16" points="546.13 350.56 545.29 349.37 542.4 351.42 542.4 347.87 540.94 347.87 540.94 351.42 538.05 349.37 537.21 350.56 540.41 352.83 537.21 355.11 538.05 356.3 540.94 354.25 540.94 357.78 542.4 357.78 542.4 354.25 545.29 356.3 546.13 355.11 542.93 352.83 546.13 350.56"/><polygon class="cls-16" points="556.67 350.56 555.82 349.37 552.93 351.42 552.93 347.87 551.47 347.87 551.47 351.42 548.58 349.37 547.74 350.56 550.94 352.83 547.74 355.11 548.58 356.3 551.47 354.25 551.47 357.78 552.93 357.78 552.93 354.25 555.82 356.3 556.67 355.11 553.47 352.83 556.67 350.56"/><polygon class="cls-16" points="567.2 350.56 566.35 349.37 563.46 351.42 563.46 347.87 562 347.87 562 351.42 559.12 349.37 558.27 350.56 561.47 352.83 558.27 355.11 559.12 356.3 562 354.25 562 357.78 563.46 357.78 563.46 354.25 566.35 356.3 567.2 355.11 564 352.83 567.2 350.56"/><polygon class="cls-16" points="577.73 350.56 576.88 349.37 574 351.42 574 347.87 572.53 347.87 572.53 351.42 569.64 349.37 568.8 350.56 572 352.83 568.8 355.11 569.64 356.3 572.53 354.25 572.53 357.78 574 357.78 574 354.25 576.88 356.3 577.73 355.11 574.53 352.83 577.73 350.56"/><g class="cls-7"><rect x="473.16" y="287.14" width="60.2" height="37.25" rx="3.72" ry="3.72"/><rect x="473.16" y="295.1" width="60.2" height="8.96"/><rect x="480.76" y="308.58" width="23.53" height="2.75"/><rect x="480.76" y="314.38" width="11.76" height="2.75"/></g><rect class="cls-3" x="467.81" y="281.78" width="60.2" height="37.25" rx="3.72" ry="3.72"/><rect class="cls-10" x="467.81" y="289.74" width="60.2" height="8.96"/><rect class="cls-9" x="475.4" y="303.22" width="23.53" height="2.75"/><rect class="cls-9" x="475.4" y="309.02" width="11.76" height="2.75"/><g class="cls-7"><rect x="535.55" y="173.07" width="19.2" height="31.89" rx="1.73" ry="1.73"/><rect x="537.86" y="180.43" width="3.81" height="4.04"/><rect x="548.63" y="180.43" width="3.81" height="4.04"/><rect x="528.52" y="189.02" width="33.26" height="55.24" rx="12.01" ry="12.01"/><rect x="531.53" y="192.02" width="27.26" height="49.23" rx="9.01" ry="9.01"/><path d="M553.33,220.9H537a1.64,1.64,0,0,0-1.63,1.63v9.69a1.64,1.64,0,0,0,1.63,1.63h16.35a1.64,1.64,0,0,0,1.63-1.63v-9.69A1.64,1.64,0,0,0,553.33,220.9Z"/><path d="M552.27,220.9h-1.44v-4.82a2.88,2.88,0,0,0-2.88-2.88h-5.59a2.88,2.88,0,0,0-2.88,2.88v4.82H538v-4.82a4.32,4.32,0,0,1,4.32-4.32h5.59c2.38,0,4.32,1.94,4.32,4.81Z"/><path d="M547.89,230.57l-1.77-3.07a2.07,2.07,0,1,0-1.93,0l-1.77,3.07c-.2.34,0,.62.36.62h4.75C547.93,231.19,548.09,230.91,547.89,230.57Z"/></g><rect class="cls-16" x="530.2" y="167.71" width="19.2" height="31.89" rx="1.73" ry="1.73"/><rect class="cls-10" x="532.51" y="175.07" width="3.81" height="4.04"/><rect class="cls-10" x="543.28" y="175.07" width="3.81" height="4.04"/><rect class="cls-10" x="523.17" y="183.66" width="33.26" height="55.24" rx="12.01" ry="12.01"/><rect class="cls-9" x="526.17" y="186.66" width="27.26" height="49.23" rx="9.01" ry="9.01"/><path class="cls-14" d="M548,215.55H531.62a1.64,1.64,0,0,0-1.63,1.63v9.69a1.64,1.64,0,0,0,1.63,1.63H548a1.64,1.64,0,0,0,1.63-1.63v-9.69A1.64,1.64,0,0,0,548,215.55Z"/><path class="cls-14" d="M546.91,215.55h-1.44v-4.82a2.88,2.88,0,0,0-2.88-2.88H537a2.88,2.88,0,0,0-2.88,2.88v4.82h-1.44v-4.82A4.32,4.32,0,0,1,537,206.4h5.59c2.38,0,4.32,1.94,4.32,4.81Z"/><path class="cls-10" d="M542.53,225.22l-1.77-3.07a2.07,2.07,0,1,0-1.93,0l-1.77,3.07c-.2.34,0,.62.36.62h4.75C542.57,225.84,542.73,225.56,542.53,225.22Z"/><g class="cls-7"><path d="M334.25,386.84l.11,10.35c0,3.64,9.59,6.49,21.33,6.37s21.23-3.17,21.19-6.8l-.11-10.35"/><path d="M335.77,384.38a3.28,3.28,0,0,0-1.52,2.45c0,3.64,9.59,6.49,21.33,6.37s21.22-3.16,21.19-6.8a3.14,3.14,0,0,0-1.4-2.3"/><path d="M334.09,371.27l.11,10.35c0,3.63,9.58,6.49,21.32,6.37s21.23-3.16,21.19-6.8l-.11-10.34"/><path d="M335.61,368.81a3.27,3.27,0,0,0-1.51,2.46c0,3.63,9.59,6.49,21.32,6.37s21.23-3.16,21.19-6.8a3.15,3.15,0,0,0-1.4-2.3"/><path d="M333.94,356l.1,10.35c0,3.64,9.59,6.49,21.32,6.37s21.23-3.17,21.19-6.8l-.11-10.35"/><ellipse cx="355.2" cy="355.79" rx="21.26" ry="6.58" transform="translate(-3.62 3.65) rotate(-0.59)"/><path d="M300.42,402.66l.13,12.81c0,4.5,11.86,8,26.4,7.88s26.28-3.92,26.23-8.42l-.13-12.81"/><path d="M302.3,399.62a4.06,4.06,0,0,0-1.88,3c0,4.5,11.87,8,26.4,7.88s26.27-3.92,26.23-8.42a3.88,3.88,0,0,0-1.73-2.84"/><path d="M300.22,383.38l.13,12.81c0,4.5,11.86,8,26.4,7.88S353,400.15,353,395.65l-.13-12.81"/><path d="M302.1,380.34a4,4,0,0,0-1.88,3c0,4.5,11.87,8,26.4,7.88s26.28-3.92,26.23-8.42a3.88,3.88,0,0,0-1.73-2.84"/><path d="M300,364.49l.13,12.81c0,4.5,11.87,8,26.4,7.88s26.28-3.92,26.23-8.42l-.13-12.81"/><ellipse cx="326.35" cy="364.22" rx="26.32" ry="8.15" transform="translate(-3.71 3.36) rotate(-0.59)"/><circle cx="354.86" cy="395.31" r="16.77"/><path d="M362.07,391.85H348.36a2,2,0,0,0-1.94,1.94V405.3a2,2,0,0,0,1.94,1.94h13.71A2,2,0,0,0,364,405.3V393.79A2,2,0,0,0,362.07,391.85Z"/><path d="M361.14,391.85h-1.71v-5.73A3.42,3.42,0,0,0,356,382.7h-1.65a3.42,3.42,0,0,0-3.42,3.42v5.73h-1.71v-5.73a5.13,5.13,0,0,1,5.13-5.13H356c2.83,0,5.13,2.3,5.13,5.72Z"/><path d="M358.46,402.62l-2.1-3.64a2.46,2.46,0,1,0-2.29,0l-2.1,3.64c-.23.4,0,.74.43.74H358C358.5,403.35,358.7,403,358.46,402.62Z"/></g><path class="cls-9" d="M328.9,381.48l.11,10.35c0,3.64,9.59,6.49,21.33,6.37s21.23-3.17,21.19-6.8L371.41,381"/><path class="cls-10" d="M330.41,379a3.28,3.28,0,0,0-1.52,2.45c0,3.64,9.59,6.49,21.33,6.37s21.22-3.16,21.19-6.8a3.14,3.14,0,0,0-1.4-2.3"/><path class="cls-9" d="M328.74,365.91l.11,10.35c0,3.63,9.58,6.49,21.32,6.37s21.23-3.16,21.19-6.8l-.11-10.34"/><path class="cls-10" d="M330.25,363.45a3.27,3.27,0,0,0-1.51,2.46c0,3.63,9.59,6.49,21.32,6.37s21.23-3.16,21.19-6.8a3.15,3.15,0,0,0-1.4-2.3"/><path class="cls-9" d="M328.58,350.65l.1,10.35c0,3.64,9.59,6.49,21.32,6.37s21.23-3.17,21.19-6.8l-.11-10.35"/><ellipse class="cls-10" cx="349.84" cy="350.43" rx="21.26" ry="6.58" transform="translate(-3.56 3.59) rotate(-0.59)"/><path class="cls-16" d="M295.06,397.3l.13,12.81c0,4.5,11.86,8,26.4,7.88s26.28-3.92,26.23-8.42l-.13-12.81"/><path class="cls-9" d="M296.94,394.26a4.06,4.06,0,0,0-1.88,3c0,4.5,11.87,8,26.4,7.88s26.27-3.92,26.23-8.42a3.88,3.88,0,0,0-1.73-2.84"/><path class="cls-16" d="M294.87,378l.13,12.81c0,4.5,11.86,8,26.4,7.88s26.28-3.92,26.24-8.42l-.13-12.81"/><path class="cls-9" d="M296.74,375a4,4,0,0,0-1.88,3c0,4.5,11.87,8,26.4,7.88s26.28-3.92,26.23-8.42a3.88,3.88,0,0,0-1.73-2.84"/><path class="cls-16" d="M294.67,359.13l.13,12.81c0,4.5,11.87,8,26.4,7.88s26.28-3.92,26.23-8.42l-.13-12.81"/><ellipse class="cls-9" cx="320.99" cy="358.86" rx="26.32" ry="8.15" transform="translate(-3.66 3.31) rotate(-0.59)"/><circle class="cls-10" cx="349.5" cy="389.96" r="16.77"/><path class="cls-14" d="M356.71,386.49H343a2,2,0,0,0-1.94,1.94v11.51a2,2,0,0,0,1.94,1.94h13.71a2,2,0,0,0,1.94-1.94V388.43A2,2,0,0,0,356.71,386.49Z"/><path class="cls-14" d="M355.78,386.49h-1.71v-5.73a3.42,3.42,0,0,0-3.42-3.42H349a3.42,3.42,0,0,0-3.42,3.42v5.73h-1.71v-5.73a5.13,5.13,0,0,1,5.13-5.13h1.65c2.83,0,5.13,2.3,5.13,5.72Z"/><path class="cls-10" d="M353.11,397.26l-2.1-3.64a2.46,2.46,0,1,0-2.29,0l-2.1,3.64c-.23.4,0,.74.43.74h5.65C353.15,398,353.34,397.66,353.11,397.26Z"/><g class="cls-7"><path d="M393.09,139.43a33.61,33.61,0,0,1,1.12-8.62c-20.73-3.53-48.33-6.63-63.56-6.63-14.75,0-41.12,2.9-61.6,6.3A33.61,33.61,0,0,1,238.35,173c2.19,29.69,9.84,70.07,18.86,91.86,14.94,36.11,66.6,67.85,73.45,73.45,6.84-5.6,58.51-37.35,73.45-73.45,9-21.83,16.7-62.32,18.87-92A33.62,33.62,0,0,1,393.09,139.43Z"/><path d="M330.66,141c-9.92,0-26.88,1.52-43.86,3.82a50.39,50.39,0,0,1-30.33,41c1.58,13.38,4,27.43,6.8,40.13,2.88,13,6.18,24.53,9.47,32.48,9.95,24,42,47.92,57.92,59.21l0,0V141Z"/><path d="M376.6,145.09C359.06,142.64,341,141,330.71,141V317.6c16-11.32,47.93-35.16,57.87-59.18,3.29-8,6.6-19.51,9.47-32.48a412.81,412.81,0,0,0,6.9-41A50.36,50.36,0,0,1,376.6,145.09Z"/></g><path class="cls-12" d="M388.31,134.64a33.61,33.61,0,0,1,1.12-8.62c-20.73-3.53-48.33-6.63-63.56-6.63-14.75,0-41.12,2.9-61.6,6.3a33.61,33.61,0,0,1-30.72,42.52c2.19,29.69,9.84,70.07,18.86,91.86,14.94,36.11,66.6,67.85,73.45,73.45,6.84-5.6,58.51-37.35,73.45-73.45,9-21.83,16.7-62.32,18.87-92A33.62,33.62,0,0,1,388.31,134.64Z"/><path class="cls-13" d="M325.88,136.2C316,136.2,299,137.72,282,140a50.39,50.39,0,0,1-30.33,41c1.58,13.38,4,27.43,6.8,40.13,2.88,13,6.18,24.53,9.47,32.48,9.95,24,42,47.92,57.92,59.21l0,0V136.2Z"/><path class="cls-11" d="M371.82,140.31c-17.54-2.45-35.58-4.1-45.89-4.11V312.82c16-11.32,47.93-35.16,57.87-59.18,3.29-8,6.6-19.51,9.47-32.48a412.81,412.81,0,0,0,6.9-41A50.36,50.36,0,0,1,371.82,140.31Z"/><polyline class="cls-18" points="306.45 212.65 325.81 237.67 359.74 193.82"/></g></g></g></svg>