<svg xmlns="http://www.w3.org/2000/svg" xmlns:xlink="http://www.w3.org/1999/xlink" viewBox="0 0 570.59 427"><defs><style>.cls-1{isolation:isolate;}.cls-2{fill:#98e9ed;}.cls-11,.cls-13,.cls-17,.cls-19,.cls-20,.cls-24,.cls-25,.cls-26,.cls-27,.cls-28,.cls-3,.cls-30,.cls-31,.cls-32,.cls-34,.cls-39,.cls-43,.cls-47,.cls-48,.cls-49,.cls-5,.cls-50,.cls-51,.cls-52,.cls-53,.cls-54,.cls-60,.cls-7{mix-blend-mode:multiply;}.cls-3{fill:url(#linear-gradient);}.cls-4{fill:#723f69;}.cls-5{fill:url(#linear-gradient-2);}.cls-6{fill:#aa74a0;}.cls-7{fill:url(#linear-gradient-3);}.cls-8{fill:#fff;}.cls-9{fill:#84557a;}.cls-10{fill:#eb5e5e;}.cls-11{fill:url(#linear-gradient-4);}.cls-12{fill:#f69696;}.cls-13{fill:url(#linear-gradient-5);}.cls-14{fill:#f17b7b;}.cls-15{fill:#f8dbbb;}.cls-16{fill:#d6955f;}.cls-17{fill:url(#linear-gradient-6);}.cls-18{fill:#efc092;}.cls-19{fill:url(#linear-gradient-7);}.cls-21{fill:url(#linear-gradient-8);}.cls-22{fill:#f8fbff;}.cls-23{fill:#bf7c4b;}.cls-24{fill:url(#linear-gradient-9);}.cls-25{fill:url(#linear-gradient-10);}.cls-26{fill:url(#linear-gradient-11);}.cls-27{fill:url(#linear-gradient-12);}.cls-28{fill:url(#linear-gradient-13);}.cls-29{fill:url(#linear-gradient-14);}.cls-30{fill:url(#linear-gradient-15);}.cls-31{fill:url(#linear-gradient-16);}.cls-32{fill:url(#linear-gradient-17);}.cls-33{fill:#93b9ce;}.cls-34{fill:url(#linear-gradient-18);}.cls-35{fill:#292d2d;}.cls-36{fill:#444749;}.cls-37{fill:#f7cd4b;}.cls-38{fill:#ddae2a;}.cls-39{fill:url(#linear-gradient-19);}.cls-40{fill:#ffdb76;opacity:0.3;mix-blend-mode:overlay;}.cls-41{fill:#a83324;}.cls-42{fill:#ff8173;}.cls-43{fill:url(#linear-gradient-20);}.cls-44{fill:#fcb998;}.cls-45{fill:#ffadca;}.cls-46{fill:#f45c9c;}.cls-47{fill:url(#linear-gradient-21);}.cls-48{fill:url(#linear-gradient-22);}.cls-49{fill:url(#linear-gradient-23);}.cls-50{fill:url(#linear-gradient-24);}.cls-51{fill:url(#linear-gradient-25);}.cls-52{fill:url(#linear-gradient-26);}.cls-53{fill:url(#linear-gradient-27);}.cls-54{fill:url(#linear-gradient-28);}.cls-55{fill:#a8cde5;}.cls-56{fill:#cbdfef;}.cls-57{fill:#9c63c9;opacity:0.5;}.cls-58{fill:#444f5c;}.cls-59{fill:#f2cd64;}.cls-59,.cls-61,.cls-62{mix-blend-mode:hard-light;}.cls-60{fill:#7dc9c6;}.cls-61{fill:#ba524a;}.cls-62{fill:#6fd3dd;}</style><linearGradient id="linear-gradient" x1="304.51" y1="102.01" x2="304.51" y2="566.42" gradientUnits="userSpaceOnUse"><stop offset="0" stop-color="#0082ae"/><stop offset="1" stop-color="#fff" stop-opacity="0"/></linearGradient><linearGradient id="linear-gradient-2" x1="129.58" y1="267.46" x2="118.17" y2="237.34" gradientUnits="userSpaceOnUse"><stop offset="0" stop-color="#fff" stop-opacity="0"/><stop offset="1" stop-color="#723f69"/></linearGradient><linearGradient id="linear-gradient-3" x1="62.65" y1="263.62" x2="72.47" y2="246.82" xlink:href="#linear-gradient-2"/><linearGradient id="linear-gradient-4" x1="140.69" y1="211" x2="130.23" y2="189.44" gradientUnits="userSpaceOnUse"><stop offset="0" stop-color="#fff" stop-opacity="0"/><stop offset="1" stop-color="#eb5e5e"/></linearGradient><linearGradient id="linear-gradient-5" x1="71.13" y1="212.69" x2="80.95" y2="193.04" xlink:href="#linear-gradient-4"/><linearGradient id="linear-gradient-6" x1="172.35" y1="214.11" x2="228.46" y2="273.31" gradientUnits="userSpaceOnUse"><stop offset="0" stop-color="#fff" stop-opacity="0"/><stop offset="1" stop-color="#efc092"/></linearGradient><linearGradient id="linear-gradient-7" x1="166.12" y1="145.57" x2="176.11" y2="161.5" xlink:href="#linear-gradient-6"/><linearGradient id="linear-gradient-8" x1="155.59" y1="155.25" x2="207.89" y2="222.06" xlink:href="#linear-gradient-6"/><linearGradient id="linear-gradient-9" x1="115.29" y1="318.41" x2="134.31" y2="280.38" xlink:href="#linear-gradient-6"/><linearGradient id="linear-gradient-10" x1="223.93" y1="120.67" x2="208.84" y2="140.71" xlink:href="#linear-gradient-6"/><linearGradient id="linear-gradient-11" x1="115.93" y1="237.45" x2="135.78" y2="237.45" xlink:href="#linear-gradient-6"/><linearGradient id="linear-gradient-12" x1="225.1" y1="238.77" x2="281.21" y2="297.96" xlink:href="#linear-gradient-6"/><linearGradient id="linear-gradient-13" x1="218.88" y1="170.22" x2="228.86" y2="186.15" xlink:href="#linear-gradient-6"/><linearGradient id="linear-gradient-14" x1="208.34" y1="179.91" x2="260.64" y2="246.71" xlink:href="#linear-gradient-6"/><linearGradient id="linear-gradient-15" x1="168.04" y1="343.07" x2="187.06" y2="305.03" xlink:href="#linear-gradient-6"/><linearGradient id="linear-gradient-16" x1="276.68" y1="145.33" x2="261.6" y2="165.36" xlink:href="#linear-gradient-6"/><linearGradient id="linear-gradient-17" x1="168.68" y1="262.11" x2="188.53" y2="262.11" xlink:href="#linear-gradient-6"/><linearGradient id="linear-gradient-18" x1="-1843.86" y1="331.71" x2="-1854" y2="316.75" gradientTransform="matrix(-1, 0, 0, 1, -1483.52, 0)" gradientUnits="userSpaceOnUse"><stop offset="0" stop-color="#fff" stop-opacity="0"/><stop offset="1" stop-color="#231f20"/></linearGradient><linearGradient id="linear-gradient-19" x1="393.69" y1="226.99" x2="347.56" y2="332.08" gradientUnits="userSpaceOnUse"><stop offset="0" stop-color="#fff" stop-opacity="0"/><stop offset="1" stop-color="#f7cd4b"/></linearGradient><linearGradient id="linear-gradient-20" x1="336.24" y1="219.45" x2="336.24" y2="202.14" gradientUnits="userSpaceOnUse"><stop offset="0" stop-color="#fff" stop-opacity="0"/><stop offset="1" stop-color="#ffadca"/></linearGradient><linearGradient id="linear-gradient-21" x1="336.16" y1="219.02" x2="344.22" y2="219.02" xlink:href="#linear-gradient-20"/><linearGradient id="linear-gradient-22" x1="329.12" y1="220.64" x2="335.06" y2="214.7" xlink:href="#linear-gradient-20"/><linearGradient id="linear-gradient-23" x1="384.9" y1="247.47" x2="384.9" y2="230.16" xlink:href="#linear-gradient-20"/><linearGradient id="linear-gradient-24" x1="384.82" y1="247.04" x2="392.87" y2="247.04" xlink:href="#linear-gradient-20"/><linearGradient id="linear-gradient-25" x1="377.78" y1="248.66" x2="383.72" y2="242.73" xlink:href="#linear-gradient-20"/><linearGradient id="linear-gradient-26" x1="433.81" y1="275.89" x2="433.81" y2="258.58" xlink:href="#linear-gradient-20"/><linearGradient id="linear-gradient-27" x1="433.74" y1="275.46" x2="441.79" y2="275.46" xlink:href="#linear-gradient-20"/><linearGradient id="linear-gradient-28" x1="426.7" y1="277.08" x2="432.63" y2="271.15" xlink:href="#linear-gradient-20"/></defs><title>KRecurso 1f</title><g class="cls-1"><g id="Capa_2" data-name="Capa 2"><g id="ARTBOARD_2" data-name="ARTBOARD 2"><g id="_Grupo_" data-name="&lt;Grupo&gt;"><g id="_Grupo_2" data-name="&lt;Grupo&gt;"><g id="_Grupo_3" data-name="&lt;Grupo&gt;"><path id="_Trazado_compuesto_" data-name="&lt;Trazado compuesto&gt;" class="cls-2" d="M473,313.72c-1.84,0-3.77-.07-5.69-.2a1.08,1.08,0,0,1-1-1.15,1.06,1.06,0,0,1,1.15-1c1.86.13,3.71.2,5.53.2l1.9,0a1.11,1.11,0,0,1,1.11,1,1.08,1.08,0,0,1-1,1.11Zm9.43-.64a1.08,1.08,0,0,1-.15-2.14,62.86,62.86,0,0,0,7.26-1.44,1.08,1.08,0,0,1,.54,2.09,65,65,0,0,1-7.51,1.49Zm-22.53-.44h-.17c-2.46-.4-5-.91-7.47-1.52a1.08,1.08,0,1,1,.51-2.09c2.44.6,4.9,1.1,7.3,1.49a1.08,1.08,0,0,1-.17,2.14Zm37.07-3.38a1.08,1.08,0,0,1-.4-2.08,56.79,56.79,0,0,0,6.66-3.19,1.08,1.08,0,1,1,1.06,1.88,59,59,0,0,1-6.92,3.31A1.08,1.08,0,0,1,496.95,309.26Zm-51.71-.17a1.09,1.09,0,0,1-.33-.05c-2.36-.76-4.77-1.62-7.16-2.56a1.08,1.08,0,0,1,.79-2c2.35.93,4.72,1.77,7,2.51a1.08,1.08,0,0,1-.33,2.1Zm-14-5.5a1.08,1.08,0,0,1-.45-.1c-2.26-1-4.55-2.17-6.81-3.36a1.08,1.08,0,0,1,1-1.91c2.22,1.17,4.48,2.29,6.71,3.31a1.08,1.08,0,0,1-.45,2.06ZM510,301.89a1.08,1.08,0,0,1-.65-1.94,58.35,58.35,0,0,0,5.62-4.81,1.08,1.08,0,1,1,1.5,1.55,60.4,60.4,0,0,1-5.83,5A1.07,1.07,0,0,1,510,301.89Zm-92.2-5.32a1.07,1.07,0,0,1-.54-.15c-2.15-1.27-4.32-2.61-6.45-4a1.08,1.08,0,1,1,1.17-1.81c2.11,1.37,4.25,2.69,6.37,3.94a1.08,1.08,0,0,1-.55,2Zm103-5.14a1.08,1.08,0,0,1-.84-1.75,66.81,66.81,0,0,0,4.33-6,1.08,1.08,0,0,1,1.82,1.16,69.27,69.27,0,0,1-4.47,6.21A1.07,1.07,0,0,1,520.84,291.43Zm-115.65-3.06a1.07,1.07,0,0,1-.62-.2c-2-1.45-4.1-3-6.1-4.51a1.08,1.08,0,1,1,1.31-1.71c2,1.52,4,3,6,4.46a1.08,1.08,0,0,1-.62,2Zm-12-9.19a1.07,1.07,0,0,1-.69-.25c-1.93-1.59-3.86-3.26-5.75-4.94a1.08,1.08,0,0,1,1.43-1.61c1.87,1.66,3.79,3.31,5.7,4.89a1.08,1.08,0,0,1-.69,1.91ZM529,278.77a1.08,1.08,0,0,1-1-1.56c1.1-2.16,2.12-4.45,3.05-6.78a1.08,1.08,0,0,1,2,.8c-1,2.4-2,4.74-3.13,7A1.08,1.08,0,0,1,529,278.77Zm-147-9.6a1.07,1.07,0,0,1-.74-.3c-1.81-1.72-3.63-3.5-5.41-5.3a1.08,1.08,0,0,1,1.53-1.52c1.77,1.79,3.57,3.55,5.36,5.26a1.08,1.08,0,0,1-.74,1.86Zm152.6-4.39a1.06,1.06,0,0,1-.32,0,1.08,1.08,0,0,1-.71-1.35c.71-2.32,1.36-4.75,1.92-7.21a1.08,1.08,0,1,1,2.1.48c-.57,2.51-1.23,5-2,7.36A1.08,1.08,0,0,1,534.55,264.79Zm-163.21-6.33a1.08,1.08,0,0,1-.79-.34c-1.71-1.83-3.42-3.72-5.08-5.62a1.08,1.08,0,0,1,1.62-1.42c1.65,1.88,3.35,3.75,5,5.57a1.08,1.08,0,0,1-.79,1.81Zm166.59-8.35h-.17a1.08,1.08,0,0,1-.89-1.23c.39-2.42.71-4.91,1-7.41a1.09,1.09,0,0,1,1.18-1,1.08,1.08,0,0,1,1,1.18c-.26,2.54-.59,5.08-1,7.54A1.08,1.08,0,0,1,537.93,250.1Zm-176.54-3a1.07,1.07,0,0,1-.83-.39c-1.6-1.93-3.2-3.91-4.75-5.89a1.08,1.08,0,0,1,1.7-1.33c1.54,2,3.13,3.93,4.72,5.85a1.08,1.08,0,0,1-.83,1.77Zm-9.3-11.86a1.08,1.08,0,0,1-.87-.44c-1.48-2-3-4.06-4.42-6.13a1.08,1.08,0,1,1,1.76-1.24c1.44,2.05,2.92,4.1,4.39,6.08a1.08,1.08,0,0,1-.86,1.72Zm187.37-.15h-.05a1.08,1.08,0,0,1-1-1.13c.12-2.44.18-5,.18-7.48v-1.2a1.08,1.08,0,0,1,2.15,0v1.21c0,2.56-.06,5.11-.18,7.59A1.08,1.08,0,0,1,539.46,235.11Zm-196-12.18a1.08,1.08,0,0,1-.9-.48c-1.39-2.09-2.77-4.23-4.1-6.35a1.08,1.08,0,1,1,1.82-1.15c1.33,2.12,2.7,4.24,4.08,6.31a1.08,1.08,0,0,1-.9,1.67Zm196-4.1a1.08,1.08,0,0,1-1.08-1c-.13-2.47-.31-5-.54-7.48a1.08,1.08,0,0,1,1-1.17,1.06,1.06,0,0,1,1.17,1c.23,2.52.42,5.07.55,7.57a1.08,1.08,0,0,1-1,1.13Zm-204-8.67a1.08,1.08,0,0,1-.93-.53c-1.3-2.19-2.57-4.39-3.78-6.56a1.08,1.08,0,1,1,1.88-1.05c1.2,2.15,2.47,4.34,3.75,6.51a1.08,1.08,0,0,1-.93,1.63ZM538,203.82a1.08,1.08,0,0,1-1.07-.94c-.33-2.47-.7-5-1.12-7.42a1.08,1.08,0,0,1,2.13-.36c.42,2.48.8,5,1.13,7.5a1.08,1.08,0,0,1-.93,1.21ZM328,197a1.08,1.08,0,0,1-1-.58c-1.18-2.23-2.33-4.51-3.44-6.75a1.08,1.08,0,1,1,1.93-1c1.1,2.23,2.25,4.49,3.42,6.7a1.08,1.08,0,0,1-1,1.58Zm207.47-8a1.08,1.08,0,0,1-1.05-.86c-.5-2.43-1-4.9-1.63-7.33a1.08,1.08,0,0,1,2.1-.5c.59,2.46,1.14,4.94,1.65,7.4a1.08,1.08,0,0,1-.84,1.27Zm-214.16-5.51a1.08,1.08,0,0,1-1-.62c-1.06-2.3-2.1-4.63-3.09-6.93a1.08,1.08,0,0,1,2-.85c1,2.28,2,4.6,3.07,6.88a1.08,1.08,0,0,1-1,1.53ZM532,174.27a1.08,1.08,0,0,1-1-.79c-.65-2.37-1.35-4.79-2.09-7.21a1.08,1.08,0,1,1,2.06-.63c.75,2.44,1.46,4.89,2.11,7.28a1.08,1.08,0,0,1-.76,1.32A1.1,1.1,0,0,1,532,174.27Zm-216.62-4.71a1.08,1.08,0,0,1-1-.68c-.94-2.36-1.85-4.74-2.71-7.07a1.08,1.08,0,0,1,2-.74c.85,2.32,1.76,4.68,2.69,7a1.08,1.08,0,0,1-.6,1.4A1.06,1.06,0,0,1,315.38,169.56Zm212.21-9.71a1.08,1.08,0,0,1-1-.73c-.79-2.35-1.64-4.73-2.51-7.08a1.08,1.08,0,0,1,2-.75c.88,2.37,1.73,4.77,2.53,7.14a1.08,1.08,0,0,1-1,1.42ZM310.18,155.4a1.08,1.08,0,0,1-1-.73c-.8-2.38-1.58-4.81-2.31-7.21a1.08,1.08,0,0,1,2.06-.63c.72,2.38,1.49,4.79,2.29,7.16a1.08,1.08,0,0,1-1,1.42Zm212.17-9.7a1.08,1.08,0,0,1-1-.68c-.91-2.28-1.89-4.61-2.89-6.93a1.08,1.08,0,0,1,2-.86c1,2.34,2,4.69,2.92,7a1.08,1.08,0,0,1-1,1.48ZM305.8,141a1.08,1.08,0,0,1-1-.8c-.67-2.46-1.29-4.94-1.86-7.34a1.08,1.08,0,1,1,2.1-.5c.57,2.39,1.19,4.84,1.85,7.28a1.08,1.08,0,0,1-.76,1.32A1,1,0,0,1,305.8,141Zm210.55-9.13a1.08,1.08,0,0,1-1-.62c-1.06-2.27-2.15-4.56-3.26-6.79a1.08,1.08,0,1,1,1.93-1c1.12,2.25,2.22,4.55,3.29,6.84a1.08,1.08,0,0,1-.52,1.43A1.09,1.09,0,0,1,516.35,131.84Zm-214-5.55a1.08,1.08,0,0,1-1.06-.86c-.5-2.48-1-5-1.38-7.45a1.08,1.08,0,0,1,2.13-.35c.41,2.44.86,4.92,1.36,7.38a1.08,1.08,0,0,1-.84,1.27Zm207.31-8a1.08,1.08,0,0,1-1-.57c-1.18-2.23-2.39-4.46-3.6-6.6a1.08,1.08,0,1,1,1.88-1.06c1.22,2.16,2.44,4.4,3.63,6.65a1.08,1.08,0,0,1-1,1.58Zm-209.78-6.89a1.08,1.08,0,0,1-1.07-.94c-.32-2.52-.6-5.06-.82-7.54a1.08,1.08,0,0,1,2.15-.19c.22,2.46.49,5,.82,7.46a1.08,1.08,0,0,1-.93,1.21Zm202.39-6.27a1.08,1.08,0,0,1-.93-.53c-1.29-2.16-2.61-4.32-3.93-6.41a1.08,1.08,0,0,1,1.82-1.15c1.33,2.1,2.66,4.28,4,6.45a1.08,1.08,0,0,1-.92,1.63ZM298.52,96.39a1.08,1.08,0,0,1-1.08-1c-.12-2.52-.19-5.08-.2-7.59a1.08,1.08,0,0,1,1.07-1.08,1.11,1.11,0,0,1,1.08,1.07c0,2.48.08,5,.2,7.49a1.08,1.08,0,0,1-1,1.13Zm195.68-4a1.08,1.08,0,0,1-.9-.48c-1.39-2.09-2.82-4.17-4.25-6.19a1.08,1.08,0,0,1,1.76-1.24c1.43,2,2.87,4.13,4.28,6.23a1.08,1.08,0,0,1-.9,1.68ZM298.47,81.31h0a1.08,1.08,0,0,1-1-1.12c.11-2.56.29-5.11.53-7.58a1.08,1.08,0,1,1,2.14.21c-.24,2.43-.41,4.94-.52,7.46A1.08,1.08,0,0,1,298.47,81.31Zm187-1.23a1.07,1.07,0,0,1-.86-.43c-1.5-2-3-4-4.56-6a1.08,1.08,0,0,1,1.69-1.33c1.54,2,3.09,4,4.59,6a1.08,1.08,0,0,1-.86,1.72Zm-9.32-11.84a1.08,1.08,0,0,1-.83-.39c-1.6-1.92-3.24-3.84-4.89-5.7a1.08,1.08,0,0,1,1.62-1.43c1.66,1.88,3.32,3.81,4.93,5.75a1.08,1.08,0,0,1-.83,1.77ZM299.94,66.31h-.17a1.08,1.08,0,0,1-.9-1.23c.4-2.54.87-5.05,1.41-7.48a1.08,1.08,0,0,1,2.1.47c-.53,2.38-1,4.84-1.38,7.34A1.08,1.08,0,0,1,299.94,66.31Zm166.27-9.38a1.08,1.08,0,0,1-.79-.34c-1.71-1.83-3.47-3.65-5.21-5.41a1.08,1.08,0,1,1,1.53-1.52c1.76,1.77,3.53,3.61,5.26,5.45a1.08,1.08,0,0,1-.79,1.81Zm-163-5.32a1.09,1.09,0,0,1-.31,0,1.08,1.08,0,0,1-.72-1.34c.74-2.46,1.57-4.89,2.47-7.21a1.08,1.08,0,1,1,2,.78c-.88,2.27-1.69,4.64-2.42,7A1.08,1.08,0,0,1,303.23,51.61Zm152.34-5.38a1.07,1.07,0,0,1-.74-.29c-1.83-1.72-3.69-3.43-5.54-5.06a1.08,1.08,0,0,1,1.43-1.61c1.87,1.65,3.75,3.37,5.6,5.11a1.08,1.08,0,0,1-.74,1.86ZM308.72,37.59a1.06,1.06,0,0,1-.48-.11,1.08,1.08,0,0,1-.49-1.44c1.15-2.32,2.41-4.56,3.73-6.67a1.08,1.08,0,1,1,1.82,1.15c-1.29,2-2.51,4.23-3.63,6.48A1.08,1.08,0,0,1,308.72,37.59Zm135.55-1.34a1.07,1.07,0,0,1-.68-.25c-1.95-1.6-3.92-3.17-5.88-4.66A1.08,1.08,0,0,1,439,29.63c2,1.51,4,3.09,5.94,4.71a1.08,1.08,0,0,1-.69,1.91Zm-12-9.15a1.06,1.06,0,0,1-.62-.2c-2.06-1.45-4.15-2.86-6.22-4.19a1.08,1.08,0,1,1,1.17-1.81c2.09,1.34,4.21,2.77,6.29,4.24a1.08,1.08,0,0,1-.62,2ZM316.74,24.86a1.08,1.08,0,0,1-.84-1.75A64.21,64.21,0,0,1,321,17.4a1.08,1.08,0,1,1,1.52,1.53,62.39,62.39,0,0,0-4.94,5.52A1.07,1.07,0,0,1,316.74,24.86Zm102.85-5.92a1.07,1.07,0,0,1-.54-.15l-.61-.35c-2-1.15-4-2.25-5.95-3.27a1.08,1.08,0,0,1,1-1.91c2,1,4,2.15,6,3.31l.61.36a1.08,1.08,0,0,1-.54,2Zm-92.15-4.65a1.08,1.08,0,0,1-.66-1.93,58.75,58.75,0,0,1,6.38-4.26A1.08,1.08,0,1,1,334.24,10a56.68,56.68,0,0,0-6.14,4.1A1.08,1.08,0,0,1,327.44,14.29ZM406.22,12a1.09,1.09,0,0,1-.45-.1c-2.29-1-4.61-2-6.89-2.91a1.08,1.08,0,1,1,.78-2c2.32.9,4.68,1.89,7,3a1.08,1.08,0,0,1-.45,2.06Zm-65.76-5.2A1.08,1.08,0,0,1,340,4.72a60.55,60.55,0,0,1,7.26-2.47,1.08,1.08,0,1,1,.56,2.08,58.54,58.54,0,0,0-7,2.38A1.07,1.07,0,0,1,340.46,6.79Zm51.7-.23a1.09,1.09,0,0,1-.32,0c-2.41-.76-4.83-1.43-7.19-2a1.08,1.08,0,1,1,.5-2.1c2.41.57,4.88,1.26,7.34,2a1.08,1.08,0,0,1-.32,2.11ZM377.5,3.09h-.17c-2.49-.38-5-.66-7.4-.81a1.08,1.08,0,0,1-1-1.14,1.1,1.1,0,0,1,1.14-1c2.49.16,5,.44,7.59.83a1.08,1.08,0,0,1-.16,2.14ZM355,2.83A1.08,1.08,0,0,1,354.8.69,70.18,70.18,0,0,1,362.42,0a1.06,1.06,0,0,1,1.12,1,1.08,1.08,0,0,1-1,1.12,68,68,0,0,0-7.38.67Z"/></g><g id="_Grupo_4" data-name="&lt;Grupo&gt;"><path id="_Trazado_compuesto_2" data-name="&lt;Trazado compuesto&gt;" class="cls-2" d="M331.83,220.9a1.08,1.08,0,0,1-.31,1.49,1.11,1.11,0,0,1-1.49-.31q-.52-.79-1.07-1.57-1.56-2.24-3.34-4.42a1.06,1.06,0,0,1,.16-1.51,1.08,1.08,0,0,1,1.51.16c1.21,1.49,2.39,3,3.43,4.54Q331.3,220.09,331.83,220.9Zm3.87,6.6a65,65,0,0,1,3.1,7,1.08,1.08,0,1,1-2,.75,62.92,62.92,0,0,0-3-6.77,1.08,1.08,0,0,1,1.84-1.11Zm-13.5-16.94a1.08,1.08,0,0,1-1.52,0c-1.7-1.75-3.52-3.47-5.41-5.13a1.08,1.08,0,1,1,1.42-1.62c1.93,1.69,3.79,3.46,5.53,5.25l.11.13A1.08,1.08,0,0,1,322.2,210.57ZM341,241.85a59,59,0,0,1,1.26,7.57,1.08,1.08,0,0,1-2.14.21,56.79,56.79,0,0,0-1.21-7.29,1.08,1.08,0,1,1,2.1-.49ZM311,200.5a1.08,1.08,0,0,1-1.51.21c-1.94-1.47-4-2.92-6.1-4.32a1.08,1.08,0,0,1,1.19-1.8c2.15,1.42,4.24,2.9,6.21,4.4a1.08,1.08,0,0,1,.21,1.51Zm-12.49-8.44a1.08,1.08,0,0,1-1.47.39c-2.12-1.24-4.33-2.44-6.56-3.59a1.08,1.08,0,0,1,1-1.92c2.27,1.17,4.51,2.39,6.66,3.65a1.08,1.08,0,0,1,.39,1.47Zm44,65a60.4,60.4,0,0,1-.74,7.63,1.08,1.08,0,0,1-2.13-.34,58.33,58.33,0,0,0,.71-7.36,1.08,1.08,0,1,1,2.15.07Zm-57.37-72a1.08,1.08,0,0,1-1.43.53c-2.24-1-4.56-2-6.89-3a1.08,1.08,0,0,1,.81-2c2.36,1,4.7,2,7,3a1.08,1.08,0,0,1,.53,1.43Zm55,87.14a69.28,69.28,0,0,1-2.52,7.23,1.08,1.08,0,1,1-2-.82,66.83,66.83,0,0,0,2.44-7,1.08,1.08,0,1,1,2.07.59Zm-68.9-92.89a1.08,1.08,0,0,1-1.38.65c-2.33-.83-4.73-1.63-7.11-2.38a1.08,1.08,0,0,1,.65-2.06c2.41.76,4.83,1.57,7.19,2.41a1.08,1.08,0,0,1,.65,1.38Zm-14.36-4.6a1.08,1.08,0,0,1-1.32.75c-2.39-.65-4.83-1.28-7.27-1.86a1.08,1.08,0,1,1,.5-2.1c2.46.58,4.93,1.21,7.34,1.88a1.08,1.08,0,0,1,.75,1.32Zm77.48,111.62c-1.17,2.19-2.49,4.4-3.9,6.56a1.08,1.08,0,0,1-1.8-1.18c1.38-2.1,2.66-4.25,3.8-6.39a1.08,1.08,0,0,1,1.9,1ZM242.19,171.15a1.08,1.08,0,0,1-1.27.84c-2.42-.49-4.91-1-7.38-1.38a1.08,1.08,0,0,1,.36-2.12c2.5.43,5,.89,7.45,1.39a1.08,1.08,0,0,1,.84,1.27ZM326,299.08c-1.53,2-3.17,3.92-4.9,5.83a1.08,1.08,0,1,1-1.6-1.44c1.69-1.87,3.31-3.79,4.8-5.71a1.08,1.08,0,0,1,1.51-.19,1.06,1.06,0,0,1,.22.23A1.08,1.08,0,0,1,326,299.08ZM227.33,168.55a1.08,1.08,0,0,1-1.22.92c-2.46-.34-5-.65-7.45-.93a1.08,1.08,0,1,1,.24-2.14c2.51.28,5,.59,7.52.93a1.08,1.08,0,0,1,.92,1.22Zm88.46,141.83c-1.78,1.73-3.67,3.46-5.61,5.13a1.08,1.08,0,0,1-1.52-.11,1.09,1.09,0,0,1,.11-1.52c1.9-1.64,3.76-3.34,5.51-5a1.08,1.08,0,0,1,1.52,0l.11.13A1.08,1.08,0,0,1,315.79,310.38ZM212.35,166.84a1.08,1.08,0,0,1-1.16,1c-2.48-.2-5-.37-7.5-.51a1.08,1.08,0,0,1,.12-2.15c2.51.14,5.05.31,7.56.51a1.08,1.08,0,0,1,1,1.16Zm-15-.87a1.08,1.08,0,0,1-1.11,1c-2.47-.07-5-.1-7.5-.1a1.08,1.08,0,0,1,0-2.15c2.53,0,5.07,0,7.56.1a1.08,1.08,0,0,1,1,1.11Zm107,154.35c-2,1.52-4,3-6.11,4.5l-1,.69a1.08,1.08,0,1,1-1.22-1.77l1-.68c2.07-1.45,4.1-2.94,6-4.44a1.08,1.08,0,0,1,1.51.19l0,0A1.08,1.08,0,0,1,304.31,320.32ZM182.24,165.91a1.08,1.08,0,0,1-1,1.1c-2.49.06-5,.16-7.51.29a1.08,1.08,0,1,1-.11-2.15c2.51-.13,5.06-.22,7.56-.29a1.08,1.08,0,0,1,1.1,1Zm109,162.29a1.08,1.08,0,0,1-.34,1.49c-2.12,1.33-4.31,2.64-6.51,3.9a1.06,1.06,0,0,1-1.47-.4,1.08,1.08,0,0,1,.4-1.47c2.17-1.24,4.34-2.54,6.43-3.85a1.08,1.08,0,0,1,1.45.29Zm-124-161.58a1.08,1.08,0,0,1-1,1.16c-2.52.19-5,.42-7.49.67a1.08,1.08,0,1,1-.22-2.14c2.47-.25,5-.48,7.54-.67a1.08,1.08,0,0,1,1.16,1Zm111,169.15a1.08,1.08,0,0,1-.46,1.45c-2.23,1.16-4.52,2.3-6.79,3.38a1.08,1.08,0,0,1-.93-1.95c2.25-1.07,4.51-2.19,6.72-3.34a1.08,1.08,0,0,1,1.38.34Zm-126-167.67a1.08,1.08,0,0,1-.93,1.2c-2.49.32-5,.67-7.45,1a1.08,1.08,0,1,1-.33-2.13c2.48-.38,5-.74,7.51-1.06a1.08,1.08,0,0,1,1.2.93ZM264.57,342.31a1.08,1.08,0,0,1-.56,1.42c-2.3,1-4.65,2-7,2.9a1.08,1.08,0,0,1-.79-2c2.33-.92,4.66-1.88,6.94-2.87a1.08,1.08,0,0,1,1.31.37A1.11,1.11,0,0,1,264.57,342.31Zm-127.36-172a1.08,1.08,0,0,1-.87,1.25c-2.47.45-5,.93-7.4,1.43a1.08,1.08,0,1,1-.44-2.11c2.45-.51,5-1,7.45-1.45a1.08,1.08,0,0,1,1.25.87ZM250.56,347.91a1.08,1.08,0,0,1-.65,1.38c-2.33.84-4.74,1.66-7.17,2.45a1.08,1.08,0,1,1-.67-2c2.41-.78,4.8-1.6,7.11-2.43a1.08,1.08,0,0,1,1.25.4A1.11,1.11,0,0,1,250.56,347.91ZM122.41,173.35a1.08,1.08,0,0,1-.8,1.3c-2.45.58-4.9,1.19-7.29,1.83a1.08,1.08,0,0,1-.55-2.08c2.4-.64,4.88-1.26,7.35-1.84a1.08,1.08,0,0,1,1.13.43A1.06,1.06,0,0,1,122.41,173.35ZM236.23,352.64a1.08,1.08,0,0,1-.73,1.34c-2.4.7-4.85,1.38-7.3,2a1.08,1.08,0,0,1-.55-2.08c2.43-.64,4.86-1.31,7.24-2a1.08,1.08,0,0,1,1.34.73ZM107.81,177.16a1.08,1.08,0,0,1-.73,1.34c-2.39.71-4.81,1.46-7.17,2.23a1.08,1.08,0,0,1-.67-2c2.39-.78,4.82-1.54,7.23-2.25a1.08,1.08,0,0,1,1.34.73ZM221.66,356.53a1.08,1.08,0,0,1-.8,1.3c-2.41.56-4.9,1.11-7.4,1.62a1.08,1.08,0,1,1-.43-2.11c2.48-.51,4.95-1.05,7.34-1.61a1.08,1.08,0,0,1,1.3.8ZM93.45,181.8a1.08,1.08,0,0,1-.65,1.38c-2.38.86-4.74,1.76-7,2.66a1.08,1.08,0,1,1-.8-2c2.3-.92,4.68-1.82,7.08-2.69a1.08,1.08,0,0,1,1.25.39A1,1,0,0,1,93.45,181.8ZM206.88,359.63a1.08,1.08,0,0,1-.87,1.25c-2.49.44-5,.86-7.48,1.23a1.08,1.08,0,1,1-.32-2.13c2.46-.37,5-.79,7.43-1.23a1.08,1.08,0,0,1,1.25.87ZM79.41,187.31a1.08,1.08,0,0,1-.56,1.42c-2.3,1-4.6,2.05-6.83,3.12a1.08,1.08,0,0,1-.93-1.94c2.25-1.08,4.57-2.14,6.89-3.15a1.08,1.08,0,0,1,1.31.37A1.06,1.06,0,0,1,79.41,187.31ZM191.95,362a1.08,1.08,0,0,1-.94,1.2c-2.53.32-5.06.6-7.53.85a1.08,1.08,0,0,1-.21-2.14c2.45-.24,5-.53,7.48-.84a1.08,1.08,0,0,1,1.2.94ZM65.78,193.76a1.08,1.08,0,0,1-.45,1.46c-2.22,1.17-4.44,2.38-6.57,3.61A1.08,1.08,0,0,1,57.68,197c2.16-1.24,4.4-2.47,6.65-3.65a1.08,1.08,0,0,1,1.38.34ZM176.93,363.51a1.08,1.08,0,0,1-1,1.15c-2.53.19-5.07.34-7.56.46a1.08,1.08,0,0,1-.11-2.15c2.47-.12,5-.27,7.5-.46a1.08,1.08,0,0,1,1.15,1ZM52.67,201.21a1.08,1.08,0,0,1-.34,1.49c-2.11,1.33-4.21,2.73-6.25,4.14a1.11,1.11,0,0,1-1.5-.27,1.08,1.08,0,0,1,.27-1.5c2.06-1.43,4.19-2.84,6.33-4.19a1.08,1.08,0,0,1,1.46.29Zm109.2,163.08a1.08,1.08,0,0,1-1.05,1.1c-2.53.06-5.07.08-7.56.08a1.08,1.08,0,1,1,0-2.15c2.47,0,5,0,7.51-.08a1.08,1.08,0,0,1,1.1,1.05ZM40,211.26c-2,1.54-4,3.13-5.81,4.71a1.08,1.08,0,0,1-1.4-1.64c1.88-1.61,3.87-3.22,5.9-4.78a1.08,1.08,0,0,1,1.51.2l0,0A1.08,1.08,0,0,1,40,211.26ZM146.81,364.31a1.08,1.08,0,0,1-1.11,1c-2.52-.07-5.06-.18-7.55-.32a1.08,1.08,0,0,1,.12-2.15c2.47.14,5,.24,7.49.32a1.08,1.08,0,0,1,1,1.11Zm-15-.79a1.08,1.08,0,0,1-1.16,1c-2.51-.21-5-.46-7.54-.74a1.08,1.08,0,0,1,.24-2.14c2.47.28,5,.52,7.48.73a1.08,1.08,0,0,1,1,1.16ZM28.69,221c-1.82,1.75-3.57,3.55-5.22,5.34a1.08,1.08,0,0,1-1.59-1.45c1.67-1.83,3.46-3.66,5.31-5.44a1.08,1.08,0,0,1,1.52,0l.11.13A1.08,1.08,0,0,1,28.69,221ZM116.76,361.9a1.08,1.08,0,0,1-1.22.92c-2.51-.36-5-.75-7.48-1.18a1.08,1.08,0,0,1,.37-2.12c2.44.42,4.93.81,7.42,1.16a1.08,1.08,0,0,1,.92,1.22ZM18.64,232c-1.56,2-3,4-4.38,6a1.08,1.08,0,1,1-1.79-1.2c1.38-2.07,2.89-4.14,4.48-6.16a1.08,1.08,0,0,1,1.51-.18,1.09,1.09,0,0,1,.21.23A1.08,1.08,0,0,1,18.64,232ZM101.89,359.4a1.08,1.08,0,0,1-1.27.84c-2.49-.51-5-1.06-7.4-1.65a1.08,1.08,0,0,1,.5-2.09c2.4.58,4.87,1.13,7.33,1.63a1.08,1.08,0,0,1,.84,1.27Zm-91.48-115c-1.2,2.21-2.29,4.46-3.23,6.69a1.08,1.08,0,1,1-2-.84c1-2.3,2.08-4.61,3.32-6.88a1.08,1.08,0,0,1,1.46-.43,1.06,1.06,0,0,1,.37.33A1.08,1.08,0,0,1,10.41,244.4ZM87.2,355.94a1.08,1.08,0,0,1-1.33.75c-2.45-.68-4.9-1.41-7.27-2.16a1.08,1.08,0,1,1,.65-2.05c2.35.74,4.76,1.46,7.19,2.14a1.08,1.08,0,0,1,.75,1.33Zm-14.4-4.49a1.08,1.08,0,0,1-1.38.65c-2.4-.87-4.78-1.78-7.08-2.72a1.08,1.08,0,1,1,.81-2c2.27.93,4.63,1.83,7,2.69a1.08,1.08,0,0,1,.65,1.38ZM4.68,258.07A62.37,62.37,0,0,0,3,265.28a1.08,1.08,0,0,1-2.12-.36,64.2,64.2,0,0,1,1.74-7.46,1.08,1.08,0,1,1,2.07.61Zm54.13,87.77a1.08,1.08,0,0,1-1.43.52l-.64-.3c-2.11-1-4.19-2-6.17-3a1.08,1.08,0,0,1,1-1.91c2,1,4,2,6.09,3l.64.3a1.06,1.06,0,0,1,.43.36A1.08,1.08,0,0,1,58.81,345.84Zm-56.6-73.2A56.66,56.66,0,0,0,2.37,280a1.08,1.08,0,1,1-2.15.19,58.76,58.76,0,0,1-.18-7.67,1.08,1.08,0,0,1,2.15.09ZM45.39,339a1.08,1.08,0,0,1-1.48.38c-2.21-1.3-4.37-2.66-6.44-4a1.08,1.08,0,0,1,1.2-1.79c2,1.36,4.17,2.7,6.33,4a1.08,1.08,0,0,1,.38,1.48ZM3.51,287.32a58.53,58.53,0,0,0,2.07,7.1,1.08,1.08,0,1,1-2,.73,60.55,60.55,0,0,1-2.14-7.36,1.08,1.08,0,1,1,2.1-.47ZM32.8,330.68a1.08,1.08,0,0,1-1.51.2c-2-1.57-4-3.2-5.88-4.85a1.08,1.08,0,1,1,1.43-1.61c1.82,1.61,3.75,3.21,5.76,4.75a1.09,1.09,0,0,1,.23.24A1.08,1.08,0,0,1,32.8,330.68Zm-11.36-9.9a1.08,1.08,0,0,1-1.52,0c-1.79-1.86-3.48-3.79-5-5.74A1.1,1.1,0,0,1,15,313.5a1.08,1.08,0,0,1,1.51.17c1.52,1.89,3.17,3.78,4.91,5.59l.11.13A1.08,1.08,0,0,1,21.43,320.79ZM8.51,301.22a68,68,0,0,0,3.69,6.43,1.08,1.08,0,0,1-.32,1.49,1.06,1.06,0,0,1-1.49-.32,70.2,70.2,0,0,1-3.81-6.64,1.08,1.08,0,0,1,1.84-1.1Z"/></g><path id="_Trazado_" data-name="&lt;Trazado&gt;" class="cls-3" d="M135.87,321.42l54.46,7.22-1.71,17.43L246,355.76,333.43,427h7.36l84.33-49.67h95a4.87,4.87,0,0,0,2.36-9.14L354.87,275.46,166.82,227,84,300.53h45.45Z"/><g id="_Grupo_5" data-name="&lt;Grupo&gt;"><g id="_Grupo_6" data-name="&lt;Grupo&gt;"><polygon id="_Trazado_2" data-name="&lt;Trazado&gt;" class="cls-4" points="166.82 212.4 166.82 252.83 84 300.53 84 260.1 166.82 212.4"/><polygon id="_Trazado_3" data-name="&lt;Trazado&gt;" class="cls-5" points="166.82 212.4 166.82 252.83 84 300.53 84 260.1 166.82 212.4"/><polygon id="_Trazado_4" data-name="&lt;Trazado&gt;" class="cls-6" points="84 300.53 84 260.1 37.46 233.25 37.46 273.68 84 300.53"/><polygon id="_Trazado_5" data-name="&lt;Trazado&gt;" class="cls-7" points="84 300.53 84 260.1 37.46 233.25 37.46 273.68 84 300.53"/><polygon id="_Trazado_6" data-name="&lt;Trazado&gt;" class="cls-8" points="76.12 287.75 76.12 273.7 43.78 255.04 43.78 269.09 76.12 287.75"/><g id="_Grupo_7" data-name="&lt;Grupo&gt;"><polygon id="_Trazado_7" data-name="&lt;Trazado&gt;" class="cls-9" points="84 252.83 168.27 204.18 120.12 176.38 35.85 225.03 84 252.83"/><polygon id="_Trazado_8" data-name="&lt;Trazado&gt;" class="cls-4" points="168.27 204.18 168.27 213.66 84 262.31 84 252.83 168.27 204.18"/><polygon id="_Trazado_9" data-name="&lt;Trazado&gt;" class="cls-6" points="84 262.31 84 252.83 35.85 225.03 35.85 234.51 84 262.31"/></g></g><g id="_Grupo_8" data-name="&lt;Grupo&gt;"><polygon id="_Trazado_10" data-name="&lt;Trazado&gt;" class="cls-10" points="177.93 158.33 177.93 198.77 95.11 246.47 95.11 206.03 177.93 158.33"/><polygon id="_Trazado_11" data-name="&lt;Trazado&gt;" class="cls-11" points="177.93 158.33 177.93 198.77 95.11 246.47 95.11 206.03 177.93 158.33"/><polygon id="_Trazado_12" data-name="&lt;Trazado&gt;" class="cls-12" points="95.11 246.47 95.11 206.03 47.34 178.51 47.34 218.95 95.11 246.47"/><polygon id="_Trazado_13" data-name="&lt;Trazado&gt;" class="cls-13" points="95.11 246.47 95.11 206.03 47.34 178.51 47.34 218.95 95.11 246.47"/><polygon id="_Trazado_14" data-name="&lt;Trazado&gt;" class="cls-8" points="87.22 233.69 87.22 219.64 53.66 200.31 53.66 214.36 87.22 233.69"/><g id="_Grupo_9" data-name="&lt;Grupo&gt;"><polygon id="_Trazado_15" data-name="&lt;Trazado&gt;" class="cls-14" points="95.11 198.77 179.37 150.12 130 121.65 45.74 170.3 95.11 198.77"/><polygon id="_Trazado_16" data-name="&lt;Trazado&gt;" class="cls-10" points="179.37 150.12 179.37 159.6 95.11 208.25 95.11 198.77 179.37 150.12"/><polygon id="_Trazado_17" data-name="&lt;Trazado&gt;" class="cls-12" points="95.11 208.25 95.11 198.77 45.74 170.3 45.74 179.78 95.11 208.25"/></g></g><g id="_Grupo_10" data-name="&lt;Grupo&gt;"><g id="_Grupo_11" data-name="&lt;Grupo&gt;"><polygon id="_Trazado_18" data-name="&lt;Trazado&gt;" class="cls-15" points="101.59 301.63 109.81 173.27 129.45 173.27 129.45 184.68 135.87 321.42 101.59 301.63"/><polygon id="_Trazado_19" data-name="&lt;Trazado&gt;" class="cls-16" points="135.87 321.42 129.45 184.68 228.54 127.59 234.96 264.34 135.87 321.42"/><polygon id="_Trazado_20" data-name="&lt;Trazado&gt;" class="cls-17" points="135.87 321.42 129.45 184.68 228.54 127.59 234.96 264.34 135.87 321.42"/><polygon id="_Trazado_21" data-name="&lt;Trazado&gt;" class="cls-18" points="208.9 127.59 208.9 116.19 109.81 173.27 129.45 173.27 129.45 184.68 228.54 127.59 208.9 127.59"/><polygon id="_Trazado_22" data-name="&lt;Trazado&gt;" class="cls-19" points="208.9 127.59 208.9 116.19 109.81 173.27 129.45 173.27 129.45 184.68 228.54 127.59 208.9 127.59"/></g><g id="_Grupo_12" data-name="&lt;Grupo&gt;" class="cls-20"><path id="_Trazado_23" data-name="&lt;Trazado&gt;" class="cls-21" d="M181.88,230.37A14.1,14.1,0,0,1,174,228c-11.18-7.33-12.27-29.38-12.31-30.32a1.43,1.43,0,0,1,2.85-.12c0,.21,1.06,21.53,11,28.06,3.46,2.26,7.71,2.46,12.64.56,20.18-7.75,18.36-52,18.34-52.4a1.43,1.43,0,0,1,1.36-1.49,1.44,1.44,0,0,1,1.49,1.36,124.09,124.09,0,0,1-1.63,24.13c-2.93,17-9.17,27.47-18.54,31.06A20.52,20.52,0,0,1,181.88,230.37Z"/></g><g id="_Grupo_13" data-name="&lt;Grupo&gt;"><path id="_Trazado_24" data-name="&lt;Trazado&gt;" class="cls-22" d="M183.18,228.13a14.1,14.1,0,0,1-7.89-2.33C164.11,218.47,163,196.41,163,195.48a1.43,1.43,0,0,1,2.85-.12c0,.21,1.06,21.53,11,28.06,3.46,2.27,7.71,2.46,12.64.56,20.18-7.75,18.36-52,18.34-52.4a1.43,1.43,0,0,1,1.36-1.49,1.44,1.44,0,0,1,1.49,1.36,124.09,124.09,0,0,1-1.63,24.13c-2.93,17-9.17,27.47-18.54,31.06A20.52,20.52,0,0,1,183.18,228.13Z"/></g><circle id="_Trazado_25" data-name="&lt;Trazado&gt;" class="cls-23" cx="164.41" cy="195.42" r="3.55"/><circle id="_Trazado_26" data-name="&lt;Trazado&gt;" class="cls-23" cx="209.26" cy="171.51" r="3.55"/><polygon id="_Trazado_27" data-name="&lt;Trazado&gt;" class="cls-18" points="101.59 301.63 129.45 291.28 135.87 321.42 101.59 301.63"/><polygon id="_Trazado_28" data-name="&lt;Trazado&gt;" class="cls-24" points="101.59 301.63 129.45 291.28 135.87 321.42 101.59 301.63"/><polygon id="_Trazado_29" data-name="&lt;Trazado&gt;" class="cls-25" points="208.9 127.59 208.9 138.91 228.54 127.59 208.9 127.59"/><polygon id="_Trazado_30" data-name="&lt;Trazado&gt;" class="cls-26" points="101.59 301.63 129.45 291.28 129.45 173.27 109.81 173.27 101.59 301.63"/></g><g id="_Grupo_14" data-name="&lt;Grupo&gt;"><g id="_Grupo_15" data-name="&lt;Grupo&gt;"><polygon id="_Trazado_31" data-name="&lt;Trazado&gt;" class="cls-15" points="154.34 326.29 162.56 197.93 182.21 197.93 182.21 209.33 188.62 346.08 154.34 326.29"/><polygon id="_Trazado_32" data-name="&lt;Trazado&gt;" class="cls-16" points="188.62 346.08 182.21 209.33 281.29 152.25 287.71 289 188.62 346.08"/><polygon id="_Trazado_33" data-name="&lt;Trazado&gt;" class="cls-27" points="188.62 346.08 182.21 209.33 281.29 152.25 287.71 289 188.62 346.08"/><polygon id="_Trazado_34" data-name="&lt;Trazado&gt;" class="cls-18" points="261.65 152.25 261.65 140.84 162.56 197.93 182.21 197.93 182.21 209.33 281.29 152.25 261.65 152.25"/><polygon id="_Trazado_35" data-name="&lt;Trazado&gt;" class="cls-28" points="261.65 152.25 261.65 140.84 162.56 197.93 182.21 197.93 182.21 209.33 281.29 152.25 261.65 152.25"/></g><g id="_Grupo_16" data-name="&lt;Grupo&gt;" class="cls-20"><path id="_Trazado_36" data-name="&lt;Trazado&gt;" class="cls-29" d="M234.63,255a14.1,14.1,0,0,1-7.89-2.33c-11.18-7.33-12.27-29.38-12.31-30.32a1.43,1.43,0,0,1,2.85-.12c0,.21,1.06,21.53,11,28.06,3.46,2.26,7.71,2.46,12.64.56,20.18-7.75,18.36-52,18.34-52.4a1.43,1.43,0,0,1,1.36-1.49,1.44,1.44,0,0,1,1.49,1.36,124.09,124.09,0,0,1-1.63,24.13c-2.93,17-9.17,27.47-18.54,31.06A20.52,20.52,0,0,1,234.63,255Z"/></g><g id="_Grupo_17" data-name="&lt;Grupo&gt;"><path id="_Trazado_37" data-name="&lt;Trazado&gt;" class="cls-22" d="M235.93,252.79a14.1,14.1,0,0,1-7.89-2.33c-11.18-7.33-12.27-29.38-12.31-30.32a1.43,1.43,0,0,1,2.85-.12c0,.21,1.06,21.53,11,28.06,3.46,2.27,7.71,2.46,12.64.56,20.18-7.75,18.36-52,18.34-52.4a1.43,1.43,0,0,1,1.36-1.49,1.44,1.44,0,0,1,1.49,1.36,124.09,124.09,0,0,1-1.63,24.13c-2.93,17-9.17,27.47-18.54,31.06A20.52,20.52,0,0,1,235.93,252.79Z"/></g><circle id="_Trazado_38" data-name="&lt;Trazado&gt;" class="cls-23" cx="217.16" cy="220.07" r="3.55"/><circle id="_Trazado_39" data-name="&lt;Trazado&gt;" class="cls-23" cx="262.01" cy="196.17" r="3.55"/><polygon id="_Trazado_40" data-name="&lt;Trazado&gt;" class="cls-18" points="154.34 326.29 182.21 315.93 188.62 346.08 154.34 326.29"/><polygon id="_Trazado_41" data-name="&lt;Trazado&gt;" class="cls-30" points="154.34 326.29 182.21 315.93 188.62 346.08 154.34 326.29"/><polygon id="_Trazado_42" data-name="&lt;Trazado&gt;" class="cls-31" points="261.65 152.25 261.65 163.57 281.29 152.25 261.65 152.25"/><polygon id="_Trazado_43" data-name="&lt;Trazado&gt;" class="cls-32" points="154.34 326.29 182.21 315.93 182.21 197.93 162.56 197.93 154.34 326.29"/></g></g><g id="_Grupo_18" data-name="&lt;Grupo&gt;"><path id="_Trazado_44" data-name="&lt;Trazado&gt;" class="cls-33" d="M317.14,347l29.62,17.1c7.21,4.16,19.12,3.7,25.3-1l36.13-29.26L368.53,311,318.84,332.4C310.73,336,309.93,342.84,317.14,347Z"/><path id="_Trazado_45" data-name="&lt;Trazado&gt;" class="cls-22" d="M317.14,343.63l29.62,17.1c7.21,4.16,19.12,3.7,25.3-1l33.78-27.33-39.67-22.9L318.84,329C310.73,332.59,309.93,339.46,317.14,343.63Z"/><path id="_Trazado_46" data-name="&lt;Trazado&gt;" class="cls-34" d="M317.14,343.63l29.62,17.1c7.21,4.16,19.12,3.7,25.3-1l33.78-27.33-39.67-22.9L318.84,329C310.73,332.59,309.93,339.46,317.14,343.63Z"/><path id="_Trazado_47" data-name="&lt;Trazado&gt;" class="cls-35" d="M285.34,268.61,308.07,125.5a6.65,6.65,0,0,1,3.52-4.87l-1.09-.8h4.94v.08a6.62,6.62,0,0,1,2.63.82l171.78,99.18a6.72,6.72,0,0,1,3.28,6.9L470,369.84a6.7,6.7,0,0,1-6.42,5.62v0h-5l1.56-.85-.14-.06-171.4-99.11A6.72,6.72,0,0,1,285.34,268.61Z"/><path id="_Trazado_48" data-name="&lt;Trazado&gt;" class="cls-36" d="M455.67,374.59l-171.4-99.11a6.72,6.72,0,0,1-3.27-6.87L303.73,125.5a6.72,6.72,0,0,1,10-4.77l171.78,99.18a6.72,6.72,0,0,1,3.28,6.9l-23.12,143A6.72,6.72,0,0,1,455.67,374.59Z"/><path id="_Trazado_49" data-name="&lt;Trazado&gt;" class="cls-37" d="M455.66,362.12,292.31,267.71a4.08,4.08,0,0,1-2-4.17l20.36-128.16a4.08,4.08,0,0,1,6.07-2.89l160.73,92.76a4.08,4.08,0,0,1,2,4.18L458.21,360.91A1.72,1.72,0,0,1,455.66,362.12Z"/><path id="_Trazado_50" data-name="&lt;Trazado&gt;" class="cls-38" d="M295.17,267.29a4.08,4.08,0,0,1-2-4.17L313.54,135a4,4,0,0,1,2-2.92,4.08,4.08,0,0,0-4.9,3.34L290.32,263.54a4.08,4.08,0,0,0,2,4.17l163.34,94.41a1.71,1.71,0,0,0,2.38-.7Z"/><path id="_Trazado_51" data-name="&lt;Trazado&gt;" class="cls-39" d="M455.66,362.12,292.31,267.71a4.08,4.08,0,0,1-2-4.17l20.36-128.16a4.08,4.08,0,0,1,6.07-2.89l160.73,92.76a4.08,4.08,0,0,1,2,4.18L458.21,360.91A1.72,1.72,0,0,1,455.66,362.12Z"/><polygon id="_Trazado_52" data-name="&lt;Trazado&gt;" class="cls-40" points="325.25 137.39 420.48 341.79 444.8 355.76 344.93 148.75 325.25 137.39"/><polygon id="_Trazado_53" data-name="&lt;Trazado&gt;" class="cls-40" points="459.38 353.7 460.63 345.97 377.63 167.62 370.87 163.72 459.38 353.7"/><g id="_Grupo_19" data-name="&lt;Grupo&gt;"><g id="_Grupo_20" data-name="&lt;Grupo&gt;"><path id="_Trazado_54" data-name="&lt;Trazado&gt;" class="cls-22" d="M442.68,310.85l-28.47-16.47a6.28,6.28,0,0,1-2.92-5.9l9.47-53.06c.35-2.09,2.23-2.84,4.19-1.68l28.47,16.47a6.28,6.28,0,0,1,2.92,5.9l-9.47,53.06C446.52,311.26,444.64,312,442.68,310.85Z"/><path id="_Trazado_55" data-name="&lt;Trazado&gt;" class="cls-41" d="M428.51,242.38c0,1.55-1.07,2.18-2.42,1.42a5.37,5.37,0,0,1-2.45-4.19c0-1.55,1.07-2.18,2.42-1.42A5.37,5.37,0,0,1,428.51,242.38Z"/></g><g id="_Grupo_21" data-name="&lt;Grupo&gt;"><path id="_Trazado_56" data-name="&lt;Trazado&gt;" class="cls-22" d="M394,282.92l-28.47-16.47a6.28,6.28,0,0,1-2.92-5.9l9.47-53.06c.35-2.09,2.23-2.84,4.19-1.68l28.47,16.47a6.28,6.28,0,0,1,2.92,5.9l-9.47,53.06C397.86,283.34,396,284.09,394,282.92Z"/><path id="_Trazado_57" data-name="&lt;Trazado&gt;" class="cls-41" d="M379.86,214.46c0,1.55-1.07,2.18-2.42,1.42a5.37,5.37,0,0,1-2.45-4.19c0-1.55,1.07-2.18,2.42-1.42A5.37,5.37,0,0,1,379.86,214.46Z"/></g><g id="_Grupo_22" data-name="&lt;Grupo&gt;"><path id="_Trazado_58" data-name="&lt;Trazado&gt;" class="cls-22" d="M345.11,254.4l-28.47-16.47a6.28,6.28,0,0,1-2.92-5.9L323.18,179c.35-2.09,2.23-2.84,4.19-1.68l28.47,16.47a6.28,6.28,0,0,1,2.92,5.9l-9.47,53.06C348.95,254.82,347.07,255.57,345.11,254.4Z"/><path id="_Trazado_59" data-name="&lt;Trazado&gt;" class="cls-41" d="M330.94,185.93c0,1.55-1.07,2.18-2.42,1.42a5.36,5.36,0,0,1-2.45-4.19c0-1.55,1.07-2.18,2.42-1.42A5.37,5.37,0,0,1,330.94,185.93Z"/></g></g><g id="_Grupo_23" data-name="&lt;Grupo&gt;"><polygon id="_Trazado_60" data-name="&lt;Trazado&gt;" class="cls-42" points="336.24 215.89 325.25 209.54 336.24 203.2 347.23 209.54 336.24 215.89"/><g id="_Grupo_24" data-name="&lt;Grupo&gt;"><polygon id="_Trazado_61" data-name="&lt;Trazado&gt;" class="cls-42" points="329.85 209.54 336.24 205.85 342.63 209.54 336.24 213.23 329.85 209.54"/><polygon id="_Trazado_62" data-name="&lt;Trazado&gt;" class="cls-43" points="329.85 209.54 336.24 205.85 342.63 209.54 336.24 213.23 329.85 209.54"/></g><polygon id="_Trazado_63" data-name="&lt;Trazado&gt;" class="cls-44" points="336.24 228.49 325.25 222.15 325.25 209.54 336.24 215.89 336.24 228.49"/><polygon id="_Trazado_64" data-name="&lt;Trazado&gt;" class="cls-45" points="336.24 228.49 336.24 215.89 347.23 209.54 347.23 222.15 336.24 228.49"/><g id="_Grupo_25" data-name="&lt;Grupo&gt;"><polygon id="_Trazado_65" data-name="&lt;Trazado&gt;" class="cls-46" points="338.54 217.17 344.93 213.48 344.93 220.86 338.54 224.55 338.54 217.17"/><polygon id="_Trazado_66" data-name="&lt;Trazado&gt;" class="cls-47" points="338.54 217.17 344.93 213.48 344.93 220.86 338.54 224.55 338.54 217.17"/></g><g id="_Grupo_26" data-name="&lt;Grupo&gt;"><polygon id="_Trazado_67" data-name="&lt;Trazado&gt;" class="cls-42" points="333.94 217.17 327.55 213.48 327.55 220.86 333.94 224.55 333.94 217.17"/><polygon id="_Trazado_68" data-name="&lt;Trazado&gt;" class="cls-48" points="333.94 217.17 327.55 213.48 327.55 220.86 333.94 224.55 333.94 217.17"/></g></g><g id="_Grupo_27" data-name="&lt;Grupo&gt;"><polygon id="_Trazado_69" data-name="&lt;Trazado&gt;" class="cls-42" points="384.89 243.91 373.91 237.57 384.89 231.22 395.88 237.57 384.89 243.91"/><g id="_Grupo_28" data-name="&lt;Grupo&gt;"><polygon id="_Trazado_70" data-name="&lt;Trazado&gt;" class="cls-42" points="378.5 237.57 384.89 233.88 391.29 237.57 384.89 241.26 378.5 237.57"/><polygon id="_Trazado_71" data-name="&lt;Trazado&gt;" class="cls-49" points="378.5 237.57 384.89 233.88 391.29 237.57 384.89 241.26 378.5 237.57"/></g><polygon id="_Trazado_72" data-name="&lt;Trazado&gt;" class="cls-44" points="384.89 256.51 373.91 250.17 373.91 237.57 384.89 243.91 384.89 256.51"/><polygon id="_Trazado_73" data-name="&lt;Trazado&gt;" class="cls-45" points="384.89 256.51 384.89 243.91 395.88 237.57 395.88 250.17 384.89 256.51"/><g id="_Grupo_29" data-name="&lt;Grupo&gt;"><polygon id="_Trazado_74" data-name="&lt;Trazado&gt;" class="cls-46" points="387.19 245.19 393.58 241.5 393.58 248.89 387.19 252.58 387.19 245.19"/><polygon id="_Trazado_75" data-name="&lt;Trazado&gt;" class="cls-50" points="387.19 245.19 393.58 241.5 393.58 248.89 387.19 252.58 387.19 245.19"/></g><g id="_Grupo_30" data-name="&lt;Grupo&gt;"><polygon id="_Trazado_76" data-name="&lt;Trazado&gt;" class="cls-42" points="382.6 245.19 376.21 241.5 376.21 248.89 382.6 252.58 382.6 245.19"/><polygon id="_Trazado_77" data-name="&lt;Trazado&gt;" class="cls-51" points="382.6 245.19 376.21 241.5 376.21 248.89 382.6 252.58 382.6 245.19"/></g></g><g id="_Grupo_31" data-name="&lt;Grupo&gt;"><polygon id="_Trazado_78" data-name="&lt;Trazado&gt;" class="cls-42" points="433.81 272.33 422.83 265.99 433.81 259.65 444.8 265.99 433.81 272.33"/><g id="_Grupo_32" data-name="&lt;Grupo&gt;"><polygon id="_Trazado_79" data-name="&lt;Trazado&gt;" class="cls-42" points="427.42 265.99 433.81 262.3 440.21 265.99 433.81 269.68 427.42 265.99"/><polygon id="_Trazado_80" data-name="&lt;Trazado&gt;" class="cls-52" points="427.42 265.99 433.81 262.3 440.21 265.99 433.81 269.68 427.42 265.99"/></g><polygon id="_Trazado_81" data-name="&lt;Trazado&gt;" class="cls-44" points="433.81 284.93 422.83 278.59 422.83 265.99 433.81 272.33 433.81 284.93"/><polygon id="_Trazado_82" data-name="&lt;Trazado&gt;" class="cls-45" points="433.81 284.93 433.81 272.33 444.8 265.99 444.8 278.59 433.81 284.93"/><g id="_Grupo_33" data-name="&lt;Grupo&gt;"><polygon id="_Trazado_83" data-name="&lt;Trazado&gt;" class="cls-46" points="436.11 273.62 442.5 269.93 442.5 277.31 436.11 281 436.11 273.62"/><polygon id="_Trazado_84" data-name="&lt;Trazado&gt;" class="cls-53" points="436.11 273.62 442.5 269.93 442.5 277.31 436.11 281 436.11 273.62"/></g><g id="_Grupo_34" data-name="&lt;Grupo&gt;"><polygon id="_Trazado_85" data-name="&lt;Trazado&gt;" class="cls-42" points="431.52 273.62 425.12 269.93 425.12 277.31 431.52 281 431.52 273.62"/><polygon id="_Trazado_86" data-name="&lt;Trazado&gt;" class="cls-54" points="431.52 273.62 425.12 269.93 425.12 277.31 431.52 281 431.52 273.62"/></g></g></g><g id="_Grupo_35" data-name="&lt;Grupo&gt;"><polygon id="_Trazado_87" data-name="&lt;Trazado&gt;" class="cls-35" points="373.91 396.27 373.88 403.49 333.43 427 333.46 419.78 373.91 396.27"/><polygon id="_Trazado_88" data-name="&lt;Trazado&gt;" class="cls-35" points="333.46 419.78 333.43 427 226.89 365.49 226.92 358.26 333.46 419.78"/><polygon id="_Trazado_89" data-name="&lt;Trazado&gt;" class="cls-36" points="373.91 396.27 333.46 419.78 226.92 358.26 267.37 334.76 373.91 396.27"/><g id="_Grupo_36" data-name="&lt;Grupo&gt;"><g id="_Grupo_37" data-name="&lt;Grupo&gt;" class="cls-1"><g id="_Grupo_38" data-name="&lt;Grupo&gt;"><polygon id="_Trazado_90" data-name="&lt;Trazado&gt;" class="cls-55" points="283.85 349.23 283.85 351.4 275.88 356.03 275.89 353.86 283.85 349.23"/></g><g id="_Grupo_39" data-name="&lt;Grupo&gt;"><polygon id="_Trazado_91" data-name="&lt;Trazado&gt;" class="cls-56" points="275.89 353.86 275.88 356.03 260.04 346.88 260.04 344.71 275.89 353.86"/></g><g id="_Grupo_40" data-name="&lt;Grupo&gt;"><polygon id="_Trazado_92" data-name="&lt;Trazado&gt;" class="cls-22" points="283.85 349.23 275.89 353.86 260.04 344.71 268.01 340.08 283.85 349.23"/></g></g><g id="_Grupo_41" data-name="&lt;Grupo&gt;" class="cls-1"><g id="_Grupo_42" data-name="&lt;Grupo&gt;"><polygon id="_Trazado_93" data-name="&lt;Trazado&gt;" class="cls-55" points="272.84 355.63 272.84 357.8 264.87 362.43 264.88 360.26 272.84 355.63"/></g><g id="_Grupo_43" data-name="&lt;Grupo&gt;"><polygon id="_Trazado_94" data-name="&lt;Trazado&gt;" class="cls-56" points="264.88 360.26 264.87 362.43 249.03 353.28 249.03 351.11 264.88 360.26"/></g><g id="_Grupo_44" data-name="&lt;Grupo&gt;"><polygon id="_Trazado_95" data-name="&lt;Trazado&gt;" class="cls-22" points="272.84 355.63 264.88 360.26 249.03 351.11 257 346.48 272.84 355.63"/></g></g><g id="_Grupo_45" data-name="&lt;Grupo&gt;" class="cls-1"><g id="_Grupo_46" data-name="&lt;Grupo&gt;"><polygon id="_Trazado_96" data-name="&lt;Trazado&gt;" class="cls-35" points="255.59 358.46 255.59 360.63 247.62 365.26 247.63 363.09 255.59 358.46"/></g><g id="_Grupo_47" data-name="&lt;Grupo&gt;"><polygon id="_Trazado_97" data-name="&lt;Trazado&gt;" class="cls-56" points="247.63 363.09 247.62 365.26 237.99 359.7 237.99 357.53 247.63 363.09"/></g><g id="_Grupo_48" data-name="&lt;Grupo&gt;"><polygon id="_Trazado_98" data-name="&lt;Trazado&gt;" class="cls-22" points="255.59 358.46 247.63 363.09 237.99 357.53 245.96 352.9 255.59 358.46"/></g></g><g id="_Grupo_49" data-name="&lt;Grupo&gt;" class="cls-1"><g id="_Grupo_50" data-name="&lt;Grupo&gt;"><polygon id="_Trazado_99" data-name="&lt;Trazado&gt;" class="cls-55" points="296.41 356.48 296.4 358.65 288.44 363.28 288.44 361.11 296.41 356.48"/></g><g id="_Grupo_51" data-name="&lt;Grupo&gt;"><polygon id="_Trazado_100" data-name="&lt;Trazado&gt;" class="cls-56" points="288.44 361.11 288.44 363.28 279.29 358 279.29 355.83 288.44 361.11"/></g><g id="_Grupo_52" data-name="&lt;Grupo&gt;"><polygon id="_Trazado_101" data-name="&lt;Trazado&gt;" class="cls-22" points="296.41 356.48 288.44 361.11 279.29 355.83 287.26 351.2 296.41 356.48"/></g></g><g id="_Grupo_53" data-name="&lt;Grupo&gt;" class="cls-1"><g id="_Grupo_54" data-name="&lt;Grupo&gt;"><polygon id="_Trazado_102" data-name="&lt;Trazado&gt;" class="cls-55" points="285.4 362.88 285.39 365.05 277.43 369.68 277.43 367.51 285.4 362.88"/></g><g id="_Grupo_55" data-name="&lt;Grupo&gt;"><polygon id="_Trazado_103" data-name="&lt;Trazado&gt;" class="cls-56" points="277.43 367.51 277.43 369.68 268.27 364.4 268.28 362.23 277.43 367.51"/></g><g id="_Grupo_56" data-name="&lt;Grupo&gt;"><polygon id="_Trazado_104" data-name="&lt;Trazado&gt;" class="cls-22" points="285.4 362.88 277.43 367.51 268.28 362.23 276.25 357.6 285.4 362.88"/></g></g><g id="_Grupo_57" data-name="&lt;Grupo&gt;" class="cls-1"><g id="_Grupo_58" data-name="&lt;Grupo&gt;"><polygon id="_Trazado_105" data-name="&lt;Trazado&gt;" class="cls-55" points="308.66 363.56 308.65 365.73 300.69 370.36 300.69 368.19 308.66 363.56"/></g><g id="_Grupo_59" data-name="&lt;Grupo&gt;"><polygon id="_Trazado_106" data-name="&lt;Trazado&gt;" class="cls-56" points="300.69 368.19 300.69 370.36 291.54 365.07 291.55 362.9 300.69 368.19"/></g><g id="_Grupo_60" data-name="&lt;Grupo&gt;"><polygon id="_Trazado_107" data-name="&lt;Trazado&gt;" class="cls-22" points="308.66 363.56 300.69 368.19 291.55 362.9 299.51 358.27 308.66 363.56"/></g></g><g id="_Grupo_61" data-name="&lt;Grupo&gt;" class="cls-1"><g id="_Grupo_62" data-name="&lt;Grupo&gt;"><polygon id="_Trazado_108" data-name="&lt;Trazado&gt;" class="cls-55" points="297.65 369.95 297.64 372.13 289.68 376.75 289.69 374.58 297.65 369.95"/></g><g id="_Grupo_63" data-name="&lt;Grupo&gt;"><polygon id="_Trazado_109" data-name="&lt;Trazado&gt;" class="cls-56" points="289.69 374.58 289.68 376.75 280.53 371.47 280.54 369.3 289.69 374.58"/></g><g id="_Grupo_64" data-name="&lt;Grupo&gt;"><polygon id="_Trazado_110" data-name="&lt;Trazado&gt;" class="cls-22" points="297.65 369.95 289.69 374.58 280.54 369.3 288.5 364.67 297.65 369.95"/></g></g><g id="_Grupo_65" data-name="&lt;Grupo&gt;" class="cls-1"><g id="_Grupo_66" data-name="&lt;Grupo&gt;"><polygon id="_Trazado_111" data-name="&lt;Trazado&gt;" class="cls-55" points="320.74 370.53 320.73 372.7 312.77 377.33 312.77 375.16 320.74 370.53"/></g><g id="_Grupo_67" data-name="&lt;Grupo&gt;"><polygon id="_Trazado_112" data-name="&lt;Trazado&gt;" class="cls-56" points="312.77 375.16 312.77 377.33 303.62 372.05 303.62 369.88 312.77 375.16"/></g><g id="_Grupo_68" data-name="&lt;Grupo&gt;"><polygon id="_Trazado_113" data-name="&lt;Trazado&gt;" class="cls-22" points="320.74 370.53 312.77 375.16 303.62 369.88 311.59 365.25 320.74 370.53"/></g></g><g id="_Grupo_69" data-name="&lt;Grupo&gt;" class="cls-1"><g id="_Grupo_70" data-name="&lt;Grupo&gt;"><polygon id="_Trazado_114" data-name="&lt;Trazado&gt;" class="cls-55" points="309.73 376.93 309.72 379.1 301.76 383.73 301.76 381.56 309.73 376.93"/></g><g id="_Grupo_71" data-name="&lt;Grupo&gt;"><polygon id="_Trazado_115" data-name="&lt;Trazado&gt;" class="cls-56" points="301.76 381.56 301.76 383.73 292.61 378.44 292.61 376.27 301.76 381.56"/></g><g id="_Grupo_72" data-name="&lt;Grupo&gt;"><polygon id="_Trazado_116" data-name="&lt;Trazado&gt;" class="cls-22" points="309.73 376.93 301.76 381.56 292.61 376.27 300.58 371.64 309.73 376.93"/></g></g><g id="_Grupo_73" data-name="&lt;Grupo&gt;" class="cls-1"><g id="_Grupo_74" data-name="&lt;Grupo&gt;"><polygon id="_Trazado_117" data-name="&lt;Trazado&gt;" class="cls-55" points="332.99 377.61 332.99 379.77 325.02 384.4 325.03 382.23 332.99 377.61"/></g><g id="_Grupo_75" data-name="&lt;Grupo&gt;"><polygon id="_Trazado_118" data-name="&lt;Trazado&gt;" class="cls-56" points="325.03 382.23 325.02 384.4 315.87 379.12 315.88 376.95 325.03 382.23"/></g><g id="_Grupo_76" data-name="&lt;Grupo&gt;"><polygon id="_Trazado_119" data-name="&lt;Trazado&gt;" class="cls-22" points="332.99 377.61 325.03 382.23 315.88 376.95 323.84 372.32 332.99 377.61"/></g></g><g id="_Grupo_77" data-name="&lt;Grupo&gt;" class="cls-1"><g id="_Grupo_78" data-name="&lt;Grupo&gt;"><polygon id="_Trazado_120" data-name="&lt;Trazado&gt;" class="cls-55" points="321.98 384 321.98 386.17 314.01 390.8 314.02 388.63 321.98 384"/></g><g id="_Grupo_79" data-name="&lt;Grupo&gt;"><polygon id="_Trazado_121" data-name="&lt;Trazado&gt;" class="cls-56" points="314.02 388.63 314.01 390.8 304.86 385.52 304.87 383.35 314.02 388.63"/></g><g id="_Grupo_80" data-name="&lt;Grupo&gt;"><polygon id="_Trazado_122" data-name="&lt;Trazado&gt;" class="cls-22" points="321.98 384 314.02 388.63 304.87 383.35 312.83 378.72 321.98 384"/></g></g><g id="_Grupo_81" data-name="&lt;Grupo&gt;" class="cls-1"><g id="_Grupo_82" data-name="&lt;Grupo&gt;"><polygon id="_Trazado_123" data-name="&lt;Trazado&gt;" class="cls-55" points="350.06 387.46 350.05 389.63 339.04 396.02 339.05 393.85 350.06 387.46"/></g><g id="_Grupo_83" data-name="&lt;Grupo&gt;"><polygon id="_Trazado_124" data-name="&lt;Trazado&gt;" class="cls-56" points="323.06 393.85 323.06 396.02 317.22 392.66 317.23 390.49 323.06 393.85"/></g><g id="_Grupo_84" data-name="&lt;Grupo&gt;"><polygon id="_Trazado_125" data-name="&lt;Trazado&gt;" class="cls-56" points="331.08 398.48 331.07 400.65 323.06 396.02 323.06 393.85 331.08 398.48"/></g><g id="_Grupo_85" data-name="&lt;Grupo&gt;"><polygon id="_Trazado_126" data-name="&lt;Trazado&gt;" class="cls-55" points="339.05 393.85 339.04 396.02 331.07 400.65 331.08 398.48 339.05 393.85"/></g><g id="_Grupo_86" data-name="&lt;Grupo&gt;"><polygon id="_Trazado_127" data-name="&lt;Trazado&gt;" class="cls-22" points="350.06 387.46 339.05 393.85 331.08 398.48 323.06 393.85 317.23 390.49 325.19 385.86 331.03 389.22 342.04 382.83 350.06 387.46"/></g></g><g id="_Grupo_87" data-name="&lt;Grupo&gt;" class="cls-1"><g id="_Grupo_88" data-name="&lt;Grupo&gt;"><polygon id="_Trazado_128" data-name="&lt;Trazado&gt;" class="cls-55" points="328.01 400.27 328 402.44 320.03 407.07 320.04 404.9 328.01 400.27"/></g><g id="_Grupo_89" data-name="&lt;Grupo&gt;"><polygon id="_Trazado_129" data-name="&lt;Trazado&gt;" class="cls-56" points="320.04 404.9 320.03 407.07 251.71 367.62 251.72 365.45 320.04 404.9"/></g><g id="_Grupo_90" data-name="&lt;Grupo&gt;"><polygon id="_Trazado_130" data-name="&lt;Trazado&gt;" class="cls-22" points="328.01 400.27 320.04 404.9 251.72 365.45 259.69 360.82 328.01 400.27"/></g></g><g id="_Grupo_91" data-name="&lt;Grupo&gt;" class="cls-1"><g id="_Grupo_92" data-name="&lt;Grupo&gt;"><polygon id="_Trazado_131" data-name="&lt;Trazado&gt;" class="cls-55" points="362.84 394.84 362.83 397.01 354.87 401.64 354.88 399.47 362.84 394.84"/></g><g id="_Grupo_93" data-name="&lt;Grupo&gt;"><polygon id="_Trazado_132" data-name="&lt;Trazado&gt;" class="cls-56" points="354.88 399.47 354.87 401.64 345.72 396.35 345.73 394.18 354.88 399.47"/></g><g id="_Grupo_94" data-name="&lt;Grupo&gt;"><polygon id="_Trazado_133" data-name="&lt;Trazado&gt;" class="cls-22" points="362.84 394.84 354.88 399.47 345.73 394.18 353.69 389.55 362.84 394.84"/></g></g><g id="_Grupo_95" data-name="&lt;Grupo&gt;" class="cls-1"><g id="_Grupo_96" data-name="&lt;Grupo&gt;"><polygon id="_Trazado_134" data-name="&lt;Trazado&gt;" class="cls-55" points="351.83 401.24 351.82 403.4 343.86 408.04 343.87 405.86 351.83 401.24"/></g><g id="_Grupo_97" data-name="&lt;Grupo&gt;"><polygon id="_Trazado_135" data-name="&lt;Trazado&gt;" class="cls-56" points="343.87 405.86 343.86 408.04 334.71 402.75 334.71 400.58 343.87 405.86"/></g><g id="_Grupo_98" data-name="&lt;Grupo&gt;"><polygon id="_Trazado_136" data-name="&lt;Trazado&gt;" class="cls-22" points="351.83 401.24 343.87 405.86 334.71 400.58 342.68 395.95 351.83 401.24"/></g></g><g id="_Grupo_99" data-name="&lt;Grupo&gt;" class="cls-1"><g id="_Grupo_100" data-name="&lt;Grupo&gt;"><polygon id="_Trazado_137" data-name="&lt;Trazado&gt;" class="cls-55" points="340.79 407.65 340.79 409.82 332.82 414.45 332.82 412.28 340.79 407.65"/></g><g id="_Grupo_101" data-name="&lt;Grupo&gt;"><polygon id="_Trazado_138" data-name="&lt;Trazado&gt;" class="cls-56" points="332.82 412.28 332.82 414.45 323.67 409.17 323.68 407 332.82 412.28"/></g><g id="_Grupo_102" data-name="&lt;Grupo&gt;"><polygon id="_Trazado_139" data-name="&lt;Trazado&gt;" class="cls-22" points="340.79 407.65 332.82 412.28 323.68 407 331.64 402.37 340.79 407.65"/></g></g></g></g><g id="_Grupo_103" data-name="&lt;Grupo&gt;"><path id="_Trazado_140" data-name="&lt;Trazado&gt;" class="cls-57" d="M484.93,172l-33.71-19.46a4.09,4.09,0,0,1-2-3.54V110.11a1.41,1.41,0,0,1,2.11-1.22L485,128.36a4.09,4.09,0,0,1,2,3.54v38.92A1.41,1.41,0,0,1,484.93,172Z"/><path id="_Trazado_141" data-name="&lt;Trazado&gt;" class="cls-58" d="M468.11,141.26c2.74,1.58,5,.3,5-2.86a11,11,0,0,0-5-8.58c-2.74-1.58-5-.3-5,2.86a11,11,0,0,0,5,8.58c-3.36-1.94-6.08-.37-6.08,3.51l12.16,7A13.44,13.44,0,0,0,468.11,141.26Z"/></g><g id="_Grupo_104" data-name="&lt;Grupo&gt;"><path id="_Trazado_142" data-name="&lt;Trazado&gt;" class="cls-59" d="M338.64,278.2,253.42,229a10.33,10.33,0,0,1-5.17-8.95V121.65a3.56,3.56,0,0,1,5.33-3.08l85.22,49.2a10.33,10.33,0,0,1,5.17,8.95v98.41A3.56,3.56,0,0,1,338.64,278.2Z"/></g><g id="_Grupo_105" data-name="&lt;Grupo&gt;"><path id="_Trazado_143" data-name="&lt;Trazado&gt;" class="cls-60" d="M425.48,138.87,395.91,121.8a3.58,3.58,0,0,1-1.79-3.1V84.56A1.23,1.23,0,0,1,396,83.49l29.56,17.07a3.58,3.58,0,0,1,1.79,3.1V137.8A1.23,1.23,0,0,1,425.48,138.87Z"/><g id="_Grupo_106" data-name="&lt;Grupo&gt;"><g id="_Grupo_107" data-name="&lt;Grupo&gt;"><g id="_Grupo_108" data-name="&lt;Grupo&gt;"><polygon id="_Trazado_144" data-name="&lt;Trazado&gt;" class="cls-22" points="419.41 108.58 402.03 98.54 410.72 109.92 419.41 108.58"/></g><g id="_Grupo_109" data-name="&lt;Grupo&gt;"><polygon id="_Trazado_145" data-name="&lt;Trazado&gt;" class="cls-22" points="410.72 112.41 400.79 99.42 400.79 112.35 420.65 123.82 420.65 110.88 410.72 112.41"/></g></g></g></g><g id="_Grupo_110" data-name="&lt;Grupo&gt;"><path id="_Trazado_146" data-name="&lt;Trazado&gt;" class="cls-37" d="M365.38,104.71,335.75,87.6a3.59,3.59,0,0,1-1.8-3.11l0-34.16a1.23,1.23,0,0,1,1.85-1.07L365.4,66.38a3.59,3.59,0,0,1,1.8,3.11l0,34.16A1.23,1.23,0,0,1,365.38,104.71Z"/><path id="_Trazado_147" data-name="&lt;Trazado&gt;" class="cls-22" d="M340.13,74c1,6.72,6.12,13.73,11.44,15.65,2.34.85,4.34.57,5.75-.59l3.77,4L359,86.68a11.33,11.33,0,0,0,.43-5.71c-1-6.72-6.12-13.73-11.44-15.65S339.14,67.28,340.13,74Z"/></g><g id="_Grupo_111" data-name="&lt;Grupo&gt;"><g id="_Grupo_112" data-name="&lt;Grupo&gt;"><path id="_Trazado_148" data-name="&lt;Trazado&gt;" class="cls-61" d="M326.38,287.83l-85.22-49.2a10.33,10.33,0,0,1-5.16-8.95V131.28a3.56,3.56,0,0,1,5.33-3.08l85.22,49.2a10.33,10.33,0,0,1,5.16,8.95v98.41A3.56,3.56,0,0,1,326.38,287.83Z"/></g><path id="_Trazado_compuesto_3" data-name="&lt;Trazado compuesto&gt;" class="cls-22" d="M301.38,205.31l-.4-.23,0-9.21c0-7.31-5.18-16.21-11.52-19.85l-11.38-6.53c-6.34-3.64-11.48-.65-11.46,6.65l0,9.21-.4-.23c-2.4-1.38-4.35-.25-4.34,2.52L262,219.8a9.6,9.6,0,0,0,4.36,7.51l35.16,20.19c2.4,1.38,4.34.25,4.34-2.52l-.07-32.17A9.6,9.6,0,0,0,301.38,205.31Zm-29.3-26c0-3.82,2.68-5.38,6-3.48l11.38,6.53a13.28,13.28,0,0,1,6,10.38l0,9.21L272.11,188.5Zm14.32,37.1,0,11.3c0,1.63-1.14,2.29-2.55,1.48a5.65,5.65,0,0,1-2.57-4.42l0-11.3a11.61,11.61,0,0,1-2.75-6.93c0-3.37,2.36-4.75,5.29-3.07a11.7,11.7,0,0,1,5.31,9.15C289.14,214.92,288,216.29,286.41,216.39Z"/></g><g id="_Grupo_113" data-name="&lt;Grupo&gt;"><g id="_Grupo_114" data-name="&lt;Grupo&gt;"><path id="_Trazado_149" data-name="&lt;Trazado&gt;" class="cls-62" d="M334.94,110.4l-4.82-2.78a28,28,0,0,1-14-24.2V77.84a11.2,11.2,0,0,1,16.8-9.7l4.82,2.78a28,28,0,0,1,14,24.2v5.57A11.2,11.2,0,0,1,334.94,110.4Z"/></g><path id="_Trazado_compuesto_4" data-name="&lt;Trazado compuesto&gt;" class="cls-22" d="M340.46,88.26l-.15-.09V84.75A9.45,9.45,0,0,0,336,77.37l-4.23-2.43c-2.36-1.35-4.27-.24-4.26,2.47v3.43l-.15-.09c-.89-.51-1.62-.09-1.61.94l0,12a3.57,3.57,0,0,0,1.62,2.79L340.5,104c.89.51,1.62.09,1.61-.94l0-12A3.57,3.57,0,0,0,340.46,88.26Zm-10.89-9.68c0-1.42,1-2,2.23-1.29L336,79.72a4.94,4.94,0,0,1,2.24,3.86V87l-8.7-5Zm5.33,13.8v4.2c0,.61-.42.85-.95.55a2.1,2.1,0,0,1-1-1.64v-4.2a4.32,4.32,0,0,1-1-2.58c0-1.26.88-1.77,2-1.14a4.35,4.35,0,0,1,2,3.4C335.91,91.84,335.5,92.34,334.89,92.38Z"/></g><g id="_Grupo_115" data-name="&lt;Grupo&gt;"><g id="_Grupo_116" data-name="&lt;Grupo&gt;"><path id="_Trazado_150" data-name="&lt;Trazado&gt;" class="cls-62" d="M394.58,144.1l-4.82-2.78a28,28,0,0,1-14-24.2v-5.57a11.2,11.2,0,0,1,16.8-9.7l4.82,2.78a28,28,0,0,1,14,24.2v5.57A11.2,11.2,0,0,1,394.58,144.1Z"/></g><path id="_Trazado_compuesto_5" data-name="&lt;Trazado compuesto&gt;" class="cls-22" d="M400.1,122l-.15-.09v-3.43a9.45,9.45,0,0,0-4.28-7.38l-4.23-2.43c-2.36-1.35-4.27-.24-4.26,2.47v3.43l-.15-.09c-.89-.51-1.62-.09-1.61.94l0,12a3.57,3.57,0,0,0,1.62,2.79l13.07,7.51c.89.51,1.62.09,1.61-.94l0-12A3.57,3.57,0,0,0,400.1,122Zm-10.89-9.68c0-1.42,1-2,2.23-1.29l4.23,2.43a4.94,4.94,0,0,1,2.24,3.86v3.43l-8.7-5Zm5.33,13.8v4.2c0,.61-.42.85-.95.55a2.1,2.1,0,0,1-1-1.64V125a4.32,4.32,0,0,1-1-2.58c0-1.26.88-1.77,2-1.14a4.35,4.35,0,0,1,2,3.4C395.55,125.54,395.14,126,394.53,126.08Z"/></g><g id="_Grupo_117" data-name="&lt;Grupo&gt;"><g id="_Grupo_118" data-name="&lt;Grupo&gt;"><path id="_Trazado_151" data-name="&lt;Trazado&gt;" class="cls-62" d="M450.63,176l-4.82-2.78a28,28,0,0,1-14-24.2v-5.57a11.2,11.2,0,0,1,16.8-9.7l4.82,2.78a28,28,0,0,1,14,24.2v5.57A11.2,11.2,0,0,1,450.63,176Z"/></g><path id="_Trazado_compuesto_6" data-name="&lt;Trazado compuesto&gt;" class="cls-22" d="M456.16,153.87l-.15-.09v-3.43a9.44,9.44,0,0,0-4.28-7.38l-4.23-2.43c-2.36-1.35-4.27-.24-4.26,2.47v3.43l-.15-.09c-.89-.51-1.62-.09-1.61.94l0,12a3.57,3.57,0,0,0,1.62,2.79l13.07,7.51c.89.51,1.62.09,1.61-.94l0-12A3.57,3.57,0,0,0,456.16,153.87Zm-10.89-9.68c0-1.42,1-2,2.23-1.29l4.23,2.43a4.94,4.94,0,0,1,2.24,3.86v3.43l-8.7-5Zm5.33,13.8v4.2c0,.61-.42.85-.95.55a2.1,2.1,0,0,1-1-1.64v-4.2a4.32,4.32,0,0,1-1-2.58c0-1.26.88-1.77,2-1.14a4.35,4.35,0,0,1,2,3.4C451.6,157.44,451.19,157.95,450.59,158Z"/></g><g id="_Grupo_119" data-name="&lt;Grupo&gt;"><path id="_Trazado_152" data-name="&lt;Trazado&gt;" class="cls-22" d="M334.14,122.36a1,1,0,0,1-1-1v-3.33a1,1,0,0,1,1.9,0v3.33A1,1,0,0,1,334.14,122.36Z"/><path id="_Trazado_compuesto_7" data-name="&lt;Trazado compuesto&gt;" class="cls-22" d="M334.14,150.12a1,1,0,0,1-1-1v-6.94a1,1,0,0,1,1.9,0v6.94A1,1,0,0,1,334.14,150.12Zm0-13.88a1,1,0,0,1-1-1v-6.94a1,1,0,0,1,1.9,0v6.94A1,1,0,0,1,334.14,136.24Z"/><path id="_Trazado_153" data-name="&lt;Trazado&gt;" class="cls-22" d="M334.14,160.39a1,1,0,0,1-1-1v-3.33a1,1,0,1,1,1.9,0v3.33A1,1,0,0,1,334.14,160.39Z"/></g><g id="_Grupo_120" data-name="&lt;Grupo&gt;"><path id="_Trazado_154" data-name="&lt;Trazado&gt;" class="cls-22" d="M393.59,156.07a1,1,0,0,1-1-1v-3.33a1,1,0,0,1,1.9,0v3.33A1,1,0,0,1,393.59,156.07Z"/><path id="_Trazado_compuesto_8" data-name="&lt;Trazado compuesto&gt;" class="cls-22" d="M393.59,180.95a1,1,0,0,1-1-1v-6.22a1,1,0,0,1,1.9,0V180A1,1,0,0,1,393.59,180.95Zm0-12.44a1,1,0,0,1-1-1v-6.22a1,1,0,1,1,1.9,0v6.22A1,1,0,0,1,393.59,168.51Z"/><path id="_Trazado_155" data-name="&lt;Trazado&gt;" class="cls-22" d="M393.59,190.5a1,1,0,0,1-1-1v-3.33a1,1,0,0,1,1.9,0v3.33A1,1,0,0,1,393.59,190.5Z"/></g><g id="_Grupo_121" data-name="&lt;Grupo&gt;"><path id="_Trazado_156" data-name="&lt;Trazado&gt;" class="cls-22" d="M449.14,188.83a1,1,0,0,1-1-1v-3.33a1,1,0,1,1,1.9,0v3.33A1,1,0,0,1,449.14,188.83Z"/><path id="_Trazado_compuesto_9" data-name="&lt;Trazado compuesto&gt;" class="cls-22" d="M449.14,215.87a1,1,0,0,1-1-1v-6.76a1,1,0,1,1,1.9,0v6.76A1,1,0,0,1,449.14,215.87Zm0-13.52a1,1,0,0,1-1-1v-6.76a1,1,0,0,1,1.9,0v6.76A1,1,0,0,1,449.14,202.35Z"/><path id="_Trazado_157" data-name="&lt;Trazado&gt;" class="cls-22" d="M449.14,226a1,1,0,0,1-1-1v-3.33a1,1,0,0,1,1.9,0V225A1,1,0,0,1,449.14,226Z"/></g><path id="_Trazado_158" data-name="&lt;Trazado&gt;" class="cls-22" d="M284.94,86.07c0,2.63-1.84,3.69-4.12,2.38a9.1,9.1,0,0,1-4.12-7.13c0-2.63,1.84-3.69,4.12-2.38A9.1,9.1,0,0,1,284.94,86.07Z"/><path id="_Trazado_159" data-name="&lt;Trazado&gt;" class="cls-22" d="M80.24,126.2c0,2.63-1.84,3.69-4.12,2.38A9.1,9.1,0,0,1,72,121.44c0-2.63,1.84-3.69,4.12-2.38A9.1,9.1,0,0,1,80.24,126.2Z"/><path id="_Trazado_160" data-name="&lt;Trazado&gt;" class="cls-22" d="M570.59,352.75c0,2.63-1.84,3.69-4.12,2.38a9.1,9.1,0,0,1-4.12-7.13c0-2.63,1.84-3.69,4.12-2.38A9.1,9.1,0,0,1,570.59,352.75Z"/><path id="_Trazado_161" data-name="&lt;Trazado&gt;" class="cls-22" d="M411.86,56.72c0,2.63-1.84,3.69-4.12,2.38A9.1,9.1,0,0,1,403.62,52c0-2.63,1.84-3.69,4.12-2.38A9.1,9.1,0,0,1,411.86,56.72Z"/><path id="_Trazado_162" data-name="&lt;Trazado&gt;" class="cls-22" d="M503.35,186.92c0,2.63-1.84,3.69-4.12,2.38a9.1,9.1,0,0,1-4.12-7.13c0-2.63,1.84-3.69,4.12-2.38A9.1,9.1,0,0,1,503.35,186.92Z"/><path id="_Trazado_163" data-name="&lt;Trazado&gt;" class="cls-22" d="M512.22,277.84c0,2.63-1.84,3.69-4.12,2.38a9.1,9.1,0,0,1-4.12-7.13c0-2.63,1.84-3.69,4.12-2.38A9.1,9.1,0,0,1,512.22,277.84Z"/><path id="_Trazado_164" data-name="&lt;Trazado&gt;" class="cls-22" d="M102.61,336.1c0,2.63-1.84,3.69-4.12,2.38a9.1,9.1,0,0,1-4.12-7.13c0-2.63,1.84-3.69,4.12-2.38A9.1,9.1,0,0,1,102.61,336.1Z"/><path id="_Trazado_165" data-name="&lt;Trazado&gt;" class="cls-22" d="M21.09,208.61c0,2.63-1.84,3.69-4.12,2.38a9.1,9.1,0,0,1-4.12-7.13c0-2.63,1.84-3.69,4.12-2.38A9.1,9.1,0,0,1,21.09,208.61Z"/><path id="_Trazado_166" data-name="&lt;Trazado&gt;" class="cls-22" d="M274.65,69.13c0,1.51-1.06,2.12-2.37,1.37a5.23,5.23,0,0,1-2.37-4.1c0-1.51,1.06-2.12,2.37-1.37A5.23,5.23,0,0,1,274.65,69.13Z"/><path id="_Trazado_167" data-name="&lt;Trazado&gt;" class="cls-22" d="M400.28,65.49c0,1.51-1.06,2.12-2.37,1.37a5.23,5.23,0,0,1-2.37-4.1c0-1.51,1.06-2.12,2.37-1.37A5.23,5.23,0,0,1,400.28,65.49Z"/><path id="_Trazado_168" data-name="&lt;Trazado&gt;" class="cls-22" d="M363.45,26.23c0,1.51-1.06,2.12-2.37,1.37a5.23,5.23,0,0,1-2.37-4.1c0-1.51,1.06-2.12,2.37-1.37A5.23,5.23,0,0,1,363.45,26.23Z"/><path id="_Trazado_169" data-name="&lt;Trazado&gt;" class="cls-22" d="M473.5,88.37c0,1.51-1.06,2.12-2.37,1.37a5.23,5.23,0,0,1-2.37-4.1c0-1.51,1.06-2.12,2.37-1.37A5.23,5.23,0,0,1,473.5,88.37Z"/><path id="_Trazado_170" data-name="&lt;Trazado&gt;" class="cls-22" d="M516.73,171.14c0,1.51-1.06,2.12-2.37,1.37a5.23,5.23,0,0,1-2.37-4.1c0-1.51,1.06-2.12,2.37-1.37A5.23,5.23,0,0,1,516.73,171.14Z"/><path id="_Trazado_171" data-name="&lt;Trazado&gt;" class="cls-22" d="M531.19,228.37c0,1.51-1.06,2.12-2.37,1.37a5.23,5.23,0,0,1-2.37-4.1c0-1.51,1.06-2.12,2.37-1.37A5.23,5.23,0,0,1,531.19,228.37Z"/><path id="_Trazado_172" data-name="&lt;Trazado&gt;" class="cls-22" d="M545.45,325.52c0,1.51-1.06,2.12-2.37,1.37a5.23,5.23,0,0,1-2.37-4.1c0-1.51,1.06-2.12,2.37-1.37A5.23,5.23,0,0,1,545.45,325.52Z"/><path id="_Trazado_173" data-name="&lt;Trazado&gt;" class="cls-22" d="M27.12,185.22c0,1.51-1.06,2.12-2.37,1.37a5.23,5.23,0,0,1-2.37-4.1c0-1.51,1.06-2.12,2.37-1.37A5.23,5.23,0,0,1,27.12,185.22Z"/><path id="_Trazado_174" data-name="&lt;Trazado&gt;" class="cls-22" d="M86.37,327.07c0,1.51-1.06,2.12-2.37,1.37a5.23,5.23,0,0,1-2.37-4.1c0-1.51,1.06-2.12,2.37-1.37A5.23,5.23,0,0,1,86.37,327.07Z"/><path id="_Trazado_175" data-name="&lt;Trazado&gt;" class="cls-22" d="M510.47,157.07c0,1.51-1.06,2.12-2.37,1.37a5.23,5.23,0,0,1-2.37-4.1c0-1.51,1.06-2.12,2.37-1.37A5.23,5.23,0,0,1,510.47,157.07Z"/><path id="_Trazado_176" data-name="&lt;Trazado&gt;" class="cls-22" d="M283.44,49.92c0,.83-.58,1.17-1.31.75a2.89,2.89,0,0,1-1.31-2.26c0-.83.58-1.17,1.31-.75A2.89,2.89,0,0,1,283.44,49.92Z"/><path id="_Trazado_177" data-name="&lt;Trazado&gt;" class="cls-22" d="M250.33,98c0,.83-.58,1.17-1.31.75a2.89,2.89,0,0,1-1.31-2.26c0-.83.58-1.17,1.31-.75A2.89,2.89,0,0,1,250.33,98Z"/><path id="_Trazado_178" data-name="&lt;Trazado&gt;" class="cls-22" d="M165.72,121.46c0,.83-.58,1.17-1.31.75A2.89,2.89,0,0,1,163.1,120c0-.83.58-1.17,1.31-.75A2.89,2.89,0,0,1,165.72,121.46Z"/><path id="_Trazado_179" data-name="&lt;Trazado&gt;" class="cls-22" d="M9.24,194.23c0,.83-.58,1.17-1.31.75a2.89,2.89,0,0,1-1.31-2.26c0-.83.58-1.17,1.31-.75A2.89,2.89,0,0,1,9.24,194.23Z"/><path id="_Trazado_180" data-name="&lt;Trazado&gt;" class="cls-22" d="M500.53,260.4c0,.83-.58,1.17-1.31.75a2.89,2.89,0,0,1-1.31-2.26c0-.83.58-1.17,1.31-.75A2.89,2.89,0,0,1,500.53,260.4Z"/><path id="_Trazado_181" data-name="&lt;Trazado&gt;" class="cls-22" d="M433.14,93.85c0,.83-.58,1.17-1.31.75a2.89,2.89,0,0,1-1.31-2.26c0-.83.58-1.17,1.31-.75A2.89,2.89,0,0,1,433.14,93.85Z"/></g></g></g></g></g></svg>