<svg xmlns="http://www.w3.org/2000/svg" viewBox="0 0 814.75 936.3"><defs><style>.cls-1{isolation:isolate;}.cls-2,.cls-4{fill:#231f20;}.cls-2{opacity:0.3;mix-blend-mode:multiply;}.cls-3{fill:#fff;}.cls-5{fill:#e23d3a;}</style></defs><title>KRecurso 1k</title><g class="cls-1"><g id="Capa_2" data-name="Capa 2"><g id="bulb"><ellipse class="cls-2" cx="160.1" cy="918.31" rx="136.01" ry="17.99"/><path class="cls-3" d="M147.06,845l71.17-13.69S240,795.61,231.8,752.92C221.23,698,281,663,266.22,586.19c-15.32-79.69-89-126.75-158.33-113.56h0l-.12,0-.12,0h0C38.42,486.13-12.59,557.17,2.74,636.86c14.77,76.83,86.87,84.09,97.44,139.06C108.39,818.61,147.06,845,147.06,845Z"/><path class="cls-3" d="M131.35,919.22c-25.64-4.88-11.91-126.3-11.91-126.3a24.37,24.37,0,1,1,48.6,3.77S157,924.09,131.35,919.22Z"/><path class="cls-3" d="M184.16,920.45c-30.36-2.44-1-129.59-1-129.59a24.37,24.37,0,0,1,28.37-19.58c13.24,2.43,22.44,6.15,20.42,21.62C231.95,792.9,212.11,922.7,184.16,920.45Z"/><path class="cls-3" d="M102.09,481.07s-15.64-.06-23.37-8.7c-7.95-8.88,11.76-11.59,19.75-4.92a26.49,26.49,0,0,1,5.2,5.64s.39-13.4,6.63-16.53,11,2.84,8.36,8L116,469.75a27.3,27.3,0,0,1,12.86-9.17c6.66-2.11,12.59-2.13,10.15,3.56C137.33,468,122.65,478,122.65,478Z"/><path class="cls-3" d="M52.57,847.5c88-33.61,82.29-95,83.13-97.56a17.14,17.14,0,0,0-32.59-10.65c-.26.75-12.57,52.7-62.12,80-4.09,2.25-14,14-8.69,22.72S51.15,848,52.57,847.5Z"/><path class="cls-3" d="M312.49,688.19a9.75,9.75,0,0,0-1-.27l2.21-11.6a8.17,8.17,0,1,0-16.06-3.06l-3.75,19.67a8.18,8.18,0,0,0-12.22,10.45l4.55,7.86c-19,19.19-61.5,18.28-79.15,17.15a19.08,19.08,0,0,0-2.55,38.07,217.25,217.25,0,0,0,48.34-3.06c.38-.07.76-.1,1.13-.21,41.77-11.8,56.62-27,62.59-45.25C319.85,707.93,322.51,691.47,312.49,688.19Z"/><polygon class="cls-4" points="184.82 752.6 184.96 752.56 190.45 751.09 192.42 736.75 183.83 731.3 179.54 732.46 179.41 732.49 175.12 733.65 170.44 742.67 179.33 754.08 184.82 752.6"/><polygon class="cls-4" points="202.77 818.66 213.48 799.75 191.14 754.45 185.85 755.87 185.85 755.87 185.79 755.89 185.72 755.9 185.72 755.9 180.42 757.33 183.86 807.73 202.63 818.7 202.67 818.84 202.72 818.75 202.81 818.8 202.77 818.66"/><path class="cls-4" d="M242.74,531.21c-3,2.13-6.15,4.08-9.29,6s-6.39,3.61-9.67,5.22c-2.44,1.23-5,2.36-7.45,3.4-1.83-3.18-3.67-6.36-5.56-9.51l-.14-.21a3.46,3.46,0,0,0-4.84-.84l-.2.14q-4.87,3.44-9.91,6.6c-3.37,2.09-6.73,4.2-10.17,6.16s-6.91,3.86-10.43,5.65l-2.57,1.27,1.22-7.27a4.87,4.87,0,0,0-1.22-4.07,4.82,4.82,0,0,0-6.82-.26l-.06.05A147.5,147.5,0,0,1,141,561.7a297.7,297.7,0,0,1-27.54,14.73c-4.71,2.28-9.5,4.42-14.32,6.51s-9.65,4.19-14.55,6.14c-9.75,4-19.65,7.74-29.63,11.42a261.5,261.5,0,0,0,31.22-6.75q7.7-2.19,15.32-4.66t15.07-5.51a236.5,236.5,0,0,0,29.17-13.83A174.78,174.78,0,0,0,162.24,559l-.52,3.45,0,.13a4.67,4.67,0,0,0,6.51,5c4-1.77,7.56-3.6,11.17-5.65s7.13-4.13,10.6-6.33,6.9-4.46,10.2-6.91c2.31-1.69,4.59-3.45,6.84-5.22,1.82,2.62,3.64,5.24,5.51,7.83l.21.28a2.79,2.79,0,0,0,3.49.87,110.68,110.68,0,0,0,10-5.68c3.17-2.06,6.25-4.27,9.23-6.58a105.49,105.49,0,0,0,8.53-7.4,91.24,91.24,0,0,0,7.6-8.27C248.74,526.87,245.74,529.06,242.74,531.21Z"/><path class="cls-4" d="M133.25,693.2a45.35,45.35,0,1,1,27.29-58A45.4,45.4,0,0,1,133.25,693.2ZM105.79,617a35.61,35.61,0,1,0,45.57,21.42A35.65,35.65,0,0,0,105.79,617Z"/><path class="cls-4" d="M250.7,650.86A45.36,45.36,0,1,1,278,592.81,45.41,45.41,0,0,1,250.7,650.86Zm-27.46-76.17a35.61,35.61,0,1,0,45.58,21.42A35.65,35.65,0,0,0,223.23,574.69Z"/><path class="cls-4" d="M158.08,632.62l-8.17-5.33a42,42,0,0,1,47.4-17.19l-2.85,9.32a32.23,32.23,0,0,0-36.38,13.2Z"/><circle class="cls-4" cx="237.35" cy="609.09" r="13.7" transform="translate(-394.61 441.9) rotate(-53.89)"/><path class="cls-4" d="M255.3,596.57a17.27,17.27,0,0,0-5.52-7.59,18.7,18.7,0,0,0-8.91-4,18.06,18.06,0,0,0-9.71,1.21,18.46,18.46,0,0,0-7.48,5.66,77.41,77.41,0,0,1,8.53-2,25.69,25.69,0,0,1,7.93-.09C245.33,590.5,250.2,593.1,255.3,596.57Z"/><circle class="cls-4" cx="117.36" cy="654.03" r="13.7" transform="translate(-546.4 623.24) rotate(-77.17)"/><path class="cls-4" d="M94,655.53c2.29-5.73,4.87-10.6,8.74-14.13a25.67,25.67,0,0,1,6.63-4.36,76.82,76.82,0,0,1,8.22-3.07,18.4,18.4,0,0,0-9.36-.52,18,18,0,0,0-8.72,4.43,18.64,18.64,0,0,0-5.17,8.28A17.28,17.28,0,0,0,94,655.53Z"/><path class="cls-4" d="M163.17,663.84l22.1-7.84.4-.14,22.1-7.83a217.36,217.36,0,0,1,7.56,27.75c2.72,13.62-2.43,25.42-12.29,29.11h0l-.11,0-.09,0-.08,0-.12,0h0c-10,3.35-21.41-2.57-27.87-14.87A216.49,216.49,0,0,1,163.17,663.84Z"/><path class="cls-5" d="M174.78,690.15c-1.35-2.57-2.6-5.09-3.74-7.49,4-3.36,17.73-11.65,45,.14,0,10.51-4.89,19-13,22.08h0l-.11,0-.09,0-.08,0-.12,0h0C192.68,708.37,181.24,702.44,174.78,690.15Z"/><path class="cls-3" d="M700.19,258.8c-5.9-41.94-23.91-79.72-52.09-109.24A195.6,195.6,0,0,0,541,92.18a173.42,173.42,0,0,0-29.67-2.54,199.27,199.27,0,0,0-63.72,10.9c-47.49,16-92.34,46.76-126.31,86.52s-50.94,82.09-49.44,122.79c2.13,57.7,33.85,106.26,60.09,136.84a331.48,331.48,0,0,0,24.24,25.42c6.92,6.52,14.4,12.45,21.64,18.18,2.31,1.83,4.62,3.66,6.92,5.52,9.76,7.87,16,20.81,15.56,32.2a23.62,23.62,0,0,1-10.62,19.24,1.5,1.5,0,0,0,1.57,2.55,27.06,27.06,0,0,0,14.32-21.17c1.61-13.13-4.77-29.25-15.52-39.21-18.7-17.33-38.23-36.51-54.32-59.33-24.55-34.81-51.79-88-42.12-143.55,8.29-47.64,43.84-86.31,72.21-110.35,39.81-33.75,84.27-55,125.19-60a160.33,160.33,0,0,1,19.06-1.14,164.09,164.09,0,0,1,85.76,24.13A179.27,179.27,0,0,1,636.38,173c18.34,20.66,31.46,44.25,36.93,66.46,10.62,38.79,9.73,79.81-2.5,115.52a184.48,184.48,0,0,1-33.26,59c-14.9,17.59-32.2,31.37-50.52,46l-1.34,1.06a216.93,216.93,0,0,0-43.47,47.8c-10.45,15.54-18.74,32.06-27,49a1.5,1.5,0,0,0,2.63,1.44c8.52-14,17.83-28.92,28.22-42.91,13.75-18.52,31.14-33.46,44.75-44.41,5.42-4.36,11.39-8.38,17.16-12.27,2.89-1.94,5.87-4,8.75-6a200.54,200.54,0,0,0,19.4-16.08A207.22,207.22,0,0,0,678,384.49C698.16,347.78,706.25,302,700.19,258.8Z"/><path class="cls-3" d="M402.44,564c-5.09-.32-13.54-2.17-17.79,1.46-6.61,5.66,15,7,17.21,7a373.83,373.83,0,0,0,54-2.5c8.4-1,16.67-2.95,25-4.29s20.94-4.21,28.46,1.21c4.12,3,5.4,8.71,1.52,12.37-6.38,5.71-17.23,6.65-25.33,7.79-19.17,2.7-38.68,3.29-58,3.36-7.24,0-14.49-.41-21.72-.41-1-.06-6.17-.18-6.46,1.31.49,3.68,6.78,4.37,9.43,4.66,19,1.95,38.25.77,57.3,2.24,7.39.57,39.74,2.3,33,16.83-3.21,6.9-14.38,7.6-20.86,8.3-10.16,1-20.39,1.22-30.58,1.61-10,.39-20.07.7-29.94,2.33-1.86.31-19.58,4.91-15.2,8.06,3.23,1.61,7.44,1.57,11,1.82,7.31.53,14.64.74,22,1.13,6.56.35,13.15.74,19.65,1.69,4.19.61,9.82,1.13,13,4.28-4.07-3.58-11.71-3.34-16.8-3.61-8.9-.45-17.81-.3-26.72-.3-2.95,0-36.32,1.59-24.35-10.63,5.52-5.64,15.47-6.84,22.86-8,9.72-1.47,19.56-2,29.36-2.6,9.13-.58,18.3-1,27.36-2.37,1.43-.21,15.05-2.26,13.2-5.34-2.86-5.42-17.87-5.37-22.86-5.79-10-.82-20-1-29.94-1.24-9.21-.17-18.45-.15-27.65-.7-5.09-.31-10.42-.54-14.83-3.38-6-3.86-8.48-12.78-.73-16.34,6.13-2.82,14.69-1.11,21.21-1a532.61,532.61,0,0,0,59.26-1.84c2.6-.25,30.85-4.78,29.61-6.91-.89-8.56-25.76-3.18-30.81-2.41A329.46,329.46,0,0,1,432,575.56c-14,.25-29.35,1.07-43-2.48-2.15-.56-6.23-1.6-6.56-4.36-.5-3.15,1.87-4.94,4.69-5.49C392.16,562.25,397.42,563.36,402.44,564Z"/><path class="cls-3" d="M419.07,471.81c1.71,0-6.49-40.14-7.23-43.49-3.93-18-7.87-35.92-10-54.19-2-16.78-4.24-38.16,5.3-53.17,6.61-10.4,18.91-13.42,29.69-8.14,7.53,3.69,13.28,10.05,20.46,14.28,6.79,4,11.83,3.64,18.95.85,7-2.6,15.43.13,18.48,7.2,2.21,5.12,3.16,9.56,9,10.71,11.73,2.29,17.28-15.19,29.77-9.65,6.4,2.63,7.26,10.5,13.14,13.3,7.29,3.47,14.39,2.28,22.23,2.2,6.77-.07,15.29-2.94,21.72,0,8.56,3.85,5.59,14.88,3.54,21.76-3.63,12.21-10.36,22.74-19,32.08-12.86,13.91-28.58,24.77-41.9,38.19-12.31,12.4-22.31,27.32-30.7,42.57-8.27,15-16.24,32.09-16.85,49.51a40.82,40.82,0,0,0,.51,8.59c0-.16.51,6.22-.65,3.66-3.23-7.11-4.18-14.78-3.78-22.54,1-18.55,7.86-36.71,16.16-53.14,8.1-16,18-31,30.78-43.71,14.25-14.2,31.7-25.75,43.9-41.9,4.87-6.45,11.24-17.23,11.19-25.55-.06,1,1.32,1.24,1.77,1.77-1.2,1-9.13.15-10.89.19-3.85.1-7.67-.2-11.51-.31-7.81-.24-14.62-.9-21.33-5.33-8.09-4.65-9.16-21.4-20.4-12.89-6.45,4.9-13.07,8.35-21.24,5.16-5.33-2.16-7.05-6.71-8.91-11.81-3.21-9.33-11.29-6.59-18.22-4.14-7.09,2.51-14.3.26-20.67-3.15-8.72-4.67-20.11-15.6-30.52-10-6.91,3.71-8.23,13.44-8.89,20.43-1,10.26-.39,20.67.47,30.91,1.54,18.39,4.35,36.65,6.42,55,.42,3.73,3.95,45.78-.14,45Z"/><path class="cls-3" d="M214.36,265.27a23.22,23.22,0,0,0-9.11,1.81,5.06,5.06,0,0,0-.83,8.88c1.46,1,2.92,2,4.39,3,4.33,2.93,8.8,6,13.41,8.66,6,3.75,13.86,8.16,22.27,9.06a4.88,4.88,0,0,0,.54,0h0a5.06,5.06,0,0,0,4.26-7.78C243.17,277.19,228.56,265.27,214.36,265.27Z"/><path class="cls-3" d="M277.18,145.29l-.44-.43a106.54,106.54,0,0,0-15.08-11.95l-.1-.06c-10.75-6.88-22.34-13.31-34.24-13.71a5.06,5.06,0,0,0-3.42,8.94,328,328,0,0,0,27.16,20.75l.1.07c6.63,4.25,12.15,7.57,17.36,10.46,1.17.65,2.39,1.25,3.56,1.84a30.89,30.89,0,0,1,7,4.25,5.06,5.06,0,0,0,3.46,1.36h0a5.07,5.07,0,0,0,4.87-6.41C286.26,154.1,281,149,277.18,145.29Z"/><path class="cls-3" d="M387.56,49.81A94.64,94.64,0,0,0,376.92,32c-3.74-4.83-8-9.6-13.68-11.81a5.06,5.06,0,0,0-6.12,7.42,60.54,60.54,0,0,1,4.75,10.32c.48,1.24,1,2.47,1.46,3.68,2.27,5.52,4.73,11.28,7.34,17.22,2.84,6.15,6,12.19,9,18,2.26,4.33,4.6,8.81,6.76,13.25A5.06,5.06,0,0,0,391,92.92a5.13,5.13,0,0,0,.67,0A5.06,5.06,0,0,0,396,88.82c1.2-6.23,0-12.76-1.38-18.89A101.55,101.55,0,0,0,387.56,49.81Z"/><path class="cls-3" d="M578.06.34a5.06,5.06,0,0,0-5.68,1.43c-8.45,9.88-13,21.76-16.11,31-4,12.09-5.29,25.69-3.51,37.29a5.06,5.06,0,0,0,9.38,1.77c5.78-10,9.16-21.56,12.11-32.58,3.35-10.94,6.65-22.58,7-34A5.06,5.06,0,0,0,578.06.34Z"/><path class="cls-3" d="M759.3,127.09a5.06,5.06,0,0,0-5.24-8,138.39,138.39,0,0,0-34.88,14.85c-8.6,5.09-20.76,13.34-27.06,26.1a5.06,5.06,0,0,0,6.81,6.77c10.89-5.46,21.69-11.6,31.74-17.44C741,143.35,751.67,136.7,759.3,127.09Z"/><path class="cls-3" d="M814,258.88a5.07,5.07,0,0,0-5.25-2.34c-3.56.66-7.22,1.25-10.76,1.81-6.85,1.09-13.92,2.22-20.92,4a182.05,182.05,0,0,0-29,9.91,5.06,5.06,0,0,0,.53,9.45A44.25,44.25,0,0,0,762,283.6a86.31,86.31,0,0,0,22-3.3c10.9-2.89,22.95-7,29.66-15.69A5.06,5.06,0,0,0,814,258.88Z"/><path class="cls-3" d="M738,395.62A41,41,0,0,0,727.25,397a5.06,5.06,0,0,0-1.51,9.08c7.17,4.84,15.79,8.11,23.4,11l.89.34c7.67,3,16.37,6.48,25.21,7.46a5.11,5.11,0,0,0,.56,0h0a5.06,5.06,0,0,0,3.89-8.28C770.95,404,754.23,395.62,738,395.62Z"/></g></g></g></svg>